<svg width="20" height="20" viewBox="0 0 20 20" fill="none" xmlns="http://www.w3.org/2000/svg">
<g id="discord-icon logo">
<g id="Group">
<path id="Vector" d="M16.9419 3.56223C15.6473 2.95651 14.263 2.51629 12.8157 2.26562C12.638 2.58697 12.4304 3.01918 12.2872 3.363C10.7487 3.13164 9.22445 3.13164 7.7143 3.363C7.57116 3.01918 7.3588 2.58697 7.17947 2.26562C5.73067 2.51629 4.3448 2.95812 3.05016 3.56544C0.438869 7.51145 -0.269009 11.3594 0.0849305 15.1528C1.81688 16.4462 3.49534 17.2319 5.14548 17.746C5.55291 17.1852 5.91628 16.5892 6.22931 15.961C5.63313 15.7344 5.06211 15.4549 4.52256 15.1303C4.6657 15.0243 4.80571 14.9134 4.94098 14.7993C8.23183 16.3385 11.8074 16.3385 15.0589 14.7993C15.1958 14.9134 15.3358 15.0243 15.4774 15.1303C14.9362 15.4565 14.3637 15.736 13.7675 15.9626C14.0805 16.5892 14.4423 17.1869 14.8513 17.7476C16.503 17.2334 18.183 16.4478 19.915 15.1528C20.3303 10.7553 19.2056 6.94268 16.9419 3.56223ZM6.67765 12.8199C5.68977 12.8199 4.87963 11.8977 4.87963 10.7746C4.87963 9.65154 5.67247 8.7277 6.67765 8.7277C7.68285 8.7277 8.49297 9.64992 8.47567 10.7746C8.47723 11.8977 7.68285 12.8199 6.67765 12.8199ZM13.3223 12.8199C12.3344 12.8199 11.5243 11.8977 11.5243 10.7746C11.5243 9.65154 12.3171 8.7277 13.3223 8.7277C14.3275 8.7277 15.1376 9.64992 15.1203 10.7746C15.1203 11.8977 14.3275 12.8199 13.3223 12.8199Z" fill="#808080"/>
</g>
</g>
</svg>
