<svg width="20" height="20" viewBox="0 0 20 20" fill="none" xmlns="http://www.w3.org/2000/svg">
  <path
    d="M10.0001 1C5.03012 1 1 5.13136 1 10.2279C1 14.305 3.5788 17.764 7.1548 18.9841C7.6046 19.0696 7.76973 18.784 7.76973 18.5402C7.76973 18.3202 7.76138 17.5933 7.75751 16.8222C5.25368 17.3804 4.72534 15.7334 4.72534 15.7334C4.31593 14.6668 3.72604 14.3832 3.72604 14.3832C2.90947 13.8105 3.7876 13.8222 3.7876 13.8222C4.69136 13.8873 5.16724 14.7732 5.16724 14.7732C5.96995 16.1839 7.27269 15.7761 7.78627 15.5403C7.86705 14.9439 8.10029 14.5368 8.35768 14.3063C6.35864 14.073 4.25721 13.2818 4.25721 9.74589C4.25721 8.73842 4.60879 7.91524 5.18453 7.26901C5.09108 7.03658 4.78302 6.09803 5.27171 4.82696C5.27171 4.82696 6.02748 4.57895 7.74737 5.77285C8.46529 5.56839 9.23521 5.46586 10.0001 5.46234C10.7649 5.46586 11.5355 5.56839 12.2547 5.77285C13.9725 4.57895 14.7272 4.82696 14.7272 4.82696C15.2171 6.09803 14.9089 7.03658 14.8155 7.26901C15.3925 7.91524 15.7417 8.73842 15.7417 9.74589C15.7417 13.2902 13.6363 14.0706 11.6322 14.299C11.955 14.5854 12.2426 15.1469 12.2426 16.0079C12.2426 17.2426 12.2322 18.2363 12.2322 18.5402C12.2322 18.7858 12.3942 19.0735 12.8504 18.9829C16.4245 17.7614 19 14.3036 19 10.2279C19 5.13136 14.9705 1 10.0001 1Z"
    fill="#000000" />
</svg>