<svg width="155" height="79" viewBox="0 0 155 79" fill="none" xmlns="http://www.w3.org/2000/svg">
<g clip-path="url(#clip0_138_121)">
<path fill-rule="evenodd" clip-rule="evenodd" d="M0.135742 0.13623H137.01L154.594 17.8286V78.8638H17.6519L0.135742 61.2395V0.13623ZM2.16631 3.631V60.3933L17.0571 75.376V18.6737L2.16631 3.631ZM3.59524 2.17933L18.4942 17.2302H151.128L136.169 2.17933H3.59524ZM152.564 76.8207H19.0877V19.2733H152.564V76.8207Z" fill="#000000"/>
<path d="M43.0484 42.02C43.0484 44.0631 41.6946 45.8337 38.4457 45.8337C37.0243 45.8337 35.8737 45.4932 34.8584 45.0846V42.2243C35.9414 42.7691 37.2274 43.1096 38.3781 43.1096C39.461 43.1096 40.0025 42.7691 40.0025 42.1562C40.0025 40.2493 34.8584 40.8622 34.8584 36.9803C34.8584 34.5967 36.7536 33.1665 39.3933 33.1665C40.4763 33.1665 41.4916 33.4389 42.5746 34.0518V36.9803C41.1532 36.095 40.1379 35.8225 39.3256 35.8225C38.378 35.8225 37.8366 36.1631 37.8366 36.776C37.8366 38.6148 43.0484 37.8656 43.0484 42.02Z" fill="#000000"/>
<path d="M45.6885 39.5001C45.6885 36.0268 48.5313 33.1665 51.9832 33.1665C55.4352 33.1665 58.278 36.0268 58.278 39.5001C58.278 42.9734 55.4352 45.8337 51.9832 45.8337C48.4636 45.7656 45.6885 42.9734 45.6885 39.5001ZM55.1645 39.5001C55.1645 37.5932 53.7431 36.1631 51.9832 36.1631C50.2234 36.1631 48.7343 37.5932 48.7343 39.5001C48.7343 41.407 50.1557 42.8372 51.9155 42.8372C53.6754 42.8372 55.1645 41.407 55.1645 39.5001Z" fill="#000000"/>
<path d="M65.2493 32.4172V33.4388H69.2428L67.8891 36.2991H65.317V45.5612H62.4065V36.2991H60.376V33.4388H62.4065V32.281C62.4065 28.6034 64.3017 26.7646 67.2799 26.7646C68.0245 26.7646 68.7013 26.9009 69.3105 27.0371V29.8974C68.769 29.6931 68.1598 29.625 67.5507 29.625C65.9262 29.5569 65.2493 30.6465 65.2493 32.4172Z" fill="#000000"/>
<path d="M75.3344 36.2991V41.1345C75.3344 42.4284 76.0789 42.9733 77.2296 42.9733C77.9741 42.9733 78.7186 42.769 79.3278 42.3603V45.2888C78.5156 45.6293 77.771 45.8336 76.6881 45.8336C74.0483 45.8336 72.4239 44.4034 72.4239 41.475V36.2991H70.6641V33.4388H72.4239V30.3741L75.3344 29.625V33.5069H79.3278V36.3672H75.3344V36.2991Z" fill="#000000"/>
<path d="M100.378 33.439L96.5197 45.5614H93.6092L90.9694 37.2528L88.262 45.5614H85.2839L81.4258 33.439H84.7424L86.9083 41.5433L89.4804 33.439H92.3908L94.9629 41.5433L97.1288 33.439C97.1288 33.439 100.378 33.439 100.378 33.439Z" fill="#000000"/>
<path d="M101.935 39.5001C101.935 36.0268 104.439 33.1665 107.891 33.1665C109.245 33.1665 110.328 33.5751 111.14 34.2562V33.4389H114.05V45.5613H111.207V44.6079C110.395 45.357 109.245 45.8337 107.823 45.8337C104.439 45.7656 101.935 42.9734 101.935 39.5001ZM111.411 39.5001C111.411 37.5932 109.989 36.1631 108.229 36.1631C106.469 36.1631 105.048 37.5932 105.048 39.5001C105.048 41.407 106.469 42.8372 108.229 42.8372C109.921 42.8372 111.411 41.407 111.411 39.5001Z" fill="#000000"/>
<path d="M118.111 33.4387H120.954V35.1413C121.834 33.5068 123.458 33.2344 124.88 33.2344V36.7077C122.849 36.1628 121.022 37.3206 121.022 39.9085V45.5611H118.111V33.4387Z" fill="#000000"/>
<path d="M134.086 42.9734C135.236 42.9734 136.59 42.7691 137.944 42.2243L136.455 45.2889C135.778 45.5613 134.763 45.8337 133.544 45.8337C129.28 45.8337 126.708 43.1777 126.708 39.5001C126.708 36.0268 129.28 33.1665 133.003 33.1665C135.507 33.1665 137.538 34.4605 138.35 36.095V40.4536H129.822C130.295 41.9518 131.649 42.9734 134.086 42.9734ZM129.822 38.2062H136.116C135.71 36.776 134.492 35.8906 132.935 35.8906C131.378 35.8906 130.228 36.8441 129.822 38.2062Z" fill="#000000"/>
<path d="M51.7126 55.7766V63.7447H48.8021V56.2533C48.8021 54.9593 47.8545 54.2102 46.9069 54.2102C45.8916 54.2102 45.0117 54.9593 45.0117 56.2533V63.7447H42.1012V56.2533C42.1012 54.9593 41.1536 54.2102 40.206 54.2102C39.1907 54.2102 38.3108 54.9593 38.3108 56.2533V63.7447H35.1973V51.6904H38.0401V52.5757C38.92 51.6904 39.7999 51.418 40.9505 51.418C42.2366 51.418 43.3195 51.9628 44.0641 52.9844C45.0794 51.8947 46.2977 51.418 47.7191 51.418C49.9527 51.418 51.7126 53.1887 51.7126 55.7766Z" fill="#000000"/>
<path d="M54.8252 57.6837C54.8252 54.2104 57.3296 51.3501 60.7815 51.3501C62.1352 51.3501 63.2182 51.7587 64.0304 52.4398V51.6225H66.9409V63.7449H64.0981V62.7915C63.2859 63.5406 62.1352 64.0173 60.7138 64.0173C57.3296 64.0173 54.8252 61.157 54.8252 57.6837ZM64.3012 57.6837C64.3012 55.7768 62.8798 54.3467 61.12 54.3467C59.3601 54.3467 57.9387 55.7768 57.9387 57.6837C57.9387 59.5906 59.3601 61.0208 61.12 61.0208C62.8121 61.0889 64.3012 59.5906 64.3012 57.6837Z" fill="#000000"/>
<path d="M70.8672 51.6904H73.71V52.5757C74.5899 51.6904 75.7406 51.418 76.8912 51.418C79.3956 51.418 81.4261 53.3249 81.4261 55.9128V63.7447H78.5157V56.5257C78.5157 55.2318 77.5004 54.2102 76.2144 54.2102C74.9283 54.2102 73.913 55.2318 73.913 56.5257V63.7447H71.0026V51.6904H70.8672Z" fill="#000000"/>
<path d="M93.1353 60.2035C93.1353 62.2466 91.7816 64.0173 88.5327 64.0173C87.1113 64.0173 85.9606 63.6768 84.9453 63.2682V60.4079C86.0283 60.9527 87.3143 61.2932 88.465 61.2932C89.5479 61.2932 90.0894 60.9527 90.0894 60.3398C90.0894 58.4329 84.9453 59.0458 84.9453 55.1639C84.9453 52.7803 86.8405 51.3501 89.4802 51.3501C90.5632 51.3501 91.5785 51.6225 92.6615 52.2354V55.1639C91.2401 54.2785 90.2248 54.0061 89.4126 54.0061C88.465 54.0061 87.9235 54.3466 87.9235 54.9596C87.8558 56.7984 93.1353 56.1173 93.1353 60.2035Z" fill="#000000"/>
<path d="M99.431 51.6904V63.8128H96.5205V51.6904H99.431Z" fill="#000000"/>
<path d="M102.477 57.6837C102.477 54.2104 105.319 51.3501 108.771 51.3501C112.223 51.3501 115.066 54.2104 115.066 57.6837C115.066 61.157 112.223 64.0173 108.771 64.0173C105.319 64.0173 102.477 61.157 102.477 57.6837ZM111.953 57.6837C111.953 55.7768 110.531 54.3467 108.771 54.3467C107.011 54.3467 105.59 55.7768 105.59 57.6837C105.59 59.5906 107.011 61.0208 108.771 61.0208C110.531 61.0208 111.953 59.5906 111.953 57.6837Z" fill="#000000"/>
<path d="M118.111 51.6904H120.954V52.5757C121.834 51.6904 122.985 51.418 124.135 51.418C126.64 51.418 128.67 53.3249 128.67 55.9128V63.7447H125.76V56.5257C125.76 55.2318 124.745 54.2102 123.458 54.2102C122.172 54.2102 121.157 55.2318 121.157 56.5257V63.7447H118.247V51.6904H118.111Z" fill="#000000"/>
<path d="M134.356 60.4077V60.8844H133.341V63.7448H132.799V60.8844H131.784V60.4077H134.356Z" fill="#000000"/>
<path d="M135.507 60.4077L136.59 63.0638L137.605 60.4077H138.282V63.7448H137.741V61.2931L136.725 63.7448H136.251L135.372 61.2931V63.7448H134.83V60.4077H135.507Z" fill="#000000"/>
</g>
<defs>
<clipPath id="clip0_138_121">
<rect width="155" height="79" fill="white"/>
</clipPath>
</defs>
</svg>
