<svg width="45" height="24" viewBox="0 0 45 24" fill="none" xmlns="http://www.w3.org/2000/svg">
  <g clip-path="url(#clip0_228_715)">
    <path fill-rule="evenodd" clip-rule="evenodd"
      d="M0.0727539 0.0722656H0.618208H36.8728H37.0995L37.2595 0.233061L44.0231 7.03306L44.1818 7.19264V7.41772V23.2723V23.8177H43.6364H7.41821H7.19227L7.03251 23.658L0.232514 16.858L0.0727539 16.6982V16.4723V0.61772V0.0722656ZM1.16366 1.93456V16.2463L6.87274 21.9554V7.64364L1.16366 1.93456ZM1.93505 1.16317L7.64415 6.87227H42.3245L36.646 1.16317H1.93505ZM43.0909 22.7268H7.96365V7.96318H43.0909V22.7268Z"
      fill="black" />
    <path
      d="M16.8 16.9088C16.8 18.1088 16.0364 19.1269 14.1091 19.1269C13.2727 19.1269 12.6182 18.9451 12 18.6906V17.0542C12.6182 17.3815 13.3818 17.5633 14.0727 17.5633C14.6909 17.5633 15.0182 17.3815 15.0182 17.0178C15.0182 15.9269 12 16.2542 12 13.9997C12 12.6178 13.1273 11.7451 14.6545 11.7451C15.3091 11.7451 15.8909 11.8906 16.5091 12.2542V13.9997C15.6727 13.4906 15.0909 13.3088 14.6182 13.3088C14.0364 13.3088 13.7455 13.5269 13.7455 13.8542C13.7091 14.9088 16.8 14.5088 16.8 16.9088Z"
      fill="black" />
    <path
      d="M28.8362 11.927L26.5453 18.9815H24.7999L23.2726 14.1088L21.709 18.9452H19.9635L17.6726 11.8906H19.6362L20.909 16.6179L22.3999 11.8906H24.1453L25.6362 16.6179L26.909 11.8906H28.8362V11.927Z"
      fill="black" />
    <path
      d="M39.7818 14.3269V18.9815H38.0364V14.6178C38.0364 13.8542 37.4909 13.4178 36.9091 13.4178C36.2909 13.4178 35.7818 13.8542 35.7818 14.6178V18.9815H34.0364V14.6178C34.0364 13.8542 33.4909 13.4178 32.9091 13.4178C32.2909 13.4178 31.7818 13.8542 31.7818 14.6178V18.9815H30.0364V11.9269H31.6727V12.436C32.1818 11.9269 32.7273 11.7451 33.3818 11.7451C34.1091 11.7451 34.7637 12.0724 35.2 12.6542C35.7818 12.036 36.5091 11.7451 37.3455 11.7451C38.7636 11.7815 39.7818 12.7997 39.7818 14.3269Z"
      fill="black" />
  </g>
  <defs>
    <clipPath id="clip0_228_715">
      <rect width="44.3636" height="24" fill="white" />
    </clipPath>
  </defs>
</svg>