<svg width="1126" height="1067" viewBox="0 0 1126 1067" fill="none" xmlns="http://www.w3.org/2000/svg">
  <g filter="url(#filter0_d_29_143)">
    <rect x="435" y="383" width="245" height="112" fill="white" />
    <ellipse cx="473.786" cy="454" rx="24.5" ry="29" fill="url(#paint0_radial_29_143)" />
    <ellipse cx="473.786" cy="454" rx="24.5" ry="29" fill="url(#paint1_radial_29_143)" />
    <ellipse cx="616.786" cy="462" rx="24.5" ry="29" fill="url(#paint2_radial_29_143)" />
    <ellipse cx="616.786" cy="462" rx="24.5" ry="29" fill="url(#paint3_radial_29_143)" />
    <path d="M482.25 155.504L522.935 241.243L544.346 97.3204L482.25 155.504Z" fill="url(#paint4_linear_29_143)" />
    <path d="M542.081 253.599L694.08 356.599L686.286 368.5L556.786 423L416.786 351.5L410.08 339.6L542.081 253.599Z"
      fill="url(#paint5_linear_29_143)" />
    <path fill-rule="evenodd" clip-rule="evenodd"
      d="M565.58 419.999L557.286 415.999L410.08 339.598L417.024 501.786L565.58 594.598L570.786 581.499L565.58 419.999ZM499.145 461.059C506.586 464.262 512.286 466.716 512.286 455.999C512.286 437.765 503.286 427.999 486.286 420.005C469.286 412.011 456.286 423.344 456.286 441.578C456.286 459.811 468.786 460.656 482.286 457.499C487.852 456.197 493.926 458.812 499.145 461.059Z"
      fill="url(#paint6_linear_29_143)" />
    <path fill-rule="evenodd" clip-rule="evenodd"
      d="M694.08 356.599L557.286 416L565.58 594.599L694.08 501.788L694.08 356.599ZM615.97 466.57C606.592 472.593 601.287 476 601.287 461.5C601.287 443.146 607.287 433.666 624.287 425.62C641.287 417.573 654.287 428.981 654.287 447.335C654.287 458.374 648.679 458.358 641.055 458.336C636.003 458.322 630.065 458.305 624.287 461.5C621.242 463.183 618.462 464.969 615.97 466.57Z"
      fill="url(#paint7_linear_29_143)" />
    <path
      d="M628.883 466.814C625.841 468.496 623.016 470.512 620.213 472.578C619.922 472.793 619.62 473.017 619.308 473.248C617.009 474.954 614.206 477.034 611.723 478.322C610.291 479.065 607.922 480.125 605.071 480.224C601.6 480.345 598.107 479.004 595.599 476.05C593.533 473.616 592.732 470.775 592.346 468.738C591.93 466.542 591.786 464.085 591.786 461.5C591.786 451.351 593.434 442.356 598.407 434.577C603.368 426.818 610.881 421.454 620.222 417.033C631.322 411.779 642.747 412.34 651.459 419.051C659.785 425.464 663.786 436.087 663.786 447.335C663.786 452.673 662.764 459.158 657.398 463.249C652.491 466.991 646.554 466.494 643.884 466.256C642.464 466.13 641.189 465.993 640.028 465.868C635.026 465.329 632.132 465.017 628.883 466.814Z"
      stroke="url(#paint8_linear_29_143)" stroke-width="19" />
    <path
      d="M483.95 462.75C484.348 462.657 485.628 462.61 488.475 463.842C490.546 464.737 492.416 465.813 494.603 467.071C495.499 467.586 496.447 468.131 497.485 468.708C499.043 469.574 500.955 470.583 502.914 471.304C504.69 471.958 507.82 472.89 511.345 472.16C515.692 471.261 518.666 468.309 520.201 464.878C521.5 461.975 521.786 458.778 521.786 456C521.786 445.186 519.067 436.053 513.207 428.392C507.518 420.954 499.477 415.711 490.329 411.409C479.244 406.197 467.842 406.752 459.138 413.413C450.803 419.791 446.786 430.369 446.786 441.579C446.786 446.996 447.646 452.18 450.234 456.478C453.061 461.175 457.308 463.759 461.812 464.812C465.908 465.769 470.088 465.444 473.52 464.928C476.723 464.446 480.116 463.65 483.142 462.94C483.414 462.876 483.684 462.813 483.95 462.75Z"
      stroke="url(#paint9_linear_29_143)" stroke-width="19" />
    <rect x="641" y="705" width="221" height="115" fill="white" />
    <ellipse cx="807.011" cy="759.126" rx="24.7245" ry="34.1264" transform="rotate(20.0401 807.011 759.126)"
      fill="url(#paint10_radial_29_143)" />
    <ellipse cx="807.011" cy="759.126" rx="24.7245" ry="34.1264" transform="rotate(20.0401 807.011 759.126)"
      fill="url(#paint11_radial_29_143)" />
    <ellipse cx="666.342" cy="755.385" rx="24.7245" ry="34.1264" fill="url(#paint12_radial_29_143)" />
    <ellipse cx="666.342" cy="755.385" rx="24.7245" ry="34.1264" fill="url(#paint13_radial_29_143)" />
    <path d="M860.434 528.478L765.286 553.196L861.934 443.013L860.434 528.478Z" fill="url(#paint14_linear_29_143)" />
    <path d="M737.081 561.599L889.08 664.599L877.786 680.5L756.786 732L611.286 664.599L605.08 647.599L737.081 561.599Z"
      fill="url(#paint15_linear_29_143)" />
    <path fill-rule="evenodd" clip-rule="evenodd"
      d="M760.58 727.5L752.286 724L605.08 647.599L612.024 809.787L760.58 902.599L769.786 885L760.58 727.5ZM681.287 794.035C695.787 801.999 708.287 792.891 708.287 774.657C708.287 756.424 698.287 736 681.287 728.006C664.287 720.012 651.287 731.345 651.287 749.579C651.287 767.812 666.787 786.071 681.287 794.035Z"
      fill="url(#paint16_linear_29_143)" />
    <path fill-rule="evenodd" clip-rule="evenodd"
      d="M889.08 664.599L752.286 724L760.58 902.599L889.08 809.787L889.08 664.599ZM819.287 800.084C804.787 808.101 792.287 798.932 792.287 780.579C792.287 762.225 802.287 741.666 819.287 733.62C836.287 725.573 849.287 736.981 849.287 755.335C849.287 773.688 833.787 792.068 819.287 800.084Z"
      fill="url(#paint17_linear_29_143)" />
    <path
      d="M676.714 802.362C686.419 807.692 697.227 808.045 705.782 801.876C713.962 795.976 717.787 785.74 717.787 774.657C717.787 753.71 706.455 729.342 685.33 719.409C674.244 714.196 662.843 714.752 654.139 721.412C645.804 727.791 641.787 738.369 641.787 749.579C641.787 761.323 646.724 772.366 653.16 781.237C659.625 790.148 668.169 797.668 676.714 802.362Z"
      stroke="url(#paint18_linear_29_143)" stroke-width="19" />
    <path
      d="M823.884 808.398C814.168 813.77 803.334 814.127 794.769 807.908C786.597 801.976 782.787 791.698 782.787 780.579C782.787 759.544 794.092 735.034 815.223 725.033C826.323 719.779 837.748 720.34 846.459 727.051C854.785 733.464 858.787 744.087 858.787 755.335C858.787 767.121 853.864 778.216 847.431 787.141C840.972 796.103 832.431 803.673 823.884 808.398Z"
      stroke="url(#paint19_linear_29_143)" stroke-width="19" />
    <rect x="282" y="689" width="221" height="115" fill="white" />
    <ellipse cx="328.011" cy="727.126" rx="24.7245" ry="34.1264" fill="url(#paint20_radial_29_143)" />
    <ellipse cx="328.011" cy="727.126" rx="24.7245" ry="34.1264" fill="url(#paint21_radial_29_143)" />
    <ellipse cx="467.011" cy="745.126" rx="24.7245" ry="34.1264" fill="url(#paint22_radial_29_143)" />
    <ellipse cx="467.011" cy="745.126" rx="24.7245" ry="34.1264" fill="url(#paint23_radial_29_143)" />
    <path d="M266.801 504.827L360.104 535.788L219.094 575.753L266.801 504.827Z" fill="url(#paint24_linear_29_143)" />
    <path d="M379.08 547.599L531.08 650.599L521.286 667.5L394.786 720L254.786 650.599L247.08 633.6L379.08 547.599Z"
      fill="url(#paint25_linear_29_143)" />
    <path fill-rule="evenodd" clip-rule="evenodd"
      d="M402.579 713.5L394.286 710L247.079 633.6L254.023 795.788L402.579 888.599L409.285 874L402.579 713.5ZM335.986 761.605C344.383 768.406 350.285 773.187 350.285 760.658C350.285 742.424 340.285 722 323.285 714.006C306.285 706.012 293.285 717.346 293.285 735.579C293.285 747.004 299.37 747.628 307.482 748.46C312.316 748.956 317.871 749.526 323.285 752.5C327.822 754.992 332.163 758.508 335.986 761.605Z"
      fill="url(#paint26_linear_29_143)" />
    <path fill-rule="evenodd" clip-rule="evenodd"
      d="M531.08 650.599L394.286 710L402.58 888.599L531.08 795.788L531.08 650.599ZM461.286 786.085C446.786 794.101 434.286 784.933 434.286 766.579C434.286 748.225 444.286 727.666 461.286 719.62C478.286 711.573 491.286 722.981 491.286 741.335C491.286 759.689 475.786 778.068 461.286 786.085Z"
      fill="url(#paint27_linear_29_143)" />
    <path
      d="M318.713 760.827C321.583 762.403 324.553 764.616 327.696 767.124C328.342 767.639 329.023 768.191 329.725 768.76C332.09 770.677 334.686 772.781 336.919 774.284C338.402 775.282 340.361 776.467 342.56 777.201C344.729 777.925 348.509 778.651 352.417 776.661C356.35 774.658 358.062 771.108 358.815 768.615C359.574 766.101 359.786 763.332 359.786 760.658C359.786 739.711 348.454 715.343 327.329 705.409C316.243 700.197 304.842 700.752 296.138 707.413C287.803 713.791 283.786 724.369 283.786 735.579C283.786 741.307 284.983 746.939 288.955 751.24C292.834 755.44 297.857 756.685 301.275 757.259C303.016 757.552 304.826 757.737 306.36 757.895L306.452 757.904C308.105 758.074 309.568 758.225 311.042 758.451C313.93 758.893 316.421 759.568 318.713 760.827Z"
      stroke="url(#paint28_linear_29_143)" stroke-width="19" />
    <path
      d="M465.883 794.398C456.167 799.77 445.333 800.127 436.768 793.908C428.596 787.976 424.786 777.698 424.786 766.579C424.786 745.544 436.091 721.034 457.222 711.033C468.322 705.779 479.747 706.34 488.458 713.051C496.784 719.464 500.786 730.087 500.786 741.335C500.786 753.121 495.863 764.216 489.43 773.141C482.971 782.103 474.43 789.673 465.883 794.398Z"
      stroke="url(#paint29_linear_29_143)" stroke-width="19" />
  </g>
  <defs>
    <filter id="filter0_d_29_143" x="187.094" y="75.3204" width="733.987" height="869.278" filterUnits="userSpaceOnUse"
      color-interpolation-filters="sRGB">
      <feFlood flood-opacity="0" result="BackgroundImageFix" />
      <feColorMatrix in="SourceAlpha" type="matrix" values="0 0 0 0 0 0 0 0 0 0 0 0 0 0 0 0 0 0 127 0"
        result="hardAlpha" />
      <feOffset dy="10" />
      <feGaussianBlur stdDeviation="16" />
      <feComposite in2="hardAlpha" operator="out" />
      <feColorMatrix type="matrix" values="0 0 0 0 0 0 0 0 0 0 0 0 0 0 0 0 0 0 0.16 0" />
      <feBlend mode="normal" in2="BackgroundImageFix" result="effect1_dropShadow_29_143" />
      <feBlend mode="normal" in="SourceGraphic" in2="effect1_dropShadow_29_143" result="shape" />
    </filter>
    <radialGradient id="paint0_radial_29_143" cx="0" cy="0" r="1" gradientUnits="userSpaceOnUse"
      gradientTransform="translate(468.028 437.229) rotate(77.1559) scale(44.2109 36.9061)">
      <stop stop-color="#666666" />
      <stop offset="1" />
    </radialGradient>
    <radialGradient id="paint1_radial_29_143" cx="0" cy="0" r="1" gradientUnits="userSpaceOnUse"
      gradientTransform="translate(472.456 460.76) rotate(97.2994) scale(60.1309 50.6027)">
      <stop stop-opacity="0" />
      <stop offset="0.44" stop-opacity="0.117521" />
      <stop offset="0.605" stop-opacity="0.79" />
      <stop offset="1" />
    </radialGradient>
    <radialGradient id="paint2_radial_29_143" cx="0" cy="0" r="1" gradientUnits="userSpaceOnUse"
      gradientTransform="translate(611.028 445.229) rotate(77.1559) scale(44.2109 36.9061)">
      <stop stop-color="#666666" />
      <stop offset="1" />
    </radialGradient>
    <radialGradient id="paint3_radial_29_143" cx="0" cy="0" r="1" gradientUnits="userSpaceOnUse"
      gradientTransform="translate(615.456 468.76) rotate(97.2994) scale(60.1309 50.6027)">
      <stop stop-opacity="0" />
      <stop offset="0.44" stop-opacity="0.117521" />
      <stop offset="0.605" stop-opacity="0.79" />
      <stop offset="1" />
    </radialGradient>
    <linearGradient id="paint4_linear_29_143" x1="520.77" y1="138.043" x2="636.994" y2="419.566"
      gradientUnits="userSpaceOnUse">
      <stop stop-color="#F0EB79" />
      <stop offset="1" stop-color="#1396A8" />
    </linearGradient>
    <linearGradient id="paint5_linear_29_143" x1="532.772" y1="246.628" x2="502.755" y2="584.871"
      gradientUnits="userSpaceOnUse">
      <stop stop-color="#F0EB79" />
      <stop offset="1" stop-color="#1396A8" />
    </linearGradient>
    <linearGradient id="paint6_linear_29_143" x1="369.286" y1="221.999" x2="512.532" y2="598.205"
      gradientUnits="userSpaceOnUse">
      <stop stop-color="#F0EB79" />
      <stop offset="1" stop-color="#1396A8" />
    </linearGradient>
    <linearGradient id="paint7_linear_29_143" x1="431.422" y1="200.178" x2="446.812" y2="602.439"
      gradientUnits="userSpaceOnUse">
      <stop stop-color="#F0EB79" />
      <stop offset="1" stop-color="#1396A8" />
    </linearGradient>
    <linearGradient id="paint8_linear_29_143" x1="660.286" y1="498" x2="617.928" y2="414.15"
      gradientUnits="userSpaceOnUse">
      <stop stop-color="#F0EB79" />
      <stop offset="1" stop-color="#1396A8" />
    </linearGradient>
    <linearGradient id="paint9_linear_29_143" x1="521.286" y1="504.5" x2="491.027" y2="395.006"
      gradientUnits="userSpaceOnUse">
      <stop stop-color="#F0EB79" />
      <stop offset="1" stop-color="#1396A8" />
    </linearGradient>
    <radialGradient id="paint10_radial_29_143" cx="0" cy="0" r="1" gradientUnits="userSpaceOnUse"
      gradientTransform="translate(801.199 739.391) rotate(78.9366) scale(51.6849 37.4903)">
      <stop stop-color="#666666" />
      <stop offset="1" />
    </radialGradient>
    <radialGradient id="paint11_radial_29_143" cx="0" cy="0" r="1" gradientUnits="userSpaceOnUse"
      gradientTransform="translate(805.668 767.082) rotate(96.2687) scale(70.609 51.1759)">
      <stop stop-opacity="0" />
      <stop offset="0.44" stop-opacity="0.117521" />
      <stop offset="0.605" stop-opacity="0.79" />
      <stop offset="1" />
    </radialGradient>
    <radialGradient id="paint12_radial_29_143" cx="0" cy="0" r="1" gradientUnits="userSpaceOnUse"
      gradientTransform="translate(660.53 735.649) rotate(78.9366) scale(51.6849 37.4903)">
      <stop stop-color="#666666" />
      <stop offset="1" />
    </radialGradient>
    <radialGradient id="paint13_radial_29_143" cx="0" cy="0" r="1" gradientUnits="userSpaceOnUse"
      gradientTransform="translate(664.999 763.34) rotate(96.2687) scale(70.609 51.1759)">
      <stop stop-opacity="0" />
      <stop offset="0.44" stop-opacity="0.117521" />
      <stop offset="0.605" stop-opacity="0.79" />
      <stop offset="1" />
    </radialGradient>
    <linearGradient id="paint14_linear_29_143" x1="846.903" y1="487.603" x2="552.081" y2="596.629"
      gradientUnits="userSpaceOnUse">
      <stop stop-color="#8DEAFF" />
      <stop offset="1" stop-color="#3A88FD" />
    </linearGradient>
    <linearGradient id="paint15_linear_29_143" x1="727.772" y1="554.628" x2="697.755" y2="892.87"
      gradientUnits="userSpaceOnUse">
      <stop stop-color="#8DEAFF" />
      <stop offset="1" stop-color="#3A88FD" />
    </linearGradient>
    <linearGradient id="paint16_linear_29_143" x1="564.286" y1="530" x2="707.532" y2="906.206"
      gradientUnits="userSpaceOnUse">
      <stop stop-color="#8DEAFF" />
      <stop offset="1" stop-color="#3A88FD" />
    </linearGradient>
    <linearGradient id="paint17_linear_29_143" x1="626.422" y1="508.178" x2="641.812" y2="910.439"
      gradientUnits="userSpaceOnUse">
      <stop stop-color="#8DEAFF" />
      <stop offset="1" stop-color="#3A88FD" />
    </linearGradient>
    <linearGradient id="paint18_linear_29_143" x1="716.287" y1="812.5" x2="686.028" y2="703.006"
      gradientUnits="userSpaceOnUse">
      <stop stop-color="#8DEAFF" />
      <stop offset="1" stop-color="#3A88FD" />
    </linearGradient>
    <linearGradient id="paint19_linear_29_143" x1="855.287" y1="806" x2="812.929" y2="722.15"
      gradientUnits="userSpaceOnUse">
      <stop stop-color="#8DEAFF" />
      <stop offset="1" stop-color="#3A88FD" />
    </linearGradient>
    <radialGradient id="paint20_radial_29_143" cx="0" cy="0" r="1" gradientUnits="userSpaceOnUse"
      gradientTransform="translate(322.199 707.39) rotate(78.9366) scale(51.6849 37.4903)">
      <stop stop-color="#666666" />
      <stop offset="1" />
    </radialGradient>
    <radialGradient id="paint21_radial_29_143" cx="0" cy="0" r="1" gradientUnits="userSpaceOnUse"
      gradientTransform="translate(326.668 735.082) rotate(96.2687) scale(70.609 51.1759)">
      <stop stop-opacity="0" />
      <stop offset="0.44" stop-opacity="0.117521" />
      <stop offset="0.605" stop-opacity="0.79" />
      <stop offset="1" />
    </radialGradient>
    <radialGradient id="paint22_radial_29_143" cx="0" cy="0" r="1" gradientUnits="userSpaceOnUse"
      gradientTransform="translate(461.199 725.39) rotate(78.9366) scale(51.6849 37.4903)">
      <stop stop-color="#666666" />
      <stop offset="1" />
    </radialGradient>
    <radialGradient id="paint23_radial_29_143" cx="0" cy="0" r="1" gradientUnits="userSpaceOnUse"
      gradientTransform="translate(465.668 753.082) rotate(96.2687) scale(70.609 51.1759)">
      <stop stop-opacity="0" />
      <stop offset="0.44" stop-opacity="0.117521" />
      <stop offset="0.605" stop-opacity="0.79" />
      <stop offset="1" />
    </radialGradient>
    <linearGradient id="paint24_linear_29_143" x1="255.945" y1="546.492" x2="562.679" y2="615.202"
      gradientUnits="userSpaceOnUse">
      <stop stop-color="#FABB40" />
      <stop offset="1" stop-color="#D00466" />
    </linearGradient>
    <linearGradient id="paint25_linear_29_143" x1="369.772" y1="540.628" x2="339.755" y2="878.871"
      gradientUnits="userSpaceOnUse">
      <stop stop-color="#FABB40" />
      <stop offset="1" stop-color="#D00466" />
    </linearGradient>
    <linearGradient id="paint26_linear_29_143" x1="206.286" y1="516" x2="349.532" y2="892.206"
      gradientUnits="userSpaceOnUse">
      <stop stop-color="#FABB40" />
      <stop offset="1" stop-color="#D00466" />
    </linearGradient>
    <linearGradient id="paint27_linear_29_143" x1="268.422" y1="494.178" x2="283.812" y2="896.439"
      gradientUnits="userSpaceOnUse">
      <stop stop-color="#FABB40" />
      <stop offset="1" stop-color="#D00466" />
    </linearGradient>
    <linearGradient id="paint28_linear_29_143" x1="358.286" y1="798.5" x2="328.027" y2="689.006"
      gradientUnits="userSpaceOnUse">
      <stop stop-color="#FABB40" />
      <stop offset="1" stop-color="#D00466" />
    </linearGradient>
    <linearGradient id="paint29_linear_29_143" x1="497.286" y1="792" x2="454.928" y2="708.15"
      gradientUnits="userSpaceOnUse">
      <stop stop-color="#FABB40" />
      <stop offset="1" stop-color="#D00466" />
    </linearGradient>
  </defs>
</svg>