<svg width="32" height="32" viewBox="0 0 32 32" fill="none" xmlns="http://www.w3.org/2000/svg">
<g id="atom">
<path id="shape (Stroke)" fill-rule="evenodd" clip-rule="evenodd" d="M10.3 7.49545C9.00771 7.34637 8.32336 7.64945 7.98622 7.98659C7.64908 8.32373 7.346 9.00808 7.49508 10.3004C7.55624 10.8305 7.6912 11.4194 7.90356 12.0529C8.50601 11.3107 9.1634 10.5805 9.87172 9.87222C10.5801 9.16386 11.3103 8.50643 12.0525 7.90394C11.419 7.69158 10.8302 7.55662 10.3 7.49545ZM16.0001 5.2708C14.231 4.33663 12.4379 3.71556 10.7584 3.52181C8.76401 3.29172 6.66617 3.64978 5.15779 5.15816C3.64942 6.66654 3.29135 8.76436 3.52143 10.7588C3.71518 12.4382 4.33624 14.2313 5.2704 16.0004C4.33619 17.7695 3.7151 19.5626 3.52133 21.2421C3.29122 23.2365 3.64928 25.3344 5.15768 26.8428C6.66607 28.3512 8.76393 28.7092 10.7584 28.4791C12.4379 28.2854 14.231 27.6643 16.0001 26.7301C17.7691 27.6643 19.5622 28.2854 21.2417 28.4791C23.2361 28.7092 25.334 28.3512 26.8424 26.8428C28.3508 25.3344 28.7088 23.2365 28.4787 21.2421C28.285 19.5626 27.6639 17.7695 26.7297 16.0004C27.6638 14.2313 28.2849 12.4382 28.4786 10.7588C28.7087 8.76437 28.3507 6.66655 26.8423 5.15818C25.3339 3.6498 23.2361 3.29174 21.2417 3.52182C19.5622 3.71557 17.7691 4.33663 16.0001 5.2708ZM16 9.94217C14.8917 10.7027 13.7739 11.6269 12.7001 12.7007C11.6264 13.7744 10.7023 14.8921 9.94178 16.0004C10.7024 17.1087 11.6265 18.2265 12.7003 19.3003C13.774 20.374 14.8918 21.2981 16 22.0587C17.1083 21.2981 18.2261 20.374 19.2998 19.3003C20.3736 18.2265 21.2977 17.1087 22.0583 16.0004C21.2978 14.8921 20.3736 13.7744 19.2999 12.7006C18.2262 11.6269 17.1083 10.7027 16 9.94217ZM24.0965 12.0529C23.4941 11.3107 22.8367 10.5805 22.1284 9.87221C21.42 9.16385 20.6898 8.50643 19.9476 7.90394C20.5811 7.69159 21.1699 7.55663 21.7001 7.49547C22.9924 7.34638 23.6767 7.64947 24.0139 7.98661C24.351 8.32374 24.6541 9.00809 24.505 10.3004C24.4438 10.8305 24.3089 11.4194 24.0965 12.0529ZM24.0966 19.9479C23.4941 20.6901 22.8366 21.4204 22.1282 22.1287C21.4199 22.8371 20.6897 23.4945 19.9475 24.097C20.5811 24.3093 21.17 24.4443 21.7001 24.5055C22.9925 24.6546 23.6768 24.3515 24.014 24.0143C24.3511 23.6772 24.6542 22.9928 24.5051 21.7005C24.4439 21.1703 24.309 20.5814 24.0966 19.9479ZM12.0526 24.097C11.3104 23.4945 10.5802 22.8371 9.87184 22.1287C9.16346 21.4203 8.50601 20.6901 7.90351 19.9479C7.69113 20.5814 7.55614 21.1703 7.49497 21.7005C7.34587 22.9928 7.64896 23.6772 7.9861 24.0144C8.32324 24.3515 9.00761 24.6546 10.2999 24.5055C10.8301 24.4443 11.419 24.3093 12.0526 24.097ZM16.0001 13.9871C17.1047 13.9871 18.0001 14.8826 18.0001 15.9871V16.0005C18.0001 17.105 17.1047 18.0005 16.0001 18.0005C14.8955 18.0005 14.0001 17.105 14.0001 16.0005V15.9871C14.0001 14.8826 14.8955 13.9871 16.0001 13.9871Z" fill="url(#paint0_linear_228_451)"/>
</g>
<defs>
<linearGradient id="paint0_linear_228_451" x1="3.45752" y1="3.45801" x2="28.6366" y2="28.4481" gradientUnits="userSpaceOnUse">
<stop stop-color="#C464FF"/>
<stop offset="1" stop-color="#1D72F0"/>
</linearGradient>
</defs>
</svg>
