<svg width="64" height="64" viewBox="0 0 64 64" fill="none" xmlns="http://www.w3.org/2000/svg">
<g id="code">
<path id="Vector" d="M29.6 52.9383L24.7 51.8383C23.6 51.6383 23 50.5383 23.2 49.5383L32.9 13.4383C33.2 12.4383 34.3 11.8383 35.3 12.0383L40.2 13.1383C41.3 13.3383 41.9 14.4383 41.7 15.4383L32 51.5383C31.7 52.5383 30.6 53.1383 29.6 52.9383ZM48.6 44.9383L45.1 41.4383C44.3 40.6383 44.3 39.4383 45.1 38.6383L49.8 33.9383C50.6 33.1383 50.6 31.9383 49.8 31.1383L45.1 26.4383C44.3 25.6383 44.3 24.4383 45.1 23.6383L48.6 20.1383C49.4 19.3383 50.6 19.3383 51.4 20.1383L60.7 29.4383C61.5 30.2383 62 31.4383 62 32.6383C62 33.8383 61.5 34.9383 60.7 35.8383L51.4 45.1383C50.6 45.9383 49.4 45.9383 48.6 45.1383V44.9383ZM16.4 44.9383C15.6 45.7383 14.4 45.7383 13.6 44.9383L4.3 35.6383C3.5 34.8383 3 33.6383 3 32.4383C3 31.2383 3.5 30.1383 4.3 29.2383L13.6 19.9383C14.4 19.1383 15.6 19.1383 16.4 19.9383L19.9 23.4383C20.7 24.2383 20.7 25.4383 19.9 26.2383L15.2 30.9383C14.4 31.7383 14.4 32.9383 15.2 33.7383L19.9 38.4383C20.7 39.2383 20.7 40.4383 19.9 41.2383L16.4 44.7383V44.9383Z" fill="url(#paint0_linear_46_1391)"/>
</g>
<defs>
<linearGradient id="paint0_linear_46_1391" x1="3" y1="32.4883" x2="62" y2="32.4883" gradientUnits="userSpaceOnUse">
<stop stop-color="#C464FF"/>
<stop offset="0.1" stop-color="#BD64FE"/>
<stop offset="0.3" stop-color="#A966FC"/>
<stop offset="0.5" stop-color="#8A68F9"/>
<stop offset="0.7" stop-color="#5E6CF5"/>
<stop offset="1" stop-color="#1D72F0"/>
</linearGradient>
</defs>
</svg>
