<svg width="64" height="64" viewBox="0 0 64 64" fill="none" xmlns="http://www.w3.org/2000/svg">
<g id="doublechevron-down">
<path id="Vector" d="M31.87 53.41C30.65 53.41 29.43 52.94 28.5 52.01L14.54 38.05C13.82 37.33 13.82 36.16 14.54 35.44L18.68 31.31C19.4 30.59 20.57 30.59 21.29 31.31L30.57 40.59C31.29 41.31 32.46 41.31 33.18 40.59L42.46 31.31C43.18 30.59 44.35 30.59 45.07 31.31L49.21 35.44C49.93 36.16 49.93 37.33 49.21 38.05L35.25 52.01C34.32 52.94 33.1 53.41 31.88 53.41H31.87ZM31.87 34.64C30.65 34.64 29.43 34.17 28.5 33.24L14.54 19.28C13.82 18.56 13.82 17.39 14.54 16.67L18.68 12.54C19.4 11.82 20.57 11.82 21.29 12.54L30.57 21.82C31.29 22.54 32.46 22.54 33.18 21.82L42.46 12.54C43.18 11.82 44.35 11.82 45.07 12.54L49.21 16.67C49.93 17.39 49.93 18.56 49.21 19.28L35.25 33.24C34.32 34.17 33.1 34.64 31.88 34.64H31.87Z" fill="url(#paint0_linear_46_1355)"/>
</g>
<defs>
<linearGradient id="paint0_linear_46_1355" x1="14" y1="32.7" x2="49.75" y2="32.7" gradientUnits="userSpaceOnUse">
<stop stop-color="#C464FF"/>
<stop offset="1" stop-color="#1D72F0"/>
</linearGradient>
</defs>
</svg>
