<svg width="896" height="348" viewBox="0 0 896 348" fill="none" xmlns="http://www.w3.org/2000/svg">
<g clip-path="url(#clip0_95_362)">
<path opacity="0.44" d="M228.239 309.561C148.157 313.519 96.9006 319.593 96.9006 326.404C96.9006 338.331 254.117 348 448.053 348C641.989 348 799.205 338.331 799.205 326.404C799.205 319.485 746.309 313.327 664.033 309.374C605.417 321.89 534.935 327.868 448.052 327.868C359.134 327.868 287.536 322.167 228.239 309.561Z" fill="#B1B1C9"/>
<path d="M896 169.529C809.872 279.394 695.454 327.868 448.052 327.868C200.651 327.868 87.3305 283.734 0 169.529H896Z" fill="white"/>
<path d="M568.592 169.529H620.221C611.839 152.89 607.04 134.49 606.24 115.512L605.247 92.3988L603.573 66.9328C603.207 61.1285 599.128 56.0562 593.376 54.6966L571.988 49.2583L600.174 85.9669L600.854 86.9605C601.847 88.9998 603.887 93.7584 599.494 100.556L565.869 152.9C563.516 156.665 563.516 161.424 565.869 165.136L568.592 169.529Z" fill="url(#paint0_linear_95_362)"/>
<path d="M635.352 169.529H701.087L704.448 163.672C707.167 159.28 707.167 154.155 704.448 149.763L672.862 97.7848C670.823 94.3859 667.11 92.3988 663.031 92.7125H624.648L626.319 128.691L626.007 129.003C626.771 143.513 630.108 156.521 635.352 169.529Z" fill="url(#paint1_linear_95_362)"/>
<path d="M454.677 169.529H500.647L479.219 113.473C477.545 109.394 473.78 106.675 469.387 106.361L407.21 101.602C399.052 100.923 396.333 96.5302 395.653 94.4908V93.1313C395.34 93.1313 383.103 48.2651 383.103 48.2651L374.631 68.6588C372.278 74.0971 373.951 80.2152 378.344 83.9279L397.693 100.557L415.368 115.146C432.984 129.64 446.506 148.412 454.677 169.529Z" fill="url(#paint2_linear_95_362)"/>
<path d="M413.203 139.514L413.329 139.618L413.433 139.514H413.203Z" fill="url(#paint3_linear_95_362)"/>
<path d="M438.904 169.529C431.912 158.18 423.805 148.261 413.067 139.514H413.203L385.456 116.506L362.029 146.73C359.675 149.763 358.996 154.208 360.355 157.92L364.975 169.529H438.904Z" fill="url(#paint4_linear_95_362)"/>
<path d="M851.603 115.826L820.697 169.529H820.749L762.988 169.529L776.247 154.574C797.688 130.415 809.925 99.5107 810.238 67.2469V44.134L811.232 18.6681C811.546 12.916 815.311 7.79144 821.063 6.11811L842.138 0L814.945 37.7022L814.265 38.6957C813.219 40.7351 811.18 45.4936 815.938 52.2915L851.289 103.589C853.642 107.354 853.642 112.113 851.603 115.826Z" fill="url(#paint5_linear_95_362)"/>
<path d="M758.109 169.529L766.939 153.789C780.17 128.323 789.007 106.884 789.373 81.1041L789.687 81.4179L789.739 81.5225V45.4936C790.053 45.4936 751.67 46.1734 751.67 46.1734C747.591 46.1734 743.878 48.5265 742.152 51.9255L712.24 104.583C709.887 108.976 709.887 114.414 712.24 118.493L743.801 169.529H758.109Z" fill="url(#paint6_linear_95_362)"/>
<path d="M236.994 51.2979L202.324 102.282L202.376 102.334L202.062 102.648C200.023 105.733 199.343 109.446 200.702 112.845L220.603 169.529H220.882L234.641 136.272C246.826 106.361 269.626 82.2545 298.492 67.9789L319.2 57.7821L341.948 45.9119C347.386 43.1927 350.053 37.3884 349.06 31.6363L345.347 9.88306L323.279 50.6704L322.599 51.664C321.239 53.7033 317.84 57.416 309.683 56.0565L248.185 46.5394C243.792 45.8596 239.348 47.5852 236.994 51.2979Z" fill="url(#paint7_linear_95_362)"/>
<path d="M309.277 169.529H221.265L239.4 143.697C256.396 120.95 272.032 103.589 295.093 92.0328V91.719L327.358 75.7701L343.308 110.753C344.981 114.466 344.668 118.545 342.314 121.944L309.277 169.529Z" fill="url(#paint8_linear_95_362)"/>
<path d="M162.581 83.9277L184.648 141.658C186.008 145.056 185.694 148.821 183.655 151.854L172.342 169.529H145.706L145.271 166.81C140.199 134.86 123.517 105.995 98.7299 85.6011L81.0547 71.0117L61.706 54.383C57.3133 50.6703 55.6399 44.5522 57.9931 39.1139L66.4647 18.7202C66.4647 18.7202 78.7014 63.5863 79.0152 63.5863V64.9459C79.695 66.9853 82.4143 71.3778 90.5721 72.0575L152.749 76.8161C157.142 77.1298 160.907 79.849 162.581 83.9277Z" fill="url(#paint9_linear_95_362)"/>
<path d="M137.425 169.529C126.396 144.956 115.609 125.592 96.429 109.969H96.5644L96.6905 110.073L96.7951 109.969H96.5644L68.8179 86.9606L45.3904 117.185C43.0372 120.218 42.3573 124.663 43.717 128.376L60.0952 169.529H137.425Z" fill="url(#paint10_linear_95_362)"/>
</g>
<defs>
<linearGradient id="paint0_linear_95_362" x1="545.131" y1="30.6786" x2="674.976" y2="307.347" gradientUnits="userSpaceOnUse">
<stop offset="0.3" stop-color="#D48DFF"/>
<stop offset="0.8" stop-color="#337AE4"/>
</linearGradient>
<linearGradient id="paint1_linear_95_362" x1="545.131" y1="30.6786" x2="674.976" y2="307.347" gradientUnits="userSpaceOnUse">
<stop offset="0.3" stop-color="#D48DFF"/>
<stop offset="0.8" stop-color="#337AE4"/>
</linearGradient>
<linearGradient id="paint2_linear_95_362" x1="383.73" y1="13.9619" x2="525.751" y2="284.366" gradientUnits="userSpaceOnUse">
<stop offset="0.3" stop-color="#D48DFF"/>
<stop offset="0.8" stop-color="#337AE4"/>
</linearGradient>
<linearGradient id="paint3_linear_95_362" x1="383.73" y1="13.9619" x2="525.751" y2="284.366" gradientUnits="userSpaceOnUse">
<stop offset="0.3" stop-color="#D48DFF"/>
<stop offset="0.8" stop-color="#337AE4"/>
</linearGradient>
<linearGradient id="paint4_linear_95_362" x1="383.73" y1="13.9619" x2="525.751" y2="284.366" gradientUnits="userSpaceOnUse">
<stop offset="0.3" stop-color="#D48DFF"/>
<stop offset="0.8" stop-color="#337AE4"/>
</linearGradient>
<linearGradient id="paint5_linear_95_362" x1="868.187" y1="-19.4671" x2="747.619" y2="261.395" gradientUnits="userSpaceOnUse">
<stop offset="0.3" stop-color="#D48DFF"/>
<stop offset="0.8" stop-color="#337AE4"/>
</linearGradient>
<linearGradient id="paint6_linear_95_362" x1="868.187" y1="-19.4671" x2="747.619" y2="261.395" gradientUnits="userSpaceOnUse">
<stop offset="0.3" stop-color="#D48DFF"/>
<stop offset="0.8" stop-color="#337AE4"/>
</linearGradient>
<linearGradient id="paint7_linear_95_362" x1="353.876" y1="-24.8785" x2="153.542" y2="205.933" gradientUnits="userSpaceOnUse">
<stop offset="0.3" stop-color="#D48DFF"/>
<stop offset="0.8" stop-color="#337AE4"/>
</linearGradient>
<linearGradient id="paint8_linear_95_362" x1="353.876" y1="-24.8785" x2="153.542" y2="205.933" gradientUnits="userSpaceOnUse">
<stop offset="0.3" stop-color="#D48DFF"/>
<stop offset="0.8" stop-color="#337AE4"/>
</linearGradient>
<linearGradient id="paint9_linear_95_362" x1="66.8831" y1="-16.0013" x2="208.851" y2="254.403" gradientUnits="userSpaceOnUse">
<stop offset="0.3" stop-color="#D48DFF"/>
<stop offset="0.8" stop-color="#337AE4"/>
</linearGradient>
<linearGradient id="paint10_linear_95_362" x1="66.8831" y1="-16.0013" x2="208.851" y2="254.403" gradientUnits="userSpaceOnUse">
<stop offset="0.3" stop-color="#D48DFF"/>
<stop offset="0.8" stop-color="#337AE4"/>
</linearGradient>
<clipPath id="clip0_95_362">
<rect width="896" height="348" fill="white"/>
</clipPath>
</defs>
</svg>
