<svg width="64" height="64" viewBox="0 0 64 64" fill="none" xmlns="http://www.w3.org/2000/svg">
<g id="key-alt">
<path id="Vector" fill-rule="evenodd" clip-rule="evenodd" d="M35.9904 40.3341C35.2964 40.3341 34.4868 40.3341 33.9084 40.9231L31.3639 43.5144L24.5398 50.4639L19.6819 55.4111C19.3349 55.7644 18.7566 56 18.1783 56H10.0819C8.9253 56 8 55.0577 8 53.8798V45.6346C8 45.0457 8.23133 44.5745 8.57831 44.1034L22.9205 29.4976C23.4988 28.9087 23.6145 28.2019 23.4988 27.3774C23.2675 26.1995 23.1518 25.0216 23.1518 23.726C23.1518 14.5385 30.5542 7 39.5759 7C48.5976 7 56 14.5385 56 23.726C56 32.9135 48.5976 40.4519 39.5759 40.4519L35.9904 40.3341ZM39.5759 16.6587C35.6434 16.6587 32.4048 19.9567 32.4048 23.9615C32.4048 27.9663 35.6434 31.2644 39.5759 31.2644C43.5084 31.2644 46.747 27.9663 46.747 23.9615C46.747 19.9567 43.5084 16.6587 39.5759 16.6587Z" fill="url(#paint0_linear_46_1377)"/>
</g>
<defs>
<linearGradient id="paint0_linear_46_1377" x1="-0.906024" y1="30.1572" x2="67.4685" y2="33.5761" gradientUnits="userSpaceOnUse">
<stop offset="0.15" stop-color="#C464FF"/>
<stop offset="0.21" stop-color="#B465FD"/>
<stop offset="0.54" stop-color="#636CF6"/>
<stop offset="0.77" stop-color="#3070F1"/>
<stop offset="0.88" stop-color="#1D72F0"/>
</linearGradient>
</defs>
</svg>
