<svg width="64" height="64" viewBox="0 0 64 64" fill="none" xmlns="http://www.w3.org/2000/svg">
<g id="task-check">
<g id="Vector">
<path fill-rule="evenodd" clip-rule="evenodd" d="M42.2087 53.647V23.144C42.2087 22.406 41.5937 21.791 40.8558 21.791H10.3529C9.61498 21.791 9 22.406 9 23.144V53.647C9 54.385 9.61498 55 10.3529 55H40.8558C41.5937 55 42.2087 54.385 42.2087 53.647ZM15.3965 39.9973L21.4233 46.0241C21.9153 46.5161 22.8992 46.5161 23.3912 46.0241L35.8137 33.6015C36.3057 33.1095 36.3057 32.1256 35.8137 31.6336L34.8297 30.6496C34.3378 30.1576 33.3538 30.1576 32.8618 30.6496L23.3912 40.1203C22.8992 40.6123 21.9153 40.6123 21.4233 40.1203L18.3484 37.0454C17.8564 36.5534 16.8725 36.5534 16.3805 37.0454L15.3965 38.0294C14.9045 38.5214 14.9045 39.5053 15.3965 39.9973Z" fill="url(#paint0_linear_46_1362)"/>
<path d="M55 40.979C55 41.717 54.385 42.332 53.6471 42.332H47.8663C47.1283 42.332 46.5133 41.717 46.5133 40.979V18.8397C46.5133 18.1017 45.8984 17.4867 45.1604 17.4867H23.0213C22.2833 17.4867 21.6683 16.8718 21.6683 16.1338V10.353C21.6683 9.61498 22.2833 9 23.0213 9H52.1711C53.6471 9 54.877 10.23 54.877 11.7059H55V40.979Z" fill="url(#paint1_linear_46_1362)"/>
</g>
</g>
<defs>
<linearGradient id="paint0_linear_46_1362" x1="-9.02519" y1="8.45481" x2="79.0052" y2="58.9696" gradientUnits="userSpaceOnUse">
<stop offset="0.2" stop-color="#C464FF"/>
<stop offset="0.89" stop-color="#1D72F0"/>
</linearGradient>
<linearGradient id="paint1_linear_46_1362" x1="7.57286" y1="1.21434" x2="71.1247" y2="37.67" gradientUnits="userSpaceOnUse">
<stop offset="0.26" stop-color="#C464FF"/>
<stop offset="1" stop-color="#1D72F0"/>
</linearGradient>
</defs>
</svg>
