<svg width="2278" height="1908" viewBox="0 0 2278 1908" fill="none" xmlns="http://www.w3.org/2000/svg">
<line x1="377" y1="528.5" x2="418" y2="528.5" stroke="#9A9AC0" stroke-width="11"/>
<line x1="466.387" y1="372.683" x2="497.387" y2="413.683" stroke="#9A9AC0" stroke-width="11"/>
<line x1="1511" y1="530.5" x2="1552" y2="530.5" stroke="#9A9AC0" stroke-width="11"/>
<line x1="1593.3" y1="712.135" x2="1629.3" y2="653.135" stroke="#9A9AC0" stroke-width="11"/>
<line x1="1299" y1="1425.5" x2="1342" y2="1425.5" stroke="#9A9AC0" stroke-width="11"/>
<line x1="1063.39" y1="1269.68" x2="1094.39" y2="1310.68" stroke="#9A9AC0" stroke-width="11"/>
<line x1="1228.87" y1="1548.45" x2="1251.87" y2="1592.45" stroke="#9A9AC0" stroke-width="11"/>
<path d="M535.5 336L399.5 408.5L252 336V164.5L388 97L535.5 174V336Z" fill="#88AAF3"/>
<path d="M392.402 270C392.231 269.275 392.103 268.443 392.018 267.504C391.975 266.565 391.954 265.371 391.954 263.92H391.634V248.304C391.634 245.829 391.058 244.016 389.906 242.864C388.797 241.669 386.983 241.072 384.466 241.072C381.991 241.072 380.007 241.584 378.514 242.608C377.063 243.589 376.253 244.997 376.082 246.832H371.154C371.367 243.675 372.69 241.2 375.122 239.408C377.554 237.616 380.733 236.72 384.658 236.72C388.711 236.72 391.719 237.68 393.682 239.6C395.645 241.52 396.626 244.4 396.626 248.24V263.92C396.626 264.859 396.69 265.84 396.818 266.864C396.946 267.845 397.117 268.891 397.33 270H392.402ZM381.202 270.64C377.831 270.64 375.143 269.829 373.138 268.208C371.175 266.544 370.194 264.283 370.194 261.424C370.194 258.565 371.175 256.347 373.138 254.768C375.101 253.189 377.959 252.08 381.714 251.44L393.106 249.52V253.744L382.482 255.408C380.093 255.792 378.279 256.432 377.042 257.328C375.805 258.224 375.186 259.525 375.186 261.232C375.186 262.896 375.741 264.155 376.85 265.008C378.002 265.861 379.687 266.288 381.906 266.288C384.765 266.288 387.09 265.648 388.882 264.368C390.717 263.045 391.634 261.339 391.634 259.248L392.466 263.792C391.783 265.968 390.439 267.653 388.434 268.848C386.471 270.043 384.061 270.64 381.202 270.64ZM406.495 270V237.36H411.615V270H406.495ZM406.111 229.936V223.92H411.999V229.936H406.111Z" fill="white"/>
<path d="M380.5 613L244.5 685.5L97 613V441.5L233 374L380.5 451V613Z" fill="#88AAF3"/>
<path d="M162.839 547V514.36H167.639V522.04H167.959V547H162.839ZM186.199 547V525.624C186.199 523.149 185.58 521.293 184.343 520.056C183.105 518.819 181.271 518.2 178.839 518.2C176.705 518.2 174.807 518.669 173.143 519.608C171.521 520.547 170.241 521.848 169.303 523.512C168.407 525.176 167.959 527.117 167.959 529.336L167.127 521.592C168.236 519.16 169.921 517.24 172.183 515.832C174.487 514.424 177.089 513.72 179.991 513.72C183.404 513.72 186.135 514.701 188.183 516.664C190.273 518.584 191.319 521.123 191.319 524.28V547H186.199ZM214.719 547.64C211.519 547.64 208.703 546.893 206.271 545.4C203.839 543.907 201.941 541.88 200.575 539.32C199.253 536.717 198.591 533.795 198.591 530.552C198.591 527.267 199.274 524.365 200.639 521.848C202.005 519.331 203.882 517.347 206.271 515.896C208.703 514.445 211.519 513.72 214.719 513.72C217.962 513.72 220.778 514.445 223.167 515.896C225.599 517.347 227.477 519.331 228.799 521.848C230.165 524.365 230.847 527.267 230.847 530.552C230.847 533.795 230.165 536.717 228.799 539.32C227.477 541.88 225.599 543.907 223.167 545.4C220.778 546.893 217.962 547.64 214.719 547.64ZM214.719 543.288C216.938 543.288 218.858 542.755 220.479 541.688C222.101 540.579 223.359 539.064 224.255 537.144C225.151 535.224 225.599 533.005 225.599 530.488C225.599 526.733 224.597 523.725 222.591 521.464C220.629 519.203 218.005 518.072 214.719 518.072C211.477 518.072 208.853 519.203 206.847 521.464C204.842 523.725 203.839 526.733 203.839 530.488C203.839 533.005 204.287 535.224 205.183 537.144C206.079 539.064 207.338 540.579 208.959 541.688C210.623 542.755 212.543 543.288 214.719 543.288ZM238.526 547V514.36H243.646V547H238.526ZM238.142 506.936V500.92H244.03V506.936H238.142ZM264.973 547.64C260.963 547.64 257.763 546.723 255.373 544.888C252.984 543.011 251.619 540.365 251.277 536.952H256.205C256.504 539.043 257.421 540.643 258.957 541.752C260.493 542.861 262.541 543.416 265.101 543.416C267.363 543.416 269.133 542.989 270.413 542.136C271.693 541.283 272.333 540.067 272.333 538.488C272.333 537.379 271.971 536.419 271.245 535.608C270.52 534.755 269.069 534.051 266.893 533.496L261.645 532.152C258.659 531.384 256.419 530.211 254.925 528.632C253.432 527.011 252.685 525.091 252.685 522.872C252.685 520.056 253.731 517.837 255.821 516.216C257.912 514.552 260.749 513.72 264.333 513.72C267.875 513.72 270.755 514.573 272.973 516.28C275.192 517.987 276.451 520.355 276.749 523.384H271.821C271.523 521.635 270.712 520.291 269.389 519.352C268.067 518.413 266.317 517.944 264.141 517.944C262.051 517.944 260.429 518.349 259.277 519.16C258.125 519.928 257.549 521.037 257.549 522.488C257.549 523.597 257.955 524.557 258.765 525.368C259.619 526.179 261.027 526.861 262.989 527.416L268.109 528.824C271.139 529.635 273.421 530.872 274.957 532.536C276.493 534.2 277.261 536.205 277.261 538.552C277.261 541.411 276.173 543.651 273.997 545.272C271.821 546.851 268.813 547.64 264.973 547.64ZM298.652 547.64C295.538 547.64 292.786 546.915 290.396 545.464C288.007 543.971 286.13 541.944 284.764 539.384C283.399 536.824 282.716 533.88 282.716 530.552C282.716 527.224 283.378 524.301 284.7 521.784C286.066 519.224 287.964 517.24 290.396 515.832C292.828 514.424 295.623 513.72 298.78 513.72C301.81 513.72 304.434 514.381 306.652 515.704C308.914 517.027 310.642 518.883 311.836 521.272C313.074 523.661 313.692 526.477 313.692 529.72C313.692 530.147 313.671 530.552 313.628 530.936C313.628 531.32 313.586 531.747 313.5 532.216H286.556V527.928H310.364L308.7 530.296C308.7 526.371 307.826 523.363 306.076 521.272C304.37 519.139 301.938 518.072 298.78 518.072C295.538 518.072 292.914 519.203 290.908 521.464C288.946 523.683 287.964 526.691 287.964 530.488C287.964 534.371 288.946 537.485 290.908 539.832C292.914 542.136 295.58 543.288 298.908 543.288C300.999 543.288 302.834 542.84 304.412 541.944C305.991 541.005 307.143 539.683 307.868 537.976H312.732C311.666 540.963 309.874 543.331 307.356 545.08C304.882 546.787 301.98 547.64 298.652 547.64Z" fill="white"/>
<path d="M535.5 898L399.5 970.5L252 898V726.5L388 659L535.5 736V898Z" fill="#4E4E70"/>
<path opacity="0.48" d="M292.344 831.576C289.656 831.576 287.245 831.128 285.112 830.232C282.979 829.293 281.293 828.013 280.056 826.392C278.819 824.728 278.136 822.829 278.008 820.696H284.024C284.195 822.445 285.005 823.875 286.456 824.984C287.949 826.093 289.891 826.648 292.28 826.648C294.499 826.648 296.248 826.157 297.528 825.176C298.808 824.195 299.448 822.957 299.448 821.464C299.448 819.928 298.765 818.797 297.4 818.072C296.035 817.304 293.923 816.557 291.064 815.832C288.461 815.149 286.328 814.467 284.664 813.784C283.043 813.059 281.635 812.013 280.44 810.648C279.288 809.24 278.712 807.405 278.712 805.144C278.712 803.352 279.245 801.709 280.312 800.216C281.379 798.723 282.893 797.549 284.856 796.696C286.819 795.8 289.059 795.352 291.576 795.352C295.459 795.352 298.595 796.333 300.984 798.296C303.373 800.259 304.653 802.947 304.824 806.36H299C298.872 804.525 298.125 803.053 296.76 801.944C295.437 800.835 293.645 800.28 291.384 800.28C289.293 800.28 287.629 800.728 286.392 801.624C285.155 802.52 284.536 803.693 284.536 805.144C284.536 806.296 284.899 807.256 285.624 808.024C286.392 808.749 287.331 809.347 288.44 809.816C289.592 810.243 291.171 810.733 293.176 811.288C295.693 811.971 297.741 812.653 299.32 813.336C300.899 813.976 302.243 814.957 303.352 816.28C304.504 817.603 305.101 819.331 305.144 821.464C305.144 823.384 304.611 825.112 303.544 826.648C302.477 828.184 300.963 829.4 299 830.296C297.08 831.149 294.861 831.576 292.344 831.576ZM330.774 795.288C333.419 795.288 335.808 795.864 337.942 797.016C340.075 798.125 341.739 799.811 342.934 802.072C344.171 804.333 344.79 807.085 344.79 810.328V831H339.03V811.16C339.03 807.661 338.155 804.995 336.406 803.16C334.656 801.283 332.267 800.344 329.238 800.344C326.166 800.344 323.712 801.304 321.878 803.224C320.086 805.144 319.19 807.939 319.19 811.608V831H313.366V783.64H319.19V800.92C320.342 799.128 321.92 797.741 323.926 796.76C325.974 795.779 328.256 795.288 330.774 795.288ZM352.127 813.336C352.127 809.752 352.852 806.616 354.303 803.928C355.754 801.197 357.738 799.085 360.255 797.592C362.815 796.099 365.652 795.352 368.767 795.352C371.839 795.352 374.506 796.013 376.767 797.336C379.028 798.659 380.714 800.323 381.823 802.328V795.928H387.711V831H381.823V824.472C380.671 826.52 378.943 828.227 376.639 829.592C374.378 830.915 371.732 831.576 368.703 831.576C365.588 831.576 362.772 830.808 360.255 829.272C357.738 827.736 355.754 825.581 354.303 822.808C352.852 820.035 352.127 816.877 352.127 813.336ZM381.823 813.4C381.823 810.755 381.29 808.451 380.223 806.488C379.156 804.525 377.706 803.032 375.871 802.008C374.079 800.941 372.095 800.408 369.919 800.408C367.743 800.408 365.759 800.92 363.967 801.944C362.175 802.968 360.746 804.461 359.679 806.424C358.612 808.387 358.079 810.691 358.079 813.336C358.079 816.024 358.612 818.371 359.679 820.376C360.746 822.339 362.175 823.853 363.967 824.92C365.759 825.944 367.743 826.456 369.919 826.456C372.095 826.456 374.079 825.944 375.871 824.92C377.706 823.853 379.156 822.339 380.223 820.376C381.29 818.371 381.823 816.045 381.823 813.4ZM403.377 802.392C404.529 800.387 406.236 798.723 408.497 797.4C410.801 796.035 413.468 795.352 416.497 795.352C419.612 795.352 422.428 796.099 424.945 797.592C427.505 799.085 429.51 801.197 430.961 803.928C432.412 806.616 433.137 809.752 433.137 813.336C433.137 816.877 432.412 820.035 430.961 822.808C429.51 825.581 427.505 827.736 424.945 829.272C422.428 830.808 419.612 831.576 416.497 831.576C413.51 831.576 410.865 830.915 408.561 829.592C406.3 828.227 404.572 826.541 403.377 824.536V847.64H397.553V795.928H403.377V802.392ZM427.185 813.336C427.185 810.691 426.652 808.387 425.585 806.424C424.518 804.461 423.068 802.968 421.233 801.944C419.441 800.92 417.457 800.408 415.281 800.408C413.148 800.408 411.164 800.941 409.329 802.008C407.537 803.032 406.086 804.547 404.977 806.552C403.91 808.515 403.377 810.797 403.377 813.4C403.377 816.045 403.91 818.371 404.977 820.376C406.086 822.339 407.537 823.853 409.329 824.92C411.164 825.944 413.148 826.456 415.281 826.456C417.457 826.456 419.441 825.944 421.233 824.92C423.068 823.853 424.518 822.339 425.585 820.376C426.652 818.371 427.185 816.024 427.185 813.336ZM472.803 812.12C472.803 813.229 472.739 814.403 472.611 815.64H444.579C444.792 819.096 445.966 821.805 448.099 823.768C450.275 825.688 452.899 826.648 455.971 826.648C458.488 826.648 460.579 826.072 462.243 824.92C463.95 823.725 465.144 822.147 465.827 820.184H472.099C471.16 823.555 469.283 826.307 466.467 828.44C463.651 830.531 460.152 831.576 455.971 831.576C452.643 831.576 449.656 830.829 447.011 829.336C444.408 827.843 442.36 825.731 440.867 823C439.374 820.227 438.627 817.027 438.627 813.4C438.627 809.773 439.352 806.595 440.803 803.864C442.254 801.133 444.28 799.043 446.883 797.592C449.528 796.099 452.558 795.352 455.971 795.352C459.299 795.352 462.243 796.077 464.803 797.528C467.363 798.979 469.326 800.984 470.691 803.544C472.099 806.061 472.803 808.92 472.803 812.12ZM466.787 810.904C466.787 808.685 466.296 806.787 465.315 805.208C464.334 803.587 462.99 802.371 461.283 801.56C459.619 800.707 457.763 800.28 455.715 800.28C452.771 800.28 450.254 801.219 448.163 803.096C446.115 804.973 444.942 807.576 444.643 810.904H466.787ZM492.907 831.576C490.219 831.576 487.808 831.128 485.675 830.232C483.541 829.293 481.856 828.013 480.619 826.392C479.381 824.728 478.699 822.829 478.571 820.696H484.587C484.757 822.445 485.568 823.875 487.019 824.984C488.512 826.093 490.453 826.648 492.843 826.648C495.061 826.648 496.811 826.157 498.091 825.176C499.371 824.195 500.011 822.957 500.011 821.464C500.011 819.928 499.328 818.797 497.963 818.072C496.597 817.304 494.485 816.557 491.627 815.832C489.024 815.149 486.891 814.467 485.227 813.784C483.605 813.059 482.197 812.013 481.003 810.648C479.851 809.24 479.275 807.405 479.275 805.144C479.275 803.352 479.808 801.709 480.875 800.216C481.941 798.723 483.456 797.549 485.419 796.696C487.381 795.8 489.621 795.352 492.139 795.352C496.021 795.352 499.157 796.333 501.547 798.296C503.936 800.259 505.216 802.947 505.387 806.36H499.563C499.435 804.525 498.688 803.053 497.323 801.944C496 800.835 494.208 800.28 491.947 800.28C489.856 800.28 488.192 800.728 486.955 801.624C485.717 802.52 485.099 803.693 485.099 805.144C485.099 806.296 485.461 807.256 486.187 808.024C486.955 808.749 487.893 809.347 489.003 809.816C490.155 810.243 491.733 810.733 493.739 811.288C496.256 811.971 498.304 812.653 499.883 813.336C501.461 813.976 502.805 814.957 503.915 816.28C505.067 817.603 505.664 819.331 505.707 821.464C505.707 823.384 505.173 825.112 504.107 826.648C503.04 828.184 501.525 829.4 499.563 830.296C497.643 831.149 495.424 831.576 492.907 831.576Z" fill="white"/>
<path d="M868.5 898L732.5 970.5L585 898V726.5L721 659L868.5 736V898Z" fill="#4E4E70"/>
<path opacity="0.48" d="M661.547 825.624L672.427 795.928H678.635L664.875 831H658.091L644.331 795.928H650.603L661.547 825.624ZM699.662 831.576C696.376 831.576 693.39 830.829 690.702 829.336C688.056 827.843 685.966 825.731 684.43 823C682.936 820.227 682.19 817.027 682.19 813.4C682.19 809.816 682.958 806.659 684.494 803.928C686.072 801.155 688.206 799.043 690.894 797.592C693.582 796.099 696.59 795.352 699.918 795.352C703.246 795.352 706.254 796.099 708.942 797.592C711.63 799.043 713.742 801.133 715.278 803.864C716.856 806.595 717.646 809.773 717.646 813.4C717.646 817.027 716.835 820.227 715.214 823C713.635 825.731 711.48 827.843 708.75 829.336C706.019 830.829 702.99 831.576 699.662 831.576ZM699.662 826.456C701.752 826.456 703.715 825.965 705.55 824.984C707.384 824.003 708.856 822.531 709.966 820.568C711.118 818.605 711.694 816.216 711.694 813.4C711.694 810.584 711.139 808.195 710.03 806.232C708.92 804.269 707.47 802.819 705.678 801.88C703.886 800.899 701.944 800.408 699.854 800.408C697.72 800.408 695.758 800.899 693.966 801.88C692.216 802.819 690.808 804.269 689.742 806.232C688.675 808.195 688.142 810.584 688.142 813.4C688.142 816.259 688.654 818.669 689.678 820.632C690.744 822.595 692.152 824.067 693.902 825.048C695.651 825.987 697.571 826.456 699.662 826.456ZM743.607 831L735.287 817.944L727.287 831H721.207L732.535 813.592L721.207 795.928H727.799L736.119 808.92L744.055 795.928H750.135L738.871 813.272L750.199 831H743.607ZM787.928 812.12C787.928 813.229 787.864 814.403 787.736 815.64H759.704C759.917 819.096 761.091 821.805 763.224 823.768C765.4 825.688 768.024 826.648 771.096 826.648C773.613 826.648 775.704 826.072 777.368 824.92C779.075 823.725 780.269 822.147 780.952 820.184H787.224C786.285 823.555 784.408 826.307 781.592 828.44C778.776 830.531 775.277 831.576 771.096 831.576C767.768 831.576 764.781 830.829 762.136 829.336C759.533 827.843 757.485 825.731 755.992 823C754.499 820.227 753.752 817.027 753.752 813.4C753.752 809.773 754.477 806.595 755.928 803.864C757.379 801.133 759.405 799.043 762.008 797.592C764.653 796.099 767.683 795.352 771.096 795.352C774.424 795.352 777.368 796.077 779.928 797.528C782.488 798.979 784.451 800.984 785.816 803.544C787.224 806.061 787.928 808.92 787.928 812.12ZM781.912 810.904C781.912 808.685 781.421 806.787 780.44 805.208C779.459 803.587 778.115 802.371 776.408 801.56C774.744 800.707 772.888 800.28 770.84 800.28C767.896 800.28 765.379 801.219 763.288 803.096C761.24 804.973 760.067 807.576 759.768 810.904H781.912ZM801.44 783.64V831H795.616V783.64H801.44Z" fill="white"/>
<path d="M1028.5 613L892.5 685.5L745 613V441.5L881 374L1028.5 451V613Z" fill="#4E4E70"/>
<path opacity="0.48" d="M770.815 528.4C770.815 524.773 771.54 521.616 772.991 518.928C774.441 516.197 776.447 514.085 779.007 512.592C781.609 511.099 784.575 510.352 787.903 510.352C792.212 510.352 795.753 511.397 798.527 513.488C801.343 515.579 803.199 518.48 804.095 522.192H797.823C797.225 520.059 796.052 518.373 794.303 517.136C792.596 515.899 790.463 515.28 787.903 515.28C784.575 515.28 781.887 516.432 779.839 518.736C777.791 520.997 776.767 524.219 776.767 528.4C776.767 532.624 777.791 535.888 779.839 538.192C781.887 540.496 784.575 541.648 787.903 541.648C790.463 541.648 792.596 541.051 794.303 539.856C796.009 538.661 797.183 536.955 797.823 534.736H804.095C803.156 538.32 801.279 541.2 798.463 543.376C795.647 545.509 792.127 546.576 787.903 546.576C784.575 546.576 781.609 545.829 779.007 544.336C776.447 542.843 774.441 540.731 772.991 538C771.54 535.269 770.815 532.069 770.815 528.4ZM843.866 527.12C843.866 528.229 843.802 529.403 843.674 530.64H815.642C815.855 534.096 817.028 536.805 819.162 538.768C821.338 540.688 823.962 541.648 827.034 541.648C829.551 541.648 831.642 541.072 833.306 539.92C835.012 538.725 836.207 537.147 836.89 535.184H843.162C842.223 538.555 840.346 541.307 837.53 543.44C834.714 545.531 831.215 546.576 827.034 546.576C823.706 546.576 820.719 545.829 818.074 544.336C815.471 542.843 813.423 540.731 811.93 538C810.436 535.227 809.69 532.027 809.69 528.4C809.69 524.773 810.415 521.595 811.866 518.864C813.316 516.133 815.343 514.043 817.946 512.592C820.591 511.099 823.62 510.352 827.034 510.352C830.362 510.352 833.306 511.077 835.866 512.528C838.426 513.979 840.388 515.984 841.754 518.544C843.162 521.061 843.866 523.92 843.866 527.12ZM837.85 525.904C837.85 523.685 837.359 521.787 836.378 520.208C835.396 518.587 834.052 517.371 832.346 516.56C830.682 515.707 828.826 515.28 826.778 515.28C823.834 515.28 821.316 516.219 819.226 518.096C817.178 519.973 816.004 522.576 815.706 525.904H837.85ZM857.377 498.64V546H851.553V498.64H857.377ZM873.127 498.64V546H867.303V498.64H873.127ZM914.157 510.928V546H908.333V540.816C907.224 542.608 905.666 544.016 903.661 545.04C901.698 546.021 899.522 546.512 897.133 546.512C894.402 546.512 891.949 545.957 889.773 544.848C887.597 543.696 885.869 541.989 884.589 539.728C883.352 537.467 882.733 534.715 882.733 531.472V510.928H888.493V530.704C888.493 534.16 889.368 536.827 891.117 538.704C892.866 540.539 895.256 541.456 898.285 541.456C901.4 541.456 903.853 540.496 905.645 538.576C907.437 536.656 908.333 533.861 908.333 530.192V510.928H914.157ZM929.815 498.64V546H923.991V498.64H929.815ZM937.565 528.336C937.565 524.752 938.29 521.616 939.741 518.928C941.191 516.197 943.175 514.085 945.693 512.592C948.253 511.099 951.09 510.352 954.205 510.352C957.277 510.352 959.943 511.013 962.205 512.336C964.466 513.659 966.151 515.323 967.261 517.328V510.928H973.149V546H967.261V539.472C966.109 541.52 964.381 543.227 962.077 544.592C959.815 545.915 957.17 546.576 954.141 546.576C951.026 546.576 948.21 545.808 945.693 544.272C943.175 542.736 941.191 540.581 939.741 537.808C938.29 535.035 937.565 531.877 937.565 528.336ZM967.261 528.4C967.261 525.755 966.727 523.451 965.661 521.488C964.594 519.525 963.143 518.032 961.309 517.008C959.517 515.941 957.533 515.408 955.357 515.408C953.181 515.408 951.197 515.92 949.405 516.944C947.613 517.968 946.183 519.461 945.117 521.424C944.05 523.387 943.517 525.691 943.517 528.336C943.517 531.024 944.05 533.371 945.117 535.376C946.183 537.339 947.613 538.853 949.405 539.92C951.197 540.944 953.181 541.456 955.357 541.456C957.533 541.456 959.517 540.944 961.309 539.92C963.143 538.853 964.594 537.339 965.661 535.376C966.727 533.371 967.261 531.045 967.261 528.4ZM988.815 516.624C989.839 514.619 991.289 513.061 993.167 511.952C995.087 510.843 997.412 510.288 1000.14 510.288V516.304H998.607C992.079 516.304 988.815 519.845 988.815 526.928V546H982.991V510.928H988.815V516.624Z" fill="white"/>
<path d="M1671.5 341L1535.5 413.5L1388 341V169.5L1524 102L1671.5 179V341Z" fill="#4E4E70"/>
<path opacity="0.48" d="M1501.25 256.336C1501.25 252.752 1501.98 249.616 1503.43 246.928C1504.88 244.197 1506.86 242.085 1509.38 240.592C1511.94 239.099 1514.78 238.352 1517.89 238.352C1520.96 238.352 1523.63 239.013 1525.89 240.336C1528.15 241.659 1529.84 243.323 1530.95 245.328V238.928H1536.84V274H1530.95V267.472C1529.8 269.52 1528.07 271.227 1525.76 272.592C1523.5 273.915 1520.86 274.576 1517.83 274.576C1514.71 274.576 1511.9 273.808 1509.38 272.272C1506.86 270.736 1504.88 268.581 1503.43 265.808C1501.98 263.035 1501.25 259.877 1501.25 256.336ZM1530.95 256.4C1530.95 253.755 1530.41 251.451 1529.35 249.488C1528.28 247.525 1526.83 246.032 1525 245.008C1523.2 243.941 1521.22 243.408 1519.04 243.408C1516.87 243.408 1514.88 243.92 1513.09 244.944C1511.3 245.968 1509.87 247.461 1508.8 249.424C1507.74 251.387 1507.2 253.691 1507.2 256.336C1507.2 259.024 1507.74 261.371 1508.8 263.376C1509.87 265.339 1511.3 266.853 1513.09 267.92C1514.88 268.944 1516.87 269.456 1519.04 269.456C1521.22 269.456 1523.2 268.944 1525 267.92C1526.83 266.853 1528.28 265.339 1529.35 263.376C1530.41 261.371 1530.95 259.045 1530.95 256.4ZM1549.69 233.232C1548.58 233.232 1547.64 232.848 1546.87 232.08C1546.1 231.312 1545.72 230.373 1545.72 229.264C1545.72 228.155 1546.1 227.216 1546.87 226.448C1547.64 225.68 1548.58 225.296 1549.69 225.296C1550.75 225.296 1551.65 225.68 1552.37 226.448C1553.14 227.216 1553.53 228.155 1553.53 229.264C1553.53 230.373 1553.14 231.312 1552.37 232.08C1551.65 232.848 1550.75 233.232 1549.69 233.232ZM1552.5 238.928V274H1546.68V238.928H1552.5Z" fill="white"/>
<path d="M1516.5 618L1380.5 690.5L1233 618V446.5L1369 379L1516.5 456V618Z" fill="#7BB7A1"/>
<path d="M1298.84 552V519.36H1303.64V527.04H1303.96V552H1298.84ZM1322.2 552V530.624C1322.2 528.149 1321.58 526.293 1320.34 525.056C1319.11 523.819 1317.27 523.2 1314.84 523.2C1312.71 523.2 1310.81 523.669 1309.14 524.608C1307.52 525.547 1306.24 526.848 1305.3 528.512C1304.41 530.176 1303.96 532.117 1303.96 534.336L1303.13 526.592C1304.24 524.16 1305.92 522.24 1308.18 520.832C1310.49 519.424 1313.09 518.72 1315.99 518.72C1319.4 518.72 1322.13 519.701 1324.18 521.664C1326.27 523.584 1327.32 526.123 1327.32 529.28V552H1322.2ZM1350.72 552.64C1347.52 552.64 1344.7 551.893 1342.27 550.4C1339.84 548.907 1337.94 546.88 1336.58 544.32C1335.25 541.717 1334.59 538.795 1334.59 535.552C1334.59 532.267 1335.27 529.365 1336.64 526.848C1338 524.331 1339.88 522.347 1342.27 520.896C1344.7 519.445 1347.52 518.72 1350.72 518.72C1353.96 518.72 1356.78 519.445 1359.17 520.896C1361.6 522.347 1363.48 524.331 1364.8 526.848C1366.16 529.365 1366.85 532.267 1366.85 535.552C1366.85 538.795 1366.16 541.717 1364.8 544.32C1363.48 546.88 1361.6 548.907 1359.17 550.4C1356.78 551.893 1353.96 552.64 1350.72 552.64ZM1350.72 548.288C1352.94 548.288 1354.86 547.755 1356.48 546.688C1358.1 545.579 1359.36 544.064 1360.26 542.144C1361.15 540.224 1361.6 538.005 1361.6 535.488C1361.6 531.733 1360.6 528.725 1358.59 526.464C1356.63 524.203 1354 523.072 1350.72 523.072C1347.48 523.072 1344.85 524.203 1342.85 526.464C1340.84 528.725 1339.84 531.733 1339.84 535.488C1339.84 538.005 1340.29 540.224 1341.18 542.144C1342.08 544.064 1343.34 545.579 1344.96 546.688C1346.62 547.755 1348.54 548.288 1350.72 548.288ZM1374.53 552V519.36H1379.65V552H1374.53ZM1374.14 511.936V505.92H1380.03V511.936H1374.14ZM1400.97 552.64C1396.96 552.64 1393.76 551.723 1391.37 549.888C1388.98 548.011 1387.62 545.365 1387.28 541.952H1392.21C1392.5 544.043 1393.42 545.643 1394.96 546.752C1396.49 547.861 1398.54 548.416 1401.1 548.416C1403.36 548.416 1405.13 547.989 1406.41 547.136C1407.69 546.283 1408.33 545.067 1408.33 543.488C1408.33 542.379 1407.97 541.419 1407.25 540.608C1406.52 539.755 1405.07 539.051 1402.89 538.496L1397.65 537.152C1394.66 536.384 1392.42 535.211 1390.93 533.632C1389.43 532.011 1388.69 530.091 1388.69 527.872C1388.69 525.056 1389.73 522.837 1391.82 521.216C1393.91 519.552 1396.75 518.72 1400.33 518.72C1403.87 518.72 1406.75 519.573 1408.97 521.28C1411.19 522.987 1412.45 525.355 1412.75 528.384H1407.82C1407.52 526.635 1406.71 525.291 1405.39 524.352C1404.07 523.413 1402.32 522.944 1400.14 522.944C1398.05 522.944 1396.43 523.349 1395.28 524.16C1394.13 524.928 1393.55 526.037 1393.55 527.488C1393.55 528.597 1393.95 529.557 1394.77 530.368C1395.62 531.179 1397.03 531.861 1398.99 532.416L1404.11 533.824C1407.14 534.635 1409.42 535.872 1410.96 537.536C1412.49 539.2 1413.26 541.205 1413.26 543.552C1413.26 546.411 1412.17 548.651 1410 550.272C1407.82 551.851 1404.81 552.64 1400.97 552.64ZM1434.65 552.64C1431.54 552.64 1428.79 551.915 1426.4 550.464C1424.01 548.971 1422.13 546.944 1420.76 544.384C1419.4 541.824 1418.72 538.88 1418.72 535.552C1418.72 532.224 1419.38 529.301 1420.7 526.784C1422.07 524.224 1423.96 522.24 1426.4 520.832C1428.83 519.424 1431.62 518.72 1434.78 518.72C1437.81 518.72 1440.43 519.381 1442.65 520.704C1444.91 522.027 1446.64 523.883 1447.84 526.272C1449.07 528.661 1449.69 531.477 1449.69 534.72C1449.69 535.147 1449.67 535.552 1449.63 535.936C1449.63 536.32 1449.59 536.747 1449.5 537.216H1422.56V532.928H1446.36L1444.7 535.296C1444.7 531.371 1443.83 528.363 1442.08 526.272C1440.37 524.139 1437.94 523.072 1434.78 523.072C1431.54 523.072 1428.91 524.203 1426.91 526.464C1424.95 528.683 1423.96 531.691 1423.96 535.488C1423.96 539.371 1424.95 542.485 1426.91 544.832C1428.91 547.136 1431.58 548.288 1434.91 548.288C1437 548.288 1438.83 547.84 1440.41 546.944C1441.99 546.005 1443.14 544.683 1443.87 542.976H1448.73C1447.67 545.963 1445.87 548.331 1443.36 550.08C1440.88 551.787 1437.98 552.64 1434.65 552.64Z" fill="white"/>
<path d="M1671.5 903L1535.5 975.5L1388 903V731.5L1524 664L1671.5 741V903Z" fill="#7BB7A1"/>
<path d="M1440.35 837.64C1436.34 837.64 1433.14 836.723 1430.75 834.888C1428.36 833.011 1426.99 830.365 1426.65 826.952H1431.58C1431.88 829.043 1432.8 830.643 1434.33 831.752C1435.87 832.861 1437.92 833.416 1440.48 833.416C1442.74 833.416 1444.51 832.989 1445.79 832.136C1447.07 831.283 1447.71 830.067 1447.71 828.488C1447.71 827.379 1447.35 826.419 1446.62 825.608C1445.89 824.755 1444.44 824.051 1442.27 823.496L1437.02 822.152C1434.03 821.384 1431.79 820.211 1430.3 818.632C1428.81 817.011 1428.06 815.091 1428.06 812.872C1428.06 810.056 1429.11 807.837 1431.2 806.216C1433.29 804.552 1436.12 803.72 1439.71 803.72C1443.25 803.72 1446.13 804.573 1448.35 806.28C1450.57 807.987 1451.83 810.355 1452.12 813.384H1447.2C1446.9 811.635 1446.09 810.291 1444.76 809.352C1443.44 808.413 1441.69 807.944 1439.52 807.944C1437.43 807.944 1435.8 808.349 1434.65 809.16C1433.5 809.928 1432.92 811.037 1432.92 812.488C1432.92 813.597 1433.33 814.557 1434.14 815.368C1434.99 816.179 1436.4 816.861 1438.36 817.416L1443.48 818.824C1446.51 819.635 1448.8 820.872 1450.33 822.536C1451.87 824.2 1452.64 826.205 1452.64 828.552C1452.64 831.411 1451.55 833.651 1449.37 835.272C1447.2 836.851 1444.19 837.64 1440.35 837.64ZM1459.53 837V790.92H1464.65V837H1459.53ZM1482.89 837V815.624C1482.89 813.149 1482.27 811.293 1481.03 810.056C1479.79 808.819 1477.96 808.2 1475.53 808.2C1473.39 808.2 1471.49 808.669 1469.83 809.608C1468.21 810.547 1466.93 811.848 1465.99 813.512C1465.09 815.176 1464.65 817.117 1464.65 819.336L1463.81 811.592C1464.92 809.16 1466.61 807.24 1468.87 805.832C1471.17 804.424 1473.78 803.72 1476.68 803.72C1480.09 803.72 1482.82 804.701 1484.87 806.664C1486.96 808.584 1488.01 811.123 1488.01 814.28V837H1482.89ZM1517.68 837C1517.51 836.275 1517.38 835.443 1517.3 834.504C1517.26 833.565 1517.24 832.371 1517.24 830.92H1516.92V815.304C1516.92 812.829 1516.34 811.016 1515.19 809.864C1514.08 808.669 1512.26 808.072 1509.75 808.072C1507.27 808.072 1505.29 808.584 1503.8 809.608C1502.34 810.589 1501.53 811.997 1501.36 813.832H1496.44C1496.65 810.675 1497.97 808.2 1500.4 806.408C1502.84 804.616 1506.01 803.72 1509.94 803.72C1513.99 803.72 1517 804.68 1518.96 806.6C1520.93 808.52 1521.91 811.4 1521.91 815.24V830.92C1521.91 831.859 1521.97 832.84 1522.1 833.864C1522.23 834.845 1522.4 835.891 1522.61 837H1517.68ZM1506.48 837.64C1503.11 837.64 1500.42 836.829 1498.42 835.208C1496.46 833.544 1495.48 831.283 1495.48 828.424C1495.48 825.565 1496.46 823.347 1498.42 821.768C1500.38 820.189 1503.24 819.08 1507 818.44L1518.39 816.52V820.744L1507.76 822.408C1505.37 822.792 1503.56 823.432 1502.32 824.328C1501.09 825.224 1500.47 826.525 1500.47 828.232C1500.47 829.896 1501.02 831.155 1502.13 832.008C1503.28 832.861 1504.97 833.288 1507.19 833.288C1510.05 833.288 1512.37 832.648 1514.16 831.368C1516 830.045 1516.92 828.339 1516.92 826.248L1517.75 830.792C1517.06 832.968 1515.72 834.653 1513.72 835.848C1511.75 837.043 1509.34 837.64 1506.48 837.64ZM1547.9 837.576C1544.83 837.576 1542.25 836.829 1540.16 835.336C1538.07 833.843 1536.64 831.731 1535.87 829L1536.9 828.872V850.12H1531.78V804.36H1536.58V811.976L1535.87 811.784C1536.68 809.267 1538.22 807.304 1540.48 805.896C1542.74 804.445 1545.37 803.72 1548.35 803.72C1551.25 803.72 1553.77 804.424 1555.9 805.832C1558.08 807.24 1559.77 809.203 1560.96 811.72C1562.15 814.237 1562.75 817.181 1562.75 820.552C1562.75 823.965 1562.13 826.952 1560.9 829.512C1559.66 832.072 1557.93 834.056 1555.71 835.464C1553.49 836.872 1550.89 837.576 1547.9 837.576ZM1547.14 833.096C1550.38 833.096 1552.92 831.987 1554.75 829.768C1556.59 827.507 1557.5 824.435 1557.5 820.552C1557.5 816.712 1556.59 813.704 1554.75 811.528C1552.92 809.309 1550.38 808.2 1547.14 808.2C1543.89 808.2 1541.33 809.331 1539.46 811.592C1537.58 813.811 1536.64 816.861 1536.64 820.744C1536.64 824.541 1537.58 827.549 1539.46 829.768C1541.33 831.987 1543.89 833.096 1547.14 833.096ZM1583.96 837.64C1580.85 837.64 1578.1 836.915 1575.71 835.464C1573.32 833.971 1571.44 831.944 1570.08 829.384C1568.71 826.824 1568.03 823.88 1568.03 820.552C1568.03 817.224 1568.69 814.301 1570.01 811.784C1571.38 809.224 1573.28 807.24 1575.71 805.832C1578.14 804.424 1580.94 803.72 1584.09 803.72C1587.12 803.72 1589.75 804.381 1591.96 805.704C1594.23 807.027 1595.95 808.883 1597.15 811.272C1598.39 813.661 1599 816.477 1599 819.72C1599 820.147 1598.98 820.552 1598.94 820.936C1598.94 821.32 1598.9 821.747 1598.81 822.216H1571.87V817.928H1595.68L1594.01 820.296C1594.01 816.371 1593.14 813.363 1591.39 811.272C1589.68 809.139 1587.25 808.072 1584.09 808.072C1580.85 808.072 1578.23 809.203 1576.22 811.464C1574.26 813.683 1573.28 816.691 1573.28 820.488C1573.28 824.371 1574.26 827.485 1576.22 829.832C1578.23 832.136 1580.89 833.288 1584.22 833.288C1586.31 833.288 1588.15 832.84 1589.72 831.944C1591.3 831.005 1592.46 829.683 1593.18 827.976H1598.04C1596.98 830.963 1595.19 833.331 1592.67 835.08C1590.19 836.787 1587.29 837.64 1583.96 837.64ZM1617.79 837.64C1613.78 837.64 1610.58 836.723 1608.19 834.888C1605.8 833.011 1604.43 830.365 1604.09 826.952H1609.02C1609.32 829.043 1610.23 830.643 1611.77 831.752C1613.31 832.861 1615.35 833.416 1617.91 833.416C1620.18 833.416 1621.95 832.989 1623.23 832.136C1624.51 831.283 1625.15 830.067 1625.15 828.488C1625.15 827.379 1624.78 826.419 1624.06 825.608C1623.33 824.755 1621.88 824.051 1619.71 823.496L1614.46 822.152C1611.47 821.384 1609.23 820.211 1607.74 818.632C1606.24 817.011 1605.5 815.091 1605.5 812.872C1605.5 810.056 1606.54 807.837 1608.63 806.216C1610.72 804.552 1613.56 803.72 1617.15 803.72C1620.69 803.72 1623.57 804.573 1625.79 806.28C1628 807.987 1629.26 810.355 1629.56 813.384H1624.63C1624.34 811.635 1623.52 810.291 1622.2 809.352C1620.88 808.413 1619.13 807.944 1616.95 807.944C1614.86 807.944 1613.24 808.349 1612.09 809.16C1610.94 809.928 1610.36 811.037 1610.36 812.488C1610.36 813.597 1610.77 814.557 1611.58 815.368C1612.43 816.179 1613.84 816.861 1615.8 817.416L1620.92 818.824C1623.95 819.635 1626.23 820.872 1627.77 822.536C1629.31 824.2 1630.07 826.205 1630.07 828.552C1630.07 831.411 1628.99 833.651 1626.81 835.272C1624.63 836.851 1621.63 837.64 1617.79 837.64Z" fill="white"/>
<path d="M2004.5 903L1868.5 975.5L1721 903V731.5L1857 664L2004.5 741V903Z" fill="#4E4E70"/>
<path opacity="0.48" d="M1797.55 830.624L1808.43 800.928H1814.63L1800.87 836H1794.09L1780.33 800.928H1786.6L1797.55 830.624ZM1835.66 836.576C1832.38 836.576 1829.39 835.829 1826.7 834.336C1824.06 832.843 1821.97 830.731 1820.43 828C1818.94 825.227 1818.19 822.027 1818.19 818.4C1818.19 814.816 1818.96 811.659 1820.49 808.928C1822.07 806.155 1824.21 804.043 1826.89 802.592C1829.58 801.099 1832.59 800.352 1835.92 800.352C1839.25 800.352 1842.25 801.099 1844.94 802.592C1847.63 804.043 1849.74 806.133 1851.28 808.864C1852.86 811.595 1853.65 814.773 1853.65 818.4C1853.65 822.027 1852.83 825.227 1851.21 828C1849.63 830.731 1847.48 832.843 1844.75 834.336C1842.02 835.829 1838.99 836.576 1835.66 836.576ZM1835.66 831.456C1837.75 831.456 1839.71 830.965 1841.55 829.984C1843.38 829.003 1844.86 827.531 1845.97 825.568C1847.12 823.605 1847.69 821.216 1847.69 818.4C1847.69 815.584 1847.14 813.195 1846.03 811.232C1844.92 809.269 1843.47 807.819 1841.68 806.88C1839.89 805.899 1837.94 805.408 1835.85 805.408C1833.72 805.408 1831.76 805.899 1829.97 806.88C1828.22 807.819 1826.81 809.269 1825.74 811.232C1824.67 813.195 1824.14 815.584 1824.14 818.4C1824.14 821.259 1824.65 823.669 1825.68 825.632C1826.74 827.595 1828.15 829.067 1829.9 830.048C1831.65 830.987 1833.57 831.456 1835.66 831.456ZM1879.61 836L1871.29 822.944L1863.29 836H1857.21L1868.54 818.592L1857.21 800.928H1863.8L1872.12 813.92L1880.06 800.928H1886.14L1874.87 818.272L1886.2 836H1879.61ZM1923.93 817.12C1923.93 818.229 1923.86 819.403 1923.74 820.64H1895.7C1895.92 824.096 1897.09 826.805 1899.22 828.768C1901.4 830.688 1904.02 831.648 1907.1 831.648C1909.61 831.648 1911.7 831.072 1913.37 829.92C1915.07 828.725 1916.27 827.147 1916.95 825.184H1923.22C1922.29 828.555 1920.41 831.307 1917.59 833.44C1914.78 835.531 1911.28 836.576 1907.1 836.576C1903.77 836.576 1900.78 835.829 1898.14 834.336C1895.53 832.843 1893.49 830.731 1891.99 828C1890.5 825.227 1889.75 822.027 1889.75 818.4C1889.75 814.773 1890.48 811.595 1891.93 808.864C1893.38 806.133 1895.41 804.043 1898.01 802.592C1900.65 801.099 1903.68 800.352 1907.1 800.352C1910.42 800.352 1913.37 801.077 1915.93 802.528C1918.49 803.979 1920.45 805.984 1921.82 808.544C1923.22 811.061 1923.93 813.92 1923.93 817.12ZM1917.91 815.904C1917.91 813.685 1917.42 811.787 1916.44 810.208C1915.46 808.587 1914.11 807.371 1912.41 806.56C1910.74 805.707 1908.89 805.28 1906.84 805.28C1903.9 805.28 1901.38 806.219 1899.29 808.096C1897.24 809.973 1896.07 812.576 1895.77 815.904H1917.91ZM1937.44 788.64V836H1931.62V788.64H1937.44Z" fill="white"/>
<path d="M2164.5 618L2028.5 690.5L1881 618V446.5L2017 379L2164.5 456V618Z" fill="#4E4E70"/>
<path opacity="0.48" d="M1906.81 533.4C1906.81 529.773 1907.54 526.616 1908.99 523.928C1910.44 521.197 1912.45 519.085 1915.01 517.592C1917.61 516.099 1920.57 515.352 1923.9 515.352C1928.21 515.352 1931.75 516.397 1934.53 518.488C1937.34 520.579 1939.2 523.48 1940.09 527.192H1933.82C1933.23 525.059 1932.05 523.373 1930.3 522.136C1928.6 520.899 1926.46 520.28 1923.9 520.28C1920.57 520.28 1917.89 521.432 1915.84 523.736C1913.79 525.997 1912.77 529.219 1912.77 533.4C1912.77 537.624 1913.79 540.888 1915.84 543.192C1917.89 545.496 1920.57 546.648 1923.9 546.648C1926.46 546.648 1928.6 546.051 1930.3 544.856C1932.01 543.661 1933.18 541.955 1933.82 539.736H1940.09C1939.16 543.32 1937.28 546.2 1934.46 548.376C1931.65 550.509 1928.13 551.576 1923.9 551.576C1920.57 551.576 1917.61 550.829 1915.01 549.336C1912.45 547.843 1910.44 545.731 1908.99 543C1907.54 540.269 1906.81 537.069 1906.81 533.4ZM1979.87 532.12C1979.87 533.229 1979.8 534.403 1979.67 535.64H1951.64C1951.85 539.096 1953.03 541.805 1955.16 543.768C1957.34 545.688 1959.96 546.648 1963.03 546.648C1965.55 546.648 1967.64 546.072 1969.31 544.92C1971.01 543.725 1972.21 542.147 1972.89 540.184H1979.16C1978.22 543.555 1976.35 546.307 1973.53 548.44C1970.71 550.531 1967.21 551.576 1963.03 551.576C1959.71 551.576 1956.72 550.829 1954.07 549.336C1951.47 547.843 1949.42 545.731 1947.93 543C1946.44 540.227 1945.69 537.027 1945.69 533.4C1945.69 529.773 1946.41 526.595 1947.87 523.864C1949.32 521.133 1951.34 519.043 1953.95 517.592C1956.59 516.099 1959.62 515.352 1963.03 515.352C1966.36 515.352 1969.31 516.077 1971.87 517.528C1974.43 518.979 1976.39 520.984 1977.75 523.544C1979.16 526.061 1979.87 528.92 1979.87 532.12ZM1973.85 530.904C1973.85 528.685 1973.36 526.787 1972.38 525.208C1971.4 523.587 1970.05 522.371 1968.35 521.56C1966.68 520.707 1964.83 520.28 1962.78 520.28C1959.83 520.28 1957.32 521.219 1955.23 523.096C1953.18 524.973 1952 527.576 1951.71 530.904H1973.85ZM1993.38 503.64V551H1987.55V503.64H1993.38ZM2009.13 503.64V551H2003.3V503.64H2009.13ZM2050.16 515.928V551H2044.33V545.816C2043.22 547.608 2041.67 549.016 2039.66 550.04C2037.7 551.021 2035.52 551.512 2033.13 551.512C2030.4 551.512 2027.95 550.957 2025.77 549.848C2023.6 548.696 2021.87 546.989 2020.59 544.728C2019.35 542.467 2018.73 539.715 2018.73 536.472V515.928H2024.49V535.704C2024.49 539.16 2025.37 541.827 2027.12 543.704C2028.87 545.539 2031.26 546.456 2034.29 546.456C2037.4 546.456 2039.85 545.496 2041.65 543.576C2043.44 541.656 2044.33 538.861 2044.33 535.192V515.928H2050.16ZM2065.81 503.64V551H2059.99V503.64H2065.81ZM2073.56 533.336C2073.56 529.752 2074.29 526.616 2075.74 523.928C2077.19 521.197 2079.18 519.085 2081.69 517.592C2084.25 516.099 2087.09 515.352 2090.2 515.352C2093.28 515.352 2095.94 516.013 2098.2 517.336C2100.47 518.659 2102.15 520.323 2103.26 522.328V515.928H2109.15V551H2103.26V544.472C2102.11 546.52 2100.38 548.227 2098.08 549.592C2095.82 550.915 2093.17 551.576 2090.14 551.576C2087.03 551.576 2084.21 550.808 2081.69 549.272C2079.18 547.736 2077.19 545.581 2075.74 542.808C2074.29 540.035 2073.56 536.877 2073.56 533.336ZM2103.26 533.4C2103.26 530.755 2102.73 528.451 2101.66 526.488C2100.59 524.525 2099.14 523.032 2097.31 522.008C2095.52 520.941 2093.53 520.408 2091.36 520.408C2089.18 520.408 2087.2 520.92 2085.4 521.944C2083.61 522.968 2082.18 524.461 2081.12 526.424C2080.05 528.387 2079.52 530.691 2079.52 533.336C2079.52 536.024 2080.05 538.371 2081.12 540.376C2082.18 542.339 2083.61 543.853 2085.4 544.92C2087.2 545.944 2089.18 546.456 2091.36 546.456C2093.53 546.456 2095.52 545.944 2097.31 544.92C2099.14 543.853 2100.59 542.339 2101.66 540.376C2102.73 538.371 2103.26 536.045 2103.26 533.4ZM2124.81 521.624C2125.84 519.619 2127.29 518.061 2129.17 516.952C2131.09 515.843 2133.41 515.288 2136.14 515.288V521.304H2134.61C2128.08 521.304 2124.81 524.845 2124.81 531.928V551H2118.99V515.928H2124.81V521.624Z" fill="white"/>
<path d="M1130.5 1236L994.5 1308.5L847 1236V1064.5L983 997L1130.5 1074V1236Z" fill="#E0988A"/>
<path d="M987.402 1170C987.231 1169.27 987.103 1168.44 987.018 1167.5C986.975 1166.57 986.954 1165.37 986.954 1163.92H986.634V1148.3C986.634 1145.83 986.058 1144.02 984.906 1142.86C983.797 1141.67 981.983 1141.07 979.466 1141.07C976.991 1141.07 975.007 1141.58 973.514 1142.61C972.063 1143.59 971.253 1145 971.082 1146.83H966.154C966.367 1143.67 967.69 1141.2 970.122 1139.41C972.554 1137.62 975.733 1136.72 979.658 1136.72C983.711 1136.72 986.719 1137.68 988.682 1139.6C990.645 1141.52 991.626 1144.4 991.626 1148.24V1163.92C991.626 1164.86 991.69 1165.84 991.818 1166.86C991.946 1167.85 992.117 1168.89 992.33 1170H987.402ZM976.202 1170.64C972.831 1170.64 970.143 1169.83 968.138 1168.21C966.175 1166.54 965.194 1164.28 965.194 1161.42C965.194 1158.57 966.175 1156.35 968.138 1154.77C970.101 1153.19 972.959 1152.08 976.714 1151.44L988.106 1149.52V1153.74L977.482 1155.41C975.093 1155.79 973.279 1156.43 972.042 1157.33C970.805 1158.22 970.186 1159.53 970.186 1161.23C970.186 1162.9 970.741 1164.15 971.85 1165.01C973.002 1165.86 974.687 1166.29 976.906 1166.29C979.765 1166.29 982.09 1165.65 983.882 1164.37C985.717 1163.05 986.634 1161.34 986.634 1159.25L987.466 1163.79C986.783 1165.97 985.439 1167.65 983.434 1168.85C981.471 1170.04 979.061 1170.64 976.202 1170.64ZM1001.5 1170V1137.36H1006.62V1170H1001.5ZM1001.11 1129.94V1123.92H1007V1129.94H1001.11Z" fill="white"/>
<path d="M975.5 1513L839.5 1585.5L692 1513V1341.5L828 1274L975.5 1351V1513Z" fill="#4E4E70"/>
<path opacity="0.48" d="M768.641 1410.29C772.908 1410.29 776.364 1411.59 779.009 1414.19C781.654 1416.75 782.977 1420.46 782.977 1425.33V1446H777.217V1426.16C777.217 1422.66 776.342 1419.99 774.593 1418.16C772.844 1416.28 770.454 1415.34 767.425 1415.34C764.353 1415.34 761.9 1416.3 760.065 1418.22C758.273 1420.14 757.377 1422.94 757.377 1426.61V1446H751.553V1410.93H757.377V1415.92C758.529 1414.13 760.086 1412.74 762.049 1411.76C764.054 1410.78 766.252 1410.29 768.641 1410.29ZM807.787 1446.58C804.501 1446.58 801.515 1445.83 798.827 1444.34C796.181 1442.84 794.091 1440.73 792.555 1438C791.061 1435.23 790.315 1432.03 790.315 1428.4C790.315 1424.82 791.083 1421.66 792.619 1418.93C794.197 1416.15 796.331 1414.04 799.019 1412.59C801.707 1411.1 804.715 1410.35 808.043 1410.35C811.371 1410.35 814.379 1411.1 817.067 1412.59C819.755 1414.04 821.867 1416.13 823.403 1418.86C824.981 1421.59 825.771 1424.77 825.771 1428.4C825.771 1432.03 824.96 1435.23 823.339 1438C821.76 1440.73 819.605 1442.84 816.875 1444.34C814.144 1445.83 811.115 1446.58 807.787 1446.58ZM807.787 1441.46C809.877 1441.46 811.84 1440.97 813.675 1439.98C815.509 1439 816.981 1437.53 818.091 1435.57C819.243 1433.61 819.819 1431.22 819.819 1428.4C819.819 1425.58 819.264 1423.19 818.155 1421.23C817.045 1419.27 815.595 1417.82 813.803 1416.88C812.011 1415.9 810.069 1415.41 807.979 1415.41C805.845 1415.41 803.883 1415.9 802.091 1416.88C800.341 1417.82 798.933 1419.27 797.867 1421.23C796.8 1423.19 796.267 1425.58 796.267 1428.4C796.267 1431.26 796.779 1433.67 797.803 1435.63C798.869 1437.59 800.277 1439.07 802.027 1440.05C803.776 1440.99 805.696 1441.46 807.787 1441.46ZM836.436 1405.23C835.327 1405.23 834.388 1404.85 833.62 1404.08C832.852 1403.31 832.468 1402.37 832.468 1401.26C832.468 1400.15 832.852 1399.22 833.62 1398.45C834.388 1397.68 835.327 1397.3 836.436 1397.3C837.503 1397.3 838.399 1397.68 839.124 1398.45C839.892 1399.22 840.276 1400.15 840.276 1401.26C840.276 1402.37 839.892 1403.31 839.124 1404.08C838.399 1404.85 837.503 1405.23 836.436 1405.23ZM839.252 1410.93V1446H833.428V1410.93H839.252ZM861.594 1446.58C858.906 1446.58 856.495 1446.13 854.362 1445.23C852.229 1444.29 850.543 1443.01 849.306 1441.39C848.069 1439.73 847.386 1437.83 847.258 1435.7H853.274C853.445 1437.45 854.255 1438.87 855.706 1439.98C857.199 1441.09 859.141 1441.65 861.53 1441.65C863.749 1441.65 865.498 1441.16 866.778 1440.18C868.058 1439.19 868.698 1437.96 868.698 1436.46C868.698 1434.93 868.015 1433.8 866.65 1433.07C865.285 1432.3 863.173 1431.56 860.314 1430.83C857.711 1430.15 855.578 1429.47 853.914 1428.78C852.293 1428.06 850.885 1427.01 849.69 1425.65C848.538 1424.24 847.962 1422.41 847.962 1420.14C847.962 1418.35 848.495 1416.71 849.562 1415.22C850.629 1413.72 852.143 1412.55 854.106 1411.7C856.069 1410.8 858.309 1410.35 860.826 1410.35C864.709 1410.35 867.845 1411.33 870.234 1413.3C872.623 1415.26 873.903 1417.95 874.074 1421.36H868.25C868.122 1419.53 867.375 1418.05 866.01 1416.94C864.687 1415.83 862.895 1415.28 860.634 1415.28C858.543 1415.28 856.879 1415.73 855.642 1416.62C854.405 1417.52 853.786 1418.69 853.786 1420.14C853.786 1421.3 854.149 1422.26 854.874 1423.02C855.642 1423.75 856.581 1424.35 857.69 1424.82C858.842 1425.24 860.421 1425.73 862.426 1426.29C864.943 1426.97 866.991 1427.65 868.57 1428.34C870.149 1428.98 871.493 1429.96 872.602 1431.28C873.754 1432.6 874.351 1434.33 874.394 1436.46C874.394 1438.38 873.861 1440.11 872.794 1441.65C871.727 1443.18 870.213 1444.4 868.25 1445.3C866.33 1446.15 864.111 1446.58 861.594 1446.58ZM914.616 1427.12C914.616 1428.23 914.552 1429.4 914.424 1430.64H886.392C886.605 1434.1 887.778 1436.81 889.912 1438.77C892.088 1440.69 894.712 1441.65 897.784 1441.65C900.301 1441.65 902.392 1441.07 904.056 1439.92C905.762 1438.73 906.957 1437.15 907.64 1435.18H913.912C912.973 1438.55 911.096 1441.31 908.28 1443.44C905.464 1445.53 901.965 1446.58 897.784 1446.58C894.456 1446.58 891.469 1445.83 888.824 1444.34C886.221 1442.84 884.173 1440.73 882.68 1438C881.186 1435.23 880.44 1432.03 880.44 1428.4C880.44 1424.77 881.165 1421.59 882.616 1418.86C884.066 1416.13 886.093 1414.04 888.696 1412.59C891.341 1411.1 894.37 1410.35 897.784 1410.35C901.112 1410.35 904.056 1411.08 906.616 1412.53C909.176 1413.98 911.138 1415.98 912.504 1418.54C913.912 1421.06 914.616 1423.92 914.616 1427.12ZM908.6 1425.9C908.6 1423.69 908.109 1421.79 907.128 1420.21C906.146 1418.59 904.802 1417.37 903.096 1416.56C901.432 1415.71 899.576 1415.28 897.528 1415.28C894.584 1415.28 892.066 1416.22 889.976 1418.1C887.928 1419.97 886.754 1422.58 886.456 1425.9H908.6Z" fill="white"/>
<path d="M1130.5 1798L994.5 1870.5L847 1798V1626.5L983 1559L1130.5 1636V1798Z" fill="#4E4E70"/>
<path opacity="0.48" d="M887.344 1731.58C884.656 1731.58 882.245 1731.13 880.112 1730.23C877.979 1729.29 876.293 1728.01 875.056 1726.39C873.819 1724.73 873.136 1722.83 873.008 1720.7H879.024C879.195 1722.45 880.005 1723.87 881.456 1724.98C882.949 1726.09 884.891 1726.65 887.28 1726.65C889.499 1726.65 891.248 1726.16 892.528 1725.18C893.808 1724.19 894.448 1722.96 894.448 1721.46C894.448 1719.93 893.765 1718.8 892.4 1718.07C891.035 1717.3 888.923 1716.56 886.064 1715.83C883.461 1715.15 881.328 1714.47 879.664 1713.78C878.043 1713.06 876.635 1712.01 875.44 1710.65C874.288 1709.24 873.712 1707.41 873.712 1705.14C873.712 1703.35 874.245 1701.71 875.312 1700.22C876.379 1698.72 877.893 1697.55 879.856 1696.7C881.819 1695.8 884.059 1695.35 886.576 1695.35C890.459 1695.35 893.595 1696.33 895.984 1698.3C898.373 1700.26 899.653 1702.95 899.824 1706.36H894C893.872 1704.53 893.125 1703.05 891.76 1701.94C890.437 1700.83 888.645 1700.28 886.384 1700.28C884.293 1700.28 882.629 1700.73 881.392 1701.62C880.155 1702.52 879.536 1703.69 879.536 1705.14C879.536 1706.3 879.899 1707.26 880.624 1708.02C881.392 1708.75 882.331 1709.35 883.44 1709.82C884.592 1710.24 886.171 1710.73 888.176 1711.29C890.693 1711.97 892.741 1712.65 894.32 1713.34C895.899 1713.98 897.243 1714.96 898.352 1716.28C899.504 1717.6 900.101 1719.33 900.144 1721.46C900.144 1723.38 899.611 1725.11 898.544 1726.65C897.477 1728.18 895.963 1729.4 894 1730.3C892.08 1731.15 889.861 1731.58 887.344 1731.58ZM925.774 1695.29C928.419 1695.29 930.808 1695.86 932.942 1697.02C935.075 1698.13 936.739 1699.81 937.934 1702.07C939.171 1704.33 939.79 1707.09 939.79 1710.33V1731H934.03V1711.16C934.03 1707.66 933.155 1704.99 931.406 1703.16C929.656 1701.28 927.267 1700.34 924.238 1700.34C921.166 1700.34 918.712 1701.3 916.878 1703.22C915.086 1705.14 914.19 1707.94 914.19 1711.61V1731H908.366V1683.64H914.19V1700.92C915.342 1699.13 916.92 1697.74 918.926 1696.76C920.974 1695.78 923.256 1695.29 925.774 1695.29ZM947.127 1713.34C947.127 1709.75 947.852 1706.62 949.303 1703.93C950.754 1701.2 952.738 1699.09 955.255 1697.59C957.815 1696.1 960.652 1695.35 963.767 1695.35C966.839 1695.35 969.506 1696.01 971.767 1697.34C974.028 1698.66 975.714 1700.32 976.823 1702.33V1695.93H982.711V1731H976.823V1724.47C975.671 1726.52 973.943 1728.23 971.639 1729.59C969.378 1730.91 966.732 1731.58 963.703 1731.58C960.588 1731.58 957.772 1730.81 955.255 1729.27C952.738 1727.74 950.754 1725.58 949.303 1722.81C947.852 1720.03 947.127 1716.88 947.127 1713.34ZM976.823 1713.4C976.823 1710.75 976.29 1708.45 975.223 1706.49C974.156 1704.53 972.706 1703.03 970.871 1702.01C969.079 1700.94 967.095 1700.41 964.919 1700.41C962.743 1700.41 960.759 1700.92 958.967 1701.94C957.175 1702.97 955.746 1704.46 954.679 1706.42C953.612 1708.39 953.079 1710.69 953.079 1713.34C953.079 1716.02 953.612 1718.37 954.679 1720.38C955.746 1722.34 957.175 1723.85 958.967 1724.92C960.759 1725.94 962.743 1726.46 964.919 1726.46C967.095 1726.46 969.079 1725.94 970.871 1724.92C972.706 1723.85 974.156 1722.34 975.223 1720.38C976.29 1718.37 976.823 1716.05 976.823 1713.4ZM998.377 1702.39C999.529 1700.39 1001.24 1698.72 1003.5 1697.4C1005.8 1696.03 1008.47 1695.35 1011.5 1695.35C1014.61 1695.35 1017.43 1696.1 1019.94 1697.59C1022.5 1699.09 1024.51 1701.2 1025.96 1703.93C1027.41 1706.62 1028.14 1709.75 1028.14 1713.34C1028.14 1716.88 1027.41 1720.03 1025.96 1722.81C1024.51 1725.58 1022.5 1727.74 1019.94 1729.27C1017.43 1730.81 1014.61 1731.58 1011.5 1731.58C1008.51 1731.58 1005.87 1730.91 1003.56 1729.59C1001.3 1728.23 999.572 1726.54 998.377 1724.54V1747.64H992.553V1695.93H998.377V1702.39ZM1022.19 1713.34C1022.19 1710.69 1021.65 1708.39 1020.59 1706.42C1019.52 1704.46 1018.07 1702.97 1016.23 1701.94C1014.44 1700.92 1012.46 1700.41 1010.28 1700.41C1008.15 1700.41 1006.16 1700.94 1004.33 1702.01C1002.54 1703.03 1001.09 1704.55 999.977 1706.55C998.91 1708.51 998.377 1710.8 998.377 1713.4C998.377 1716.05 998.91 1718.37 999.977 1720.38C1001.09 1722.34 1002.54 1723.85 1004.33 1724.92C1006.16 1725.94 1008.15 1726.46 1010.28 1726.46C1012.46 1726.46 1014.44 1725.94 1016.23 1724.92C1018.07 1723.85 1019.52 1722.34 1020.59 1720.38C1021.65 1718.37 1022.19 1716.02 1022.19 1713.34ZM1067.8 1712.12C1067.8 1713.23 1067.74 1714.4 1067.61 1715.64H1039.58C1039.79 1719.1 1040.97 1721.81 1043.1 1723.77C1045.28 1725.69 1047.9 1726.65 1050.97 1726.65C1053.49 1726.65 1055.58 1726.07 1057.24 1724.92C1058.95 1723.73 1060.14 1722.15 1060.83 1720.18H1067.1C1066.16 1723.55 1064.28 1726.31 1061.47 1728.44C1058.65 1730.53 1055.15 1731.58 1050.97 1731.58C1047.64 1731.58 1044.66 1730.83 1042.01 1729.34C1039.41 1727.84 1037.36 1725.73 1035.87 1723C1034.37 1720.23 1033.63 1717.03 1033.63 1713.4C1033.63 1709.77 1034.35 1706.59 1035.8 1703.86C1037.25 1701.13 1039.28 1699.04 1041.88 1697.59C1044.53 1696.1 1047.56 1695.35 1050.97 1695.35C1054.3 1695.35 1057.24 1696.08 1059.8 1697.53C1062.36 1698.98 1064.33 1700.98 1065.69 1703.54C1067.1 1706.06 1067.8 1708.92 1067.8 1712.12ZM1061.79 1710.9C1061.79 1708.69 1061.3 1706.79 1060.32 1705.21C1059.33 1703.59 1057.99 1702.37 1056.28 1701.56C1054.62 1700.71 1052.76 1700.28 1050.72 1700.28C1047.77 1700.28 1045.25 1701.22 1043.16 1703.1C1041.12 1704.97 1039.94 1707.58 1039.64 1710.9H1061.79ZM1087.91 1731.58C1085.22 1731.58 1082.81 1731.13 1080.67 1730.23C1078.54 1729.29 1076.86 1728.01 1075.62 1726.39C1074.38 1724.73 1073.7 1722.83 1073.57 1720.7H1079.59C1079.76 1722.45 1080.57 1723.87 1082.02 1724.98C1083.51 1726.09 1085.45 1726.65 1087.84 1726.65C1090.06 1726.65 1091.81 1726.16 1093.09 1725.18C1094.37 1724.19 1095.01 1722.96 1095.01 1721.46C1095.01 1719.93 1094.33 1718.8 1092.96 1718.07C1091.6 1717.3 1089.49 1716.56 1086.63 1715.83C1084.02 1715.15 1081.89 1714.47 1080.23 1713.78C1078.61 1713.06 1077.2 1712.01 1076 1710.65C1074.85 1709.24 1074.27 1707.41 1074.27 1705.14C1074.27 1703.35 1074.81 1701.71 1075.87 1700.22C1076.94 1698.72 1078.46 1697.55 1080.42 1696.7C1082.38 1695.8 1084.62 1695.35 1087.14 1695.35C1091.02 1695.35 1094.16 1696.33 1096.55 1698.3C1098.94 1700.26 1100.22 1702.95 1100.39 1706.36H1094.56C1094.43 1704.53 1093.69 1703.05 1092.32 1701.94C1091 1700.83 1089.21 1700.28 1086.95 1700.28C1084.86 1700.28 1083.19 1700.73 1081.95 1701.62C1080.72 1702.52 1080.1 1703.69 1080.1 1705.14C1080.1 1706.3 1080.46 1707.26 1081.19 1708.02C1081.95 1708.75 1082.89 1709.35 1084 1709.82C1085.15 1710.24 1086.73 1710.73 1088.74 1711.29C1091.26 1711.97 1093.3 1712.65 1094.88 1713.34C1096.46 1713.98 1097.81 1714.96 1098.91 1716.28C1100.07 1717.6 1100.66 1719.33 1100.71 1721.46C1100.71 1723.38 1100.17 1725.11 1099.11 1726.65C1098.04 1728.18 1096.53 1729.4 1094.56 1730.3C1092.64 1731.15 1090.42 1731.58 1087.91 1731.58Z" fill="white"/>
<path d="M1463.5 1798L1327.5 1870.5L1180 1798V1626.5L1316 1559L1463.5 1636V1798Z" fill="#E0988A"/>
<path d="M1258.44 1732L1244.93 1699.36H1250.44L1261.7 1728.54H1259.65L1270.85 1699.36H1276.1L1262.6 1732H1258.44ZM1295.16 1732.64C1291.96 1732.64 1289.14 1731.89 1286.71 1730.4C1284.28 1728.91 1282.38 1726.88 1281.01 1724.32C1279.69 1721.72 1279.03 1718.79 1279.03 1715.55C1279.03 1712.27 1279.71 1709.37 1281.08 1706.85C1282.44 1704.33 1284.32 1702.35 1286.71 1700.9C1289.14 1699.45 1291.96 1698.72 1295.16 1698.72C1298.4 1698.72 1301.22 1699.45 1303.6 1700.9C1306.04 1702.35 1307.91 1704.33 1309.24 1706.85C1310.6 1709.37 1311.28 1712.27 1311.28 1715.55C1311.28 1718.79 1310.6 1721.72 1309.24 1724.32C1307.91 1726.88 1306.04 1728.91 1303.6 1730.4C1301.22 1731.89 1298.4 1732.64 1295.16 1732.64ZM1295.16 1728.29C1297.38 1728.29 1299.3 1727.75 1300.92 1726.69C1302.54 1725.58 1303.8 1724.06 1304.69 1722.14C1305.59 1720.22 1306.04 1718.01 1306.04 1715.49C1306.04 1711.73 1305.03 1708.73 1303.03 1706.46C1301.07 1704.2 1298.44 1703.07 1295.16 1703.07C1291.91 1703.07 1289.29 1704.2 1287.28 1706.46C1285.28 1708.73 1284.28 1711.73 1284.28 1715.49C1284.28 1718.01 1284.72 1720.22 1285.62 1722.14C1286.52 1724.06 1287.78 1725.58 1289.4 1726.69C1291.06 1727.75 1292.98 1728.29 1295.16 1728.29ZM1338.8 1732L1327.98 1716.83L1315.05 1699.36H1321L1330.99 1713.38L1344.75 1732H1338.8ZM1328.3 1713.63L1338.54 1699.36H1344.3L1330.99 1717.09L1328.3 1713.63ZM1330.48 1717.15L1319.4 1732H1313.58L1327.98 1713.5L1330.48 1717.15ZM1363.21 1732.64C1360.1 1732.64 1357.35 1731.91 1354.96 1730.46C1352.57 1728.97 1350.69 1726.94 1349.33 1724.38C1347.96 1721.82 1347.28 1718.88 1347.28 1715.55C1347.28 1712.22 1347.94 1709.3 1349.26 1706.78C1350.63 1704.22 1352.53 1702.24 1354.96 1700.83C1357.39 1699.42 1360.19 1698.72 1363.34 1698.72C1366.37 1698.72 1369 1699.38 1371.21 1700.7C1373.48 1702.03 1375.2 1703.88 1376.4 1706.27C1377.64 1708.66 1378.25 1711.48 1378.25 1714.72C1378.25 1715.15 1378.23 1715.55 1378.19 1715.94C1378.19 1716.32 1378.15 1716.75 1378.06 1717.22H1351.12V1712.93H1374.93L1373.26 1715.3C1373.26 1711.37 1372.39 1708.36 1370.64 1706.27C1368.93 1704.14 1366.5 1703.07 1363.34 1703.07C1360.1 1703.07 1357.48 1704.2 1355.47 1706.46C1353.51 1708.68 1352.53 1711.69 1352.53 1715.49C1352.53 1719.37 1353.51 1722.49 1355.47 1724.83C1357.48 1727.14 1360.14 1728.29 1363.47 1728.29C1365.56 1728.29 1367.4 1727.84 1368.97 1726.94C1370.55 1726.01 1371.71 1724.68 1372.43 1722.98H1377.29C1376.23 1725.96 1374.44 1728.33 1371.92 1730.08C1369.44 1731.79 1366.54 1732.64 1363.21 1732.64ZM1385.96 1732V1685.92H1391.08V1732H1385.96Z" fill="white"/>
<path d="M1623.5 1513L1487.5 1585.5L1340 1513V1341.5L1476 1274L1623.5 1351V1513Z" fill="#E0988A"/>
<path d="M1392.02 1447.64C1389.03 1447.64 1386.36 1446.91 1384.02 1445.46C1381.71 1443.97 1379.88 1441.94 1378.51 1439.38C1377.19 1436.78 1376.53 1433.84 1376.53 1430.55C1376.53 1427.27 1377.19 1424.37 1378.51 1421.85C1379.88 1419.33 1381.71 1417.35 1384.02 1415.9C1386.36 1414.45 1389.01 1413.72 1391.95 1413.72C1394.38 1413.72 1396.56 1414.19 1398.48 1415.13C1400.44 1416.07 1402.04 1417.41 1403.28 1419.16C1404.56 1420.87 1405.37 1422.87 1405.71 1425.18H1400.98C1400.55 1423.09 1399.57 1421.38 1398.03 1420.06C1396.5 1418.73 1394.51 1418.07 1392.08 1418.07C1389.99 1418.07 1388.18 1418.58 1386.64 1419.61C1385.1 1420.63 1383.91 1422.08 1383.06 1423.96C1382.2 1425.84 1381.78 1428.03 1381.78 1430.55C1381.78 1433.07 1382.2 1435.29 1383.06 1437.21C1383.91 1439.13 1385.1 1440.62 1386.64 1441.69C1388.22 1442.75 1390.05 1443.29 1392.14 1443.29C1394.49 1443.29 1396.45 1442.65 1398.03 1441.37C1399.61 1440.05 1400.61 1438.34 1401.04 1436.25H1405.78C1405.39 1438.51 1404.54 1440.51 1403.22 1442.26C1401.94 1443.97 1400.34 1445.29 1398.42 1446.23C1396.5 1447.17 1394.36 1447.64 1392.02 1447.64ZM1426.46 1447.64C1423.35 1447.64 1420.6 1446.91 1418.21 1445.46C1415.82 1443.97 1413.94 1441.94 1412.58 1439.38C1411.21 1436.82 1410.53 1433.88 1410.53 1430.55C1410.53 1427.22 1411.19 1424.3 1412.51 1421.78C1413.88 1419.22 1415.78 1417.24 1418.21 1415.83C1420.64 1414.42 1423.44 1413.72 1426.59 1413.72C1429.62 1413.72 1432.25 1414.38 1434.46 1415.7C1436.73 1417.03 1438.45 1418.88 1439.65 1421.27C1440.89 1423.66 1441.5 1426.48 1441.5 1429.72C1441.5 1430.15 1441.48 1430.55 1441.44 1430.94C1441.44 1431.32 1441.4 1431.75 1441.31 1432.22H1414.37V1427.93H1438.18L1436.51 1430.3C1436.51 1426.37 1435.64 1423.36 1433.89 1421.27C1432.18 1419.14 1429.75 1418.07 1426.59 1418.07C1423.35 1418.07 1420.73 1419.2 1418.72 1421.46C1416.76 1423.68 1415.78 1426.69 1415.78 1430.49C1415.78 1434.37 1416.76 1437.49 1418.72 1439.83C1420.73 1442.14 1423.39 1443.29 1426.72 1443.29C1428.81 1443.29 1430.65 1442.84 1432.22 1441.94C1433.8 1441.01 1434.96 1439.68 1435.68 1437.98H1440.54C1439.48 1440.96 1437.69 1443.33 1435.17 1445.08C1432.69 1446.79 1429.79 1447.64 1426.46 1447.64ZM1449.21 1447V1400.92H1454.33V1447H1449.21ZM1464.59 1447V1400.92H1469.71V1447H1464.59ZM1490.59 1447.64C1488.45 1447.64 1486.56 1447.21 1484.89 1446.36C1483.23 1445.46 1481.93 1444.23 1480.99 1442.65C1480.05 1441.03 1479.58 1439.17 1479.58 1437.08V1414.36H1484.7V1435.74C1484.7 1438.21 1485.3 1440.07 1486.49 1441.3C1487.73 1442.54 1489.48 1443.16 1491.74 1443.16C1493.79 1443.16 1495.6 1442.69 1497.18 1441.75C1498.76 1440.81 1500 1439.51 1500.89 1437.85C1501.83 1436.14 1502.3 1434.2 1502.3 1432.02L1503.13 1439.77C1502.07 1442.2 1500.4 1444.12 1498.14 1445.53C1495.88 1446.94 1493.36 1447.64 1490.59 1447.64ZM1502.62 1447V1439.32H1502.3V1414.36H1507.42V1447H1502.62ZM1517.65 1447V1400.92H1522.77V1447H1517.65ZM1553.06 1447C1552.89 1446.27 1552.76 1445.44 1552.67 1444.5C1552.63 1443.57 1552.61 1442.37 1552.61 1440.92H1552.29V1425.3C1552.29 1422.83 1551.71 1421.02 1550.56 1419.86C1549.45 1418.67 1547.64 1418.07 1545.12 1418.07C1542.65 1418.07 1540.66 1418.58 1539.17 1419.61C1537.72 1420.59 1536.91 1422 1536.74 1423.83H1531.81C1532.02 1420.67 1533.35 1418.2 1535.78 1416.41C1538.21 1414.62 1541.39 1413.72 1545.31 1413.72C1549.37 1413.72 1552.38 1414.68 1554.34 1416.6C1556.3 1418.52 1557.28 1421.4 1557.28 1425.24V1440.92C1557.28 1441.86 1557.35 1442.84 1557.47 1443.86C1557.6 1444.85 1557.77 1445.89 1557.99 1447H1553.06ZM1541.86 1447.64C1538.49 1447.64 1535.8 1446.83 1533.79 1445.21C1531.83 1443.54 1530.85 1441.28 1530.85 1438.42C1530.85 1435.57 1531.83 1433.35 1533.79 1431.77C1535.76 1430.19 1538.62 1429.08 1542.37 1428.44L1553.76 1426.52V1430.74L1543.14 1432.41C1540.75 1432.79 1538.94 1433.43 1537.7 1434.33C1536.46 1435.22 1535.84 1436.53 1535.84 1438.23C1535.84 1439.9 1536.4 1441.15 1537.51 1442.01C1538.66 1442.86 1540.34 1443.29 1542.56 1443.29C1545.42 1443.29 1547.75 1442.65 1549.54 1441.37C1551.37 1440.05 1552.29 1438.34 1552.29 1436.25L1553.12 1440.79C1552.44 1442.97 1551.1 1444.65 1549.09 1445.85C1547.13 1447.04 1544.72 1447.64 1541.86 1447.64ZM1567.15 1447V1414.36H1571.95V1422.68H1572.27V1447H1567.15ZM1572.27 1429.98L1571.44 1422.23C1572.21 1419.46 1573.57 1417.35 1575.54 1415.9C1577.5 1414.45 1579.76 1413.72 1582.32 1413.72C1583.39 1413.72 1584.11 1413.81 1584.5 1413.98V1418.9C1584.28 1418.82 1583.98 1418.78 1583.6 1418.78C1583.22 1418.73 1582.75 1418.71 1582.19 1418.71C1578.95 1418.71 1576.47 1419.69 1574.77 1421.66C1573.1 1423.58 1572.27 1426.35 1572.27 1429.98Z" fill="white"/>
<rect x="448" y="482" width="226" height="139" fill="white"/>
<ellipse cx="615.932" cy="556.113" rx="24.7245" ry="34.1264" transform="rotate(20.0401 615.932 556.113)" fill="url(#paint0_radial_233_1229)"/>
<ellipse cx="615.932" cy="556.113" rx="24.7245" ry="34.1264" transform="rotate(20.0401 615.932 556.113)" fill="url(#paint1_radial_233_1229)"/>
<ellipse cx="475.262" cy="552.372" rx="24.7245" ry="34.1264" fill="url(#paint2_radial_233_1229)"/>
<ellipse cx="475.262" cy="552.372" rx="24.7245" ry="34.1264" fill="url(#paint3_radial_233_1229)"/>
<path d="M669.355 325.464L574.207 350.183L670.855 240L669.355 325.464Z" fill="url(#paint4_linear_233_1229)"/>
<path d="M557 372L698 454L686.706 477.487L565.706 528.987L420.206 461.586L414 444.586L557 372Z" fill="url(#paint5_linear_233_1229)"/>
<path fill-rule="evenodd" clip-rule="evenodd" d="M569.5 524.487L561.206 520.986L414 444.586V616.5L561.206 693.5L578.706 681.987L569.5 524.487ZM490.207 591.023C504.707 598.987 517.207 589.878 517.207 571.644C517.207 553.411 507.207 532.987 490.207 524.993C473.207 516.999 460.207 528.332 460.207 546.566C460.207 564.799 475.707 583.058 490.207 591.023Z" fill="url(#paint6_linear_233_1229)"/>
<path fill-rule="evenodd" clip-rule="evenodd" d="M698.001 454L561.207 520.987V693.5L698.001 616.774V454ZM628.207 597.072C613.707 605.089 601.207 595.92 601.207 577.566C601.207 559.212 611.207 538.653 628.207 530.607C645.207 522.56 658.207 533.968 658.207 552.322C658.207 570.676 642.707 589.055 628.207 597.072Z" fill="url(#paint7_linear_233_1229)"/>
<path d="M485.634 599.349C495.338 604.68 506.147 605.032 514.701 598.863C522.882 592.964 526.707 582.727 526.707 571.644C526.707 550.697 515.375 526.33 494.25 516.396C483.164 511.183 471.763 511.739 463.059 518.4C454.724 524.778 450.707 535.356 450.707 546.566C450.707 558.31 455.644 569.353 462.08 578.224C468.545 587.135 477.088 594.656 485.634 599.349Z" stroke="url(#paint8_linear_233_1229)" stroke-width="19"/>
<path d="M632.804 605.385C623.088 610.756 612.254 611.113 603.689 604.895C595.517 598.963 591.707 588.685 591.707 577.565C591.707 556.53 603.012 532.021 624.143 522.019C635.243 516.765 646.668 517.327 655.379 524.037C663.705 530.451 667.707 541.073 667.707 552.321C667.707 564.108 662.784 575.202 656.351 584.127C649.892 593.09 641.351 600.659 632.804 605.385Z" stroke="url(#paint9_linear_233_1229)" stroke-width="19"/>
<path d="M1615 268L1657.32 348.547L1671.5 341V302L1615 268Z" fill="#2D2D4F"/>
<rect x="1584.14" y="452" width="226" height="139" fill="white"/>
<ellipse cx="1616.05" cy="564" rx="24.5" ry="29" fill="url(#paint10_radial_233_1229)"/>
<ellipse cx="1616.05" cy="564" rx="24.5" ry="29" fill="url(#paint11_radial_233_1229)"/>
<ellipse cx="1759.06" cy="572" rx="24.5" ry="29" fill="url(#paint12_radial_233_1229)"/>
<ellipse cx="1759.06" cy="572" rx="24.5" ry="29" fill="url(#paint13_radial_233_1229)"/>
<path d="M1701.3 270.495L1616.99 226.928L1687.15 354.405L1701.3 270.495Z" fill="url(#paint14_linear_233_1229)"/>
<path d="M1695.14 377L1836.14 459L1828.55 478.497L1699.05 532.997L1559.05 461.498L1552.14 449.5L1695.14 377Z" fill="url(#paint15_linear_233_1229)"/>
<path fill-rule="evenodd" clip-rule="evenodd" d="M1707.85 529.997L1699.56 525.997L1552.14 449.5L1552.14 621.5L1699.14 698.5L1712.14 688L1707.85 529.997ZM1641.42 571.058C1648.86 574.261 1654.56 576.715 1654.56 565.998C1654.56 547.764 1645.56 537.998 1628.56 530.004C1611.56 522.01 1598.56 533.343 1598.56 551.577C1598.56 569.81 1611.06 570.655 1624.56 567.498C1630.12 566.196 1636.2 568.811 1641.42 571.058Z" fill="url(#paint16_linear_233_1229)"/>
<path fill-rule="evenodd" clip-rule="evenodd" d="M1836.14 459L1699.56 526.001L1699.14 698.5L1836.35 621.788L1836.14 459ZM1758.24 576.57C1748.86 582.594 1743.56 586.001 1743.56 571.501C1743.56 553.147 1749.56 543.667 1766.56 535.62C1783.56 527.574 1796.56 538.982 1796.56 557.336C1796.56 568.375 1790.95 568.359 1783.32 568.337C1778.27 568.323 1772.33 568.306 1766.56 571.501C1763.51 573.184 1760.73 574.97 1758.24 576.57Z" fill="url(#paint17_linear_233_1229)"/>
<path d="M1771.15 576.814C1768.11 578.496 1765.29 580.512 1762.48 582.578C1762.19 582.793 1761.89 583.017 1761.58 583.248C1759.28 584.954 1756.48 587.034 1753.99 588.322C1752.56 589.065 1750.19 590.125 1747.34 590.224C1743.87 590.345 1740.38 589.004 1737.87 586.05C1735.8 583.616 1735 580.775 1734.62 578.738C1734.2 576.542 1734.06 574.085 1734.06 571.5C1734.06 561.351 1735.7 552.356 1740.68 544.577C1745.64 536.818 1753.15 531.454 1762.49 527.033C1773.59 521.779 1785.02 522.34 1793.73 529.051C1802.06 535.464 1806.06 546.087 1806.06 557.335C1806.06 562.673 1805.03 569.158 1799.67 573.249C1794.76 576.991 1788.82 576.494 1786.15 576.256C1784.73 576.13 1783.46 575.993 1782.3 575.868C1777.3 575.329 1774.4 575.017 1771.15 576.814Z" stroke="url(#paint18_linear_233_1229)" stroke-width="19"/>
<path d="M1626.22 572.751C1626.62 572.658 1627.9 572.61 1630.74 573.842C1632.81 574.738 1634.68 575.813 1636.87 577.071C1637.77 577.586 1638.72 578.132 1639.75 578.708C1641.31 579.574 1643.22 580.584 1645.18 581.305C1646.96 581.959 1650.09 582.891 1653.61 582.161C1657.96 581.261 1660.93 578.31 1662.47 574.878C1663.77 571.976 1664.05 568.779 1664.05 566C1664.05 555.186 1661.34 546.053 1655.48 538.392C1649.79 530.954 1641.75 525.711 1632.6 521.41C1621.51 516.197 1610.11 516.753 1601.41 523.413C1593.07 529.792 1589.05 540.37 1589.05 551.58C1589.05 556.997 1589.91 562.181 1592.5 566.478C1595.33 571.175 1599.58 573.759 1604.08 574.812C1608.18 575.77 1612.36 575.445 1615.79 574.928C1618.99 574.446 1622.38 573.65 1625.41 572.94C1625.68 572.876 1625.95 572.813 1626.22 572.751Z" stroke="url(#paint19_linear_233_1229)" stroke-width="19"/>
<rect x="1050" y="1378" width="226" height="139" fill="white"/>
<ellipse cx="1099.01" cy="1442.77" rx="24.7245" ry="34.1264" fill="url(#paint20_radial_233_1229)"/>
<ellipse cx="1099.01" cy="1442.77" rx="24.7245" ry="34.1264" fill="url(#paint21_radial_233_1229)"/>
<ellipse cx="1238.01" cy="1460.77" rx="24.7245" ry="34.1264" fill="url(#paint22_radial_233_1229)"/>
<ellipse cx="1238.01" cy="1460.77" rx="24.7245" ry="34.1264" fill="url(#paint23_radial_233_1229)"/>
<path d="M1248.59 1222.47L1318.71 1291.38L1174.51 1265.11L1248.59 1222.47Z" fill="url(#paint24_linear_233_1229)"/>
<path d="M1161 1276L1302 1357.5L1292.29 1382.64L1165.79 1435.14L1025.79 1365.74L1018 1348L1161 1276Z" fill="url(#paint25_linear_233_1229)"/>
<path fill-rule="evenodd" clip-rule="evenodd" d="M1173.58 1429.14L1165.28 1425.64L1018 1348.5L1018.08 1520.5L1165 1597.5L1179 1587.5L1173.58 1429.14ZM1106.99 1477.25C1115.38 1484.05 1121.28 1488.83 1121.28 1476.3C1121.28 1458.07 1111.28 1437.64 1094.28 1429.65C1077.28 1421.66 1064.28 1432.99 1064.28 1451.22C1064.28 1462.65 1070.37 1463.27 1078.48 1464.1C1083.32 1464.6 1088.87 1465.17 1094.28 1468.14C1098.82 1470.63 1103.16 1474.15 1106.99 1477.25Z" fill="url(#paint26_linear_233_1229)"/>
<path fill-rule="evenodd" clip-rule="evenodd" d="M1302 1358L1165.29 1425.64L1165 1597.5L1302.08 1521.43L1302 1358ZM1232.28 1501.73C1217.78 1509.74 1205.28 1500.57 1205.28 1482.22C1205.28 1463.87 1215.28 1443.31 1232.28 1435.26C1249.28 1427.22 1262.28 1438.62 1262.28 1456.98C1262.28 1475.33 1246.78 1493.71 1232.28 1501.73Z" fill="url(#paint27_linear_233_1229)"/>
<path d="M1089.71 1476.47C1092.58 1478.05 1095.55 1480.26 1098.7 1482.77C1099.34 1483.28 1100.02 1483.83 1100.72 1484.4C1103.09 1486.32 1105.69 1488.42 1107.92 1489.93C1109.4 1490.93 1111.36 1492.11 1113.56 1492.84C1115.73 1493.57 1119.51 1494.29 1123.42 1492.3C1127.35 1490.3 1129.06 1486.75 1129.81 1484.26C1130.57 1481.74 1130.79 1478.98 1130.79 1476.3C1130.79 1455.35 1119.45 1430.99 1098.33 1421.05C1087.24 1415.84 1075.84 1416.4 1067.14 1423.06C1058.8 1429.43 1054.79 1440.01 1054.79 1451.22C1054.79 1456.95 1055.98 1462.58 1059.95 1466.88C1063.83 1471.08 1068.86 1472.33 1072.27 1472.9C1074.02 1473.19 1075.83 1473.38 1077.36 1473.54L1077.45 1473.55C1079.1 1473.72 1080.57 1473.87 1082.04 1474.09C1084.93 1474.54 1087.42 1475.21 1089.71 1476.47Z" stroke="url(#paint28_linear_233_1229)" stroke-width="19"/>
<path d="M1236.88 1510.04C1227.17 1515.41 1216.33 1515.77 1207.77 1509.55C1199.6 1503.62 1195.79 1493.34 1195.79 1482.22C1195.79 1461.19 1207.09 1436.68 1228.22 1426.68C1239.32 1421.42 1250.75 1421.98 1259.46 1428.69C1267.78 1435.11 1271.79 1445.73 1271.79 1456.98C1271.79 1468.76 1266.86 1479.86 1260.43 1488.78C1253.97 1497.75 1245.43 1505.32 1236.88 1510.04Z" stroke="url(#paint29_linear_233_1229)" stroke-width="19"/>
<defs>
<radialGradient id="paint0_radial_233_1229" cx="0" cy="0" r="1" gradientUnits="userSpaceOnUse" gradientTransform="translate(610.12 536.377) rotate(78.9366) scale(51.6849 37.4903)">
<stop stop-color="#666666"/>
<stop offset="1"/>
</radialGradient>
<radialGradient id="paint1_radial_233_1229" cx="0" cy="0" r="1" gradientUnits="userSpaceOnUse" gradientTransform="translate(614.589 564.068) rotate(96.2687) scale(70.609 51.1759)">
<stop stop-opacity="0"/>
<stop offset="0.44" stop-opacity="0.117521"/>
<stop offset="0.605" stop-opacity="0.79"/>
<stop offset="1"/>
</radialGradient>
<radialGradient id="paint2_radial_233_1229" cx="0" cy="0" r="1" gradientUnits="userSpaceOnUse" gradientTransform="translate(469.45 532.637) rotate(78.9366) scale(51.6849 37.4903)">
<stop stop-color="#666666"/>
<stop offset="1"/>
</radialGradient>
<radialGradient id="paint3_radial_233_1229" cx="0" cy="0" r="1" gradientUnits="userSpaceOnUse" gradientTransform="translate(473.919 560.328) rotate(96.2687) scale(70.609 51.1759)">
<stop stop-opacity="0"/>
<stop offset="0.44" stop-opacity="0.117521"/>
<stop offset="0.605" stop-opacity="0.79"/>
<stop offset="1"/>
</radialGradient>
<linearGradient id="paint4_linear_233_1229" x1="655.824" y1="284.59" x2="361.002" y2="393.616" gradientUnits="userSpaceOnUse">
<stop stop-color="#8DEAFF"/>
<stop offset="1" stop-color="#3A88FD"/>
</linearGradient>
<linearGradient id="paint5_linear_233_1229" x1="536.692" y1="351.615" x2="506.675" y2="689.857" gradientUnits="userSpaceOnUse">
<stop stop-color="#8DEAFF"/>
<stop offset="1" stop-color="#3A88FD"/>
</linearGradient>
<linearGradient id="paint6_linear_233_1229" x1="373.206" y1="329.793" x2="510.516" y2="699.227" gradientUnits="userSpaceOnUse">
<stop stop-color="#8DEAFF"/>
<stop offset="1" stop-color="#3A88FD"/>
</linearGradient>
<linearGradient id="paint7_linear_233_1229" x1="435.343" y1="296.594" x2="450.927" y2="701.382" gradientUnits="userSpaceOnUse">
<stop stop-color="#8DEAFF"/>
<stop offset="1" stop-color="#3A88FD"/>
</linearGradient>
<linearGradient id="paint8_linear_233_1229" x1="525.207" y1="609.487" x2="494.948" y2="499.993" gradientUnits="userSpaceOnUse">
<stop stop-color="#8DEAFF"/>
<stop offset="1" stop-color="#3A88FD"/>
</linearGradient>
<linearGradient id="paint9_linear_233_1229" x1="664.207" y1="602.986" x2="621.849" y2="519.136" gradientUnits="userSpaceOnUse">
<stop stop-color="#8DEAFF"/>
<stop offset="1" stop-color="#3A88FD"/>
</linearGradient>
<radialGradient id="paint10_radial_233_1229" cx="0" cy="0" r="1" gradientUnits="userSpaceOnUse" gradientTransform="translate(1610.3 547.229) rotate(77.1559) scale(44.2109 36.9061)">
<stop stop-color="#666666"/>
<stop offset="1"/>
</radialGradient>
<radialGradient id="paint11_radial_233_1229" cx="0" cy="0" r="1" gradientUnits="userSpaceOnUse" gradientTransform="translate(1614.72 570.76) rotate(97.2994) scale(60.1309 50.6027)">
<stop stop-opacity="0"/>
<stop offset="0.44" stop-opacity="0.117521"/>
<stop offset="0.605" stop-opacity="0.79"/>
<stop offset="1"/>
</radialGradient>
<radialGradient id="paint12_radial_233_1229" cx="0" cy="0" r="1" gradientUnits="userSpaceOnUse" gradientTransform="translate(1753.3 555.229) rotate(77.1559) scale(44.2109 36.9061)">
<stop stop-color="#666666"/>
<stop offset="1"/>
</radialGradient>
<radialGradient id="paint13_radial_233_1229" cx="0" cy="0" r="1" gradientUnits="userSpaceOnUse" gradientTransform="translate(1757.73 578.76) rotate(97.2994) scale(60.1309 50.6027)">
<stop stop-opacity="0"/>
<stop offset="0.44" stop-opacity="0.117521"/>
<stop offset="0.605" stop-opacity="0.79"/>
<stop offset="1"/>
</radialGradient>
<linearGradient id="paint14_linear_233_1229" x1="1681.24" y1="307.723" x2="1418.22" y2="154.152" gradientUnits="userSpaceOnUse">
<stop stop-color="#F0EB79"/>
<stop offset="1" stop-color="#1396A8"/>
</linearGradient>
<linearGradient id="paint15_linear_233_1229" x1="1675.04" y1="356.628" x2="1645.03" y2="694.87" gradientUnits="userSpaceOnUse">
<stop stop-color="#F0EB79"/>
<stop offset="1" stop-color="#1396A8"/>
</linearGradient>
<linearGradient id="paint16_linear_233_1229" x1="1511.53" y1="334.667" x2="1649.38" y2="703.802" gradientUnits="userSpaceOnUse">
<stop stop-color="#F0EB79"/>
<stop offset="1" stop-color="#1396A8"/>
</linearGradient>
<linearGradient id="paint17_linear_233_1229" x1="1572.9" y1="301.594" x2="1588.43" y2="706.385" gradientUnits="userSpaceOnUse">
<stop stop-color="#F0EB79"/>
<stop offset="1" stop-color="#1396A8"/>
</linearGradient>
<linearGradient id="paint18_linear_233_1229" x1="1802.56" y1="608" x2="1760.2" y2="524.15" gradientUnits="userSpaceOnUse">
<stop stop-color="#F0EB79"/>
<stop offset="1" stop-color="#1396A8"/>
</linearGradient>
<linearGradient id="paint19_linear_233_1229" x1="1663.55" y1="614.5" x2="1633.3" y2="505.007" gradientUnits="userSpaceOnUse">
<stop stop-color="#F0EB79"/>
<stop offset="1" stop-color="#1396A8"/>
</linearGradient>
<radialGradient id="paint20_radial_233_1229" cx="0" cy="0" r="1" gradientUnits="userSpaceOnUse" gradientTransform="translate(1093.2 1423.03) rotate(78.9366) scale(51.6849 37.4903)">
<stop stop-color="#666666"/>
<stop offset="1"/>
</radialGradient>
<radialGradient id="paint21_radial_233_1229" cx="0" cy="0" r="1" gradientUnits="userSpaceOnUse" gradientTransform="translate(1097.67 1450.72) rotate(96.2687) scale(70.609 51.1759)">
<stop stop-opacity="0"/>
<stop offset="0.44" stop-opacity="0.117521"/>
<stop offset="0.605" stop-opacity="0.79"/>
<stop offset="1"/>
</radialGradient>
<radialGradient id="paint22_radial_233_1229" cx="0" cy="0" r="1" gradientUnits="userSpaceOnUse" gradientTransform="translate(1232.2 1441.03) rotate(78.9366) scale(51.6849 37.4903)">
<stop stop-color="#666666"/>
<stop offset="1"/>
</radialGradient>
<radialGradient id="paint23_radial_233_1229" cx="0" cy="0" r="1" gradientUnits="userSpaceOnUse" gradientTransform="translate(1236.67 1468.72) rotate(96.2687) scale(70.609 51.1759)">
<stop stop-opacity="0"/>
<stop offset="0.44" stop-opacity="0.117521"/>
<stop offset="0.605" stop-opacity="0.79"/>
<stop offset="1"/>
</radialGradient>
<linearGradient id="paint24_linear_233_1229" x1="1220.49" y1="1255.08" x2="1465.56" y2="1451.93" gradientUnits="userSpaceOnUse">
<stop stop-color="#FABB40"/>
<stop offset="1" stop-color="#D00466"/>
</linearGradient>
<linearGradient id="paint25_linear_233_1229" x1="1140.77" y1="1256.27" x2="1110.75" y2="1594.51" gradientUnits="userSpaceOnUse">
<stop stop-color="#FABB40"/>
<stop offset="1" stop-color="#D00466"/>
</linearGradient>
<linearGradient id="paint26_linear_233_1229" x1="977.511" y1="1233.67" x2="1115.68" y2="1602.53" gradientUnits="userSpaceOnUse">
<stop stop-color="#FABB40"/>
<stop offset="1" stop-color="#D00466"/>
</linearGradient>
<linearGradient id="paint27_linear_233_1229" x1="1038.87" y1="1200.6" x2="1054.42" y2="1605.39" gradientUnits="userSpaceOnUse">
<stop stop-color="#FABB40"/>
<stop offset="1" stop-color="#D00466"/>
</linearGradient>
<linearGradient id="paint28_linear_233_1229" x1="1129.29" y1="1514.14" x2="1099.03" y2="1404.65" gradientUnits="userSpaceOnUse">
<stop stop-color="#FABB40"/>
<stop offset="1" stop-color="#D00466"/>
</linearGradient>
<linearGradient id="paint29_linear_233_1229" x1="1268.29" y1="1507.64" x2="1225.93" y2="1423.79" gradientUnits="userSpaceOnUse">
<stop stop-color="#FABB40"/>
<stop offset="1" stop-color="#D00466"/>
</linearGradient>
</defs>
</svg>
