<svg xmlns="http://www.w3.org/2000/svg" viewBox="0 0 480 192"><g><circle class="surface" cx="80" cy="80" r="64"></circle><line class="light-stroke" x1="74.343" y1="85.657" x2="40.402" y2="119.598" stroke-linecap="round" style="stroke-width: 1.25"></line><line class="light-stroke" x1="85.657" y1="85.657" x2="119.598" y2="119.598" stroke-linecap="round" style="stroke-width: 1.25"></line><line class="light-stroke" x1="85.657" y1="74.343" x2="119.598" y2="40.402" stroke-linecap="round" style="stroke-width: 1.25"></line><line class="light-stroke" x1="74.343" y1="74.343" x2="40.402" y2="40.402" stroke-linecap="round" style="stroke-width: 1.25"></line><circle class="text" cx="80" cy="80" r="4"></circle><text class="text" x="80" y="170" text-anchor="middle"> 4 rays </text><text class="muted mono small" x="80" y="188" text-anchor="middle"> baseStoredRayDim: 1 </text></g><g><circle class="surface" cx="240" cy="80" r="64"></circle><line class="light-stroke" x1="232.154" y1="81.561" x2="185.076" y2="90.925" stroke-linecap="round" style="stroke-width: 1.25"></line><line class="light-stroke" x1="233.348" y1="84.445" x2="193.438" y2="111.112" stroke-linecap="round" style="stroke-width: 1.25"></line><line class="light-stroke" x1="235.555" y1="86.652" x2="208.888" y2="126.562" stroke-linecap="round" style="stroke-width: 1.25"></line><line class="light-stroke" x1="238.439" y1="87.846" x2="229.075" y2="134.924" stroke-linecap="round" style="stroke-width: 1.25"></line><line class="light-stroke" x1="241.561" y1="87.846" x2="250.925" y2="134.924" stroke-linecap="round" style="stroke-width: 1.25"></line><line class="light-stroke" x1="244.445" y1="86.652" x2="271.112" y2="126.562" stroke-linecap="round" style="stroke-width: 1.25"></line><line class="light-stroke" x1="246.652" y1="84.445" x2="286.562" y2="111.112" stroke-linecap="round" style="stroke-width: 1.25"></line><line class="light-stroke" x1="247.846" y1="81.561" x2="294.924" y2="90.925" stroke-linecap="round" style="stroke-width: 1.25"></line><line class="light-stroke" x1="247.846" y1="78.439" x2="294.924" y2="69.075" stroke-linecap="round" style="stroke-width: 1.25"></line><line class="light-stroke" x1="246.652" y1="75.555" x2="286.562" y2="48.888" stroke-linecap="round" style="stroke-width: 1.25"></line><line class="light-stroke" x1="244.445" y1="73.348" x2="271.112" y2="33.438" stroke-linecap="round" style="stroke-width: 1.25"></line><line class="light-stroke" x1="241.561" y1="72.154" x2="250.925" y2="25.076" stroke-linecap="round" style="stroke-width: 1.25"></line><line class="light-stroke" x1="238.439" y1="72.154" x2="229.075" y2="25.076" stroke-linecap="round" style="stroke-width: 1.25"></line><line class="light-stroke" x1="235.555" y1="73.348" x2="208.888" y2="33.438" stroke-linecap="round" style="stroke-width: 1.25"></line><line class="light-stroke" x1="233.348" y1="75.555" x2="193.438" y2="48.888" stroke-linecap="round" style="stroke-width: 1.25"></line><line class="light-stroke" x1="232.154" y1="78.439" x2="185.076" y2="69.075" stroke-linecap="round" style="stroke-width: 1.25"></line><circle class="text" cx="240" cy="80" r="4"></circle><text class="text" x="240" y="170" text-anchor="middle"> 16 rays </text><text class="muted mono small" x="240" y="188" text-anchor="middle"> baseStoredRayDim: 2 </text></g><g><circle class="surface" cx="400" cy="80" r="64"></circle><line class="light-stroke" x1="392.01" y1="80.393" x2="344.067" y2="82.748" stroke-linecap="round" style="stroke-width: 1.25"></line><line class="light-stroke" x1="392.087" y1="81.174" x2="344.606" y2="88.217" stroke-linecap="round" style="stroke-width: 1.25"></line><line class="light-stroke" x1="392.24" y1="81.944" x2="345.678" y2="93.607" stroke-linecap="round" style="stroke-width: 1.25"></line><line class="light-stroke" x1="392.468" y1="82.695" x2="347.274" y2="98.866" stroke-linecap="round" style="stroke-width: 1.25"></line><line class="light-stroke" x1="392.768" y1="83.42" x2="349.377" y2="103.943" stroke-linecap="round" style="stroke-width: 1.25"></line><line class="light-stroke" x1="393.138" y1="84.113" x2="351.967" y2="108.79" stroke-linecap="round" style="stroke-width: 1.25"></line><line class="light-stroke" x1="393.574" y1="84.766" x2="355.02" y2="113.359" stroke-linecap="round" style="stroke-width: 1.25"></line><line class="light-stroke" x1="394.072" y1="85.372" x2="358.507" y2="117.607" stroke-linecap="round" style="stroke-width: 1.25"></line><line class="light-stroke" x1="394.628" y1="85.928" x2="362.393" y2="121.493" stroke-linecap="round" style="stroke-width: 1.25"></line><line class="light-stroke" x1="395.234" y1="86.426" x2="366.641" y2="124.98" stroke-linecap="round" style="stroke-width: 1.25"></line><line class="light-stroke" x1="395.887" y1="86.862" x2="371.21" y2="128.033" stroke-linecap="round" style="stroke-width: 1.25"></line><line class="light-stroke" x1="396.58" y1="87.232" x2="376.057" y2="130.623" stroke-linecap="round" style="stroke-width: 1.25"></line><line class="light-stroke" x1="397.305" y1="87.532" x2="381.134" y2="132.726" stroke-linecap="round" style="stroke-width: 1.25"></line><line class="light-stroke" x1="398.056" y1="87.76" x2="386.393" y2="134.322" stroke-linecap="round" style="stroke-width: 1.25"></line><line class="light-stroke" x1="398.826" y1="87.913" x2="391.783" y2="135.394" stroke-linecap="round" style="stroke-width: 1.25"></line><line class="light-stroke" x1="399.607" y1="87.99" x2="397.252" y2="135.933" stroke-linecap="round" style="stroke-width: 1.25"></line><line class="light-stroke" x1="400.393" y1="87.99" x2="402.748" y2="135.933" stroke-linecap="round" style="stroke-width: 1.25"></line><line class="light-stroke" x1="401.174" y1="87.913" x2="408.217" y2="135.394" stroke-linecap="round" style="stroke-width: 1.25"></line><line class="light-stroke" x1="401.944" y1="87.76" x2="413.607" y2="134.322" stroke-linecap="round" style="stroke-width: 1.25"></line><line class="light-stroke" x1="402.695" y1="87.532" x2="418.866" y2="132.726" stroke-linecap="round" style="stroke-width: 1.25"></line><line class="light-stroke" x1="403.42" y1="87.232" x2="423.943" y2="130.623" stroke-linecap="round" style="stroke-width: 1.25"></line><line class="light-stroke" x1="404.113" y1="86.862" x2="428.79" y2="128.033" stroke-linecap="round" style="stroke-width: 1.25"></line><line class="light-stroke" x1="404.766" y1="86.426" x2="433.359" y2="124.98" stroke-linecap="round" style="stroke-width: 1.25"></line><line class="light-stroke" x1="405.372" y1="85.928" x2="437.607" y2="121.493" stroke-linecap="round" style="stroke-width: 1.25"></line><line class="light-stroke" x1="405.928" y1="85.372" x2="441.493" y2="117.607" stroke-linecap="round" style="stroke-width: 1.25"></line><line class="light-stroke" x1="406.426" y1="84.766" x2="444.98" y2="113.359" stroke-linecap="round" style="stroke-width: 1.25"></line><line class="light-stroke" x1="406.862" y1="84.113" x2="448.033" y2="108.79" stroke-linecap="round" style="stroke-width: 1.25"></line><line class="light-stroke" x1="407.232" y1="83.42" x2="450.623" y2="103.943" stroke-linecap="round" style="stroke-width: 1.25"></line><line class="light-stroke" x1="407.532" y1="82.695" x2="452.726" y2="98.866" stroke-linecap="round" style="stroke-width: 1.25"></line><line class="light-stroke" x1="407.76" y1="81.944" x2="454.322" y2="93.607" stroke-linecap="round" style="stroke-width: 1.25"></line><line class="light-stroke" x1="407.913" y1="81.174" x2="455.394" y2="88.217" stroke-linecap="round" style="stroke-width: 1.25"></line><line class="light-stroke" x1="407.99" y1="80.393" x2="455.933" y2="82.748" stroke-linecap="round" style="stroke-width: 1.25"></line><line class="light-stroke" x1="407.99" y1="79.607" x2="455.933" y2="77.252" stroke-linecap="round" style="stroke-width: 1.25"></line><line class="light-stroke" x1="407.913" y1="78.826" x2="455.394" y2="71.783" stroke-linecap="round" style="stroke-width: 1.25"></line><line class="light-stroke" x1="407.76" y1="78.056" x2="454.322" y2="66.393" stroke-linecap="round" style="stroke-width: 1.25"></line><line class="light-stroke" x1="407.532" y1="77.305" x2="452.726" y2="61.134" stroke-linecap="round" style="stroke-width: 1.25"></line><line class="light-stroke" x1="407.232" y1="76.58" x2="450.623" y2="56.057" stroke-linecap="round" style="stroke-width: 1.25"></line><line class="light-stroke" x1="406.862" y1="75.887" x2="448.033" y2="51.21" stroke-linecap="round" style="stroke-width: 1.25"></line><line class="light-stroke" x1="406.426" y1="75.234" x2="444.98" y2="46.641" stroke-linecap="round" style="stroke-width: 1.25"></line><line class="light-stroke" x1="405.928" y1="74.628" x2="441.493" y2="42.393" stroke-linecap="round" style="stroke-width: 1.25"></line><line class="light-stroke" x1="405.372" y1="74.072" x2="437.607" y2="38.507" stroke-linecap="round" style="stroke-width: 1.25"></line><line class="light-stroke" x1="404.766" y1="73.574" x2="433.359" y2="35.02" stroke-linecap="round" style="stroke-width: 1.25"></line><line class="light-stroke" x1="404.113" y1="73.138" x2="428.79" y2="31.967" stroke-linecap="round" style="stroke-width: 1.25"></line><line class="light-stroke" x1="403.42" y1="72.768" x2="423.943" y2="29.377" stroke-linecap="round" style="stroke-width: 1.25"></line><line class="light-stroke" x1="402.695" y1="72.468" x2="418.866" y2="27.274" stroke-linecap="round" style="stroke-width: 1.25"></line><line class="light-stroke" x1="401.944" y1="72.24" x2="413.607" y2="25.678" stroke-linecap="round" style="stroke-width: 1.25"></line><line class="light-stroke" x1="401.174" y1="72.087" x2="408.217" y2="24.606" stroke-linecap="round" style="stroke-width: 1.25"></line><line class="light-stroke" x1="400.393" y1="72.01" x2="402.748" y2="24.067" stroke-linecap="round" style="stroke-width: 1.25"></line><line class="light-stroke" x1="399.607" y1="72.01" x2="397.252" y2="24.067" stroke-linecap="round" style="stroke-width: 1.25"></line><line class="light-stroke" x1="398.826" y1="72.087" x2="391.783" y2="24.606" stroke-linecap="round" style="stroke-width: 1.25"></line><line class="light-stroke" x1="398.056" y1="72.24" x2="386.393" y2="25.678" stroke-linecap="round" style="stroke-width: 1.25"></line><line class="light-stroke" x1="397.305" y1="72.468" x2="381.134" y2="27.274" stroke-linecap="round" style="stroke-width: 1.25"></line><line class="light-stroke" x1="396.58" y1="72.768" x2="376.057" y2="29.377" stroke-linecap="round" style="stroke-width: 1.25"></line><line class="light-stroke" x1="395.887" y1="73.138" x2="371.21" y2="31.967" stroke-linecap="round" style="stroke-width: 1.25"></line><line class="light-stroke" x1="395.234" y1="73.574" x2="366.641" y2="35.02" stroke-linecap="round" style="stroke-width: 1.25"></line><line class="light-stroke" x1="394.628" y1="74.072" x2="362.393" y2="38.507" stroke-linecap="round" style="stroke-width: 1.25"></line><line class="light-stroke" x1="394.072" y1="74.628" x2="358.507" y2="42.393" stroke-linecap="round" style="stroke-width: 1.25"></line><line class="light-stroke" x1="393.574" y1="75.234" x2="355.02" y2="46.641" stroke-linecap="round" style="stroke-width: 1.25"></line><line class="light-stroke" x1="393.138" y1="75.887" x2="351.967" y2="51.21" stroke-linecap="round" style="stroke-width: 1.25"></line><line class="light-stroke" x1="392.768" y1="76.58" x2="349.377" y2="56.057" stroke-linecap="round" style="stroke-width: 1.25"></line><line class="light-stroke" x1="392.468" y1="77.305" x2="347.274" y2="61.134" stroke-linecap="round" style="stroke-width: 1.25"></line><line class="light-stroke" x1="392.24" y1="78.056" x2="345.678" y2="66.393" stroke-linecap="round" style="stroke-width: 1.25"></line><line class="light-stroke" x1="392.087" y1="78.826" x2="344.606" y2="71.783" stroke-linecap="round" style="stroke-width: 1.25"></line><line class="light-stroke" x1="392.01" y1="79.607" x2="344.067" y2="77.252" stroke-linecap="round" style="stroke-width: 1.25"></line><circle class="text" cx="400" cy="80" r="4"></circle><text class="text" x="400" y="170" text-anchor="middle"> 64 rays </text><text class="muted mono small" x="400" y="188" text-anchor="middle"> baseStoredRayDim: 4 </text></g></svg>
