<svg xmlns="http://www.w3.org/2000/svg" viewBox="0 0 480 236"><g><text class="muted small" x="16" y="30"> 1 px </text><g><rect rx="4" class="surface" x="74.5" y="16" width="20" height="20"></rect><rect rx="4" class="surface" x="97.5" y="16" width="20" height="20"></rect><line class="light-stroke" x1="84.5" x2="107.5" y1="26" y2="26"></line><circle class="light" cx="84.5" cy="26" r="3"></circle><circle class="light" cx="107.5" cy="26" r="3"></circle></g></g><g><text class="muted small" x="16" y="64"> 2 px </text><g><rect rx="4" class="surface" x="74.5" y="50" width="20" height="20"></rect><rect rx="4" class="surface" x="97.5" y="50" width="20" height="20"></rect><rect rx="4" class="surface" x="120.5" y="50" width="20" height="20"></rect><line class="light-stroke" x1="84.5" x2="130.5" y1="60" y2="60"></line><circle class="light" cx="84.5" cy="60" r="3"></circle><circle class="light" cx="107.5" cy="60" r="3"></circle><circle class="light" cx="130.5" cy="60" r="3"></circle></g></g><g><text class="muted small" x="16" y="98"> 4 px </text><g><rect rx="4" class="surface" x="74.5" y="84" width="20" height="20"></rect><rect rx="4" class="surface" x="97.5" y="84" width="20" height="20"></rect><rect rx="4" class="surface" x="120.5" y="84" width="20" height="20"></rect><rect rx="4" class="surface" x="143.5" y="84" width="20" height="20"></rect><rect rx="4" class="surface" x="166.5" y="84" width="20" height="20"></rect><line class="light-stroke" x1="84.5" x2="176.5" y1="94" y2="94"></line><circle class="light" cx="84.5" cy="94" r="3"></circle><circle class="light" cx="107.5" cy="94" r="3"></circle><circle class="light" cx="130.5" cy="94" r="3"></circle><circle class="light" cx="153.5" cy="94" r="3"></circle><circle class="light" cx="176.5" cy="94" r="3"></circle></g></g><g><text class="muted small" x="16" y="150"> 8 px </text><g><rect rx="4" class="surface" x="74.5" y="136" width="204" height="20"></rect><line class="light-stroke" x1="84.5" x2="268.5" y1="146" y2="146" stroke-linecap="round"></line><circle class="accent" cx="176.5" cy="146" r="4.5"></circle></g></g><g><text class="muted small" x="16" y="184"> 16 px </text><g><rect rx="4" class="surface" x="74.5" y="170" width="388" height="20"></rect><line class="light-stroke" x1="84.5" x2="452.5" y1="180" y2="180" stroke-linecap="round"></line><circle class="accent" cx="176.5" cy="180" r="3"></circle><circle class="accent" cx="268.5" cy="180" r="4.5"></circle><circle class="accent" cx="360.5" cy="180" r="3"></circle></g></g><line class="guide" x1="16" x2="335" y1="120" y2="120"></line><text class="text mono" x="464" y="124.5" text-anchor="end">tracedLevels: 3</text><g><g><rect rx="3.2" class="surface" x="90" y="208" width="16" height="16"></rect><circle class="light" cx="98" cy="216" r="3"></circle></g><text class="muted small" x="114" y="220"> pixel read </text></g><g><circle class="accent" cx="202" cy="216" r="4.5"></circle><text class="muted small" x="218" y="220"> join of two shorter intervals </text></g></svg>
