<svg width="120" height="120" viewBox="0 0 120 120" fill="none" xmlns="http://www.w3.org/2000/svg">
<g clip-path="url(#clip0_119_2084)">
<path d="M82.9369 14.1066C83.533 12.3865 85.4113 11.475 87.1315 12.071C91.0765 13.438 94.2768 16.383 95.9672 20.2006L117.08 67.8815L117.232 68.2592C117.886 70.0358 117.697 71.9957 116.739 73.6139L116.521 73.9551L89.5438 113.512C88.067 115.677 85.4416 116.699 82.9283 116.248H82.9272L29.632 106.655C27.5587 106.281 25.736 104.935 24.8429 102.958L4.05318 56.9448C1.67016 51.6706 3.03515 45.4578 7.40975 41.6685C8.78574 40.4767 10.8673 40.6254 12.0594 42.0012C13.2513 43.3773 13.1027 45.4599 11.7267 46.6518C9.55648 48.5316 8.87922 51.6134 10.0613 54.2299L30.8167 100.168L84.0947 109.759H84.0937C84.103 109.761 84.1118 109.761 84.1194 109.76C84.1206 109.76 84.1216 109.759 84.1226 109.759L110.976 70.3828L89.9387 22.8693C88.9886 20.7238 87.1897 19.0695 84.9725 18.3013C83.2522 17.7052 82.3408 15.8269 82.9369 14.1066Z" fill="currentColor"/>
<path d="M67.7088 54.4178C69.6852 55.3019 71.376 56.7534 72.3842 58.6694C77.4664 68.3309 76.9902 75.2936 76.4759 87.3848C72.2697 67.2905 62.3727 56.6933 51.2028 47.0362L67.7088 54.4178ZM66.7742 49.0847L43.1891 38.9742C38.7026 37.0675 36.0848 32.3562 36.8365 27.5395L40.7339 3.09387L66.7742 49.0847Z" fill="currentColor"/>
<path d="M79.9313 14.9201C82.4526 10.4854 88.9009 10.7942 91.0247 15.3569L91.1224 15.5768L112.306 65.7269L112.446 66.0885C113.045 67.7909 112.876 69.6685 111.989 71.236L111.788 71.5676L87.137 109.458C85.7551 111.582 83.2274 112.659 80.7393 112.191H80.7383L32.039 103.002C29.999 102.617 28.2811 101.244 27.4581 99.3344L5.71548 48.8904C3.74265 44.3134 7.65278 39.418 12.5027 40.2543L12.7345 40.2983L40.1515 46.0285C41.9334 46.401 43.0756 48.1471 42.7032 49.9291C42.3307 51.7111 40.5846 52.8543 38.8026 52.4819L12.0305 46.8859L33.4394 96.5573L81.7351 105.67L106.161 68.1241L85.3192 18.7821L74.3438 38.0835C73.4438 39.6658 71.4312 40.2195 69.8487 39.3196C68.2663 38.4198 67.7129 36.4071 68.6125 34.8245L79.9313 14.9201Z" fill="currentColor"/>
</g>
<defs>
<clipPath id="clip0_119_2084">
<rect width="120" height="120" fill="white"/>
</clipPath>
</defs>
</svg>
