<svg width="599" height="181" viewBox="0 0 599 181" fill="none" xmlns="http://www.w3.org/2000/svg">
<g clip-path="url(#clip0_53_29)">
<path d="M36.9708 154.02L102.452 162.326L84.9464 107.049L36.7352 67.3457L14.0746 96.4855L36.9708 154.02Z" fill="url(#paint0_linear_53_29)"/>
<path d="M111.99 59.2363L46.639 54.1627L93.2948 92.3878L104.685 162.569L134.167 116.587L111.99 59.2363Z" fill="url(#paint1_linear_53_29)"/>
<path d="M13.2082 29.5841L35.9202 49.1525L23.7101 4.8388L13.2082 29.5841Z" fill="url(#paint2_linear_53_29)"/>
<path d="M212.576 65.088V72.192H194.336V132H185.6V72.192H167.264V65.088H212.576ZM268.642 79.392L236.962 156.768H227.938L238.306 131.424L217.09 79.392H226.786L243.298 122.016L259.618 79.392H268.642ZM286.159 89.088C287.887 86.08 290.447 83.584 293.839 81.6C297.295 79.552 301.295 78.528 305.839 78.528C310.511 78.528 314.735 79.648 318.511 81.888C322.351 84.128 325.359 87.296 327.535 91.392C329.711 95.424 330.799 100.128 330.799 105.504C330.799 110.816 329.711 115.552 327.535 119.712C325.359 123.872 322.351 127.104 318.511 129.408C314.735 131.712 310.511 132.864 305.839 132.864C301.359 132.864 297.391 131.872 293.935 129.888C290.543 127.84 287.951 125.312 286.159 122.304V156.96H277.423V79.392H286.159V89.088ZM321.871 105.504C321.871 101.536 321.071 98.08 319.471 95.136C317.871 92.192 315.695 89.952 312.943 88.416C310.255 86.88 307.279 86.112 304.015 86.112C300.815 86.112 297.839 86.912 295.087 88.512C292.399 90.048 290.223 92.32 288.559 95.328C286.959 98.272 286.159 101.696 286.159 105.6C286.159 109.568 286.959 113.056 288.559 116.064C290.223 119.008 292.399 121.28 295.087 122.88C297.839 124.416 300.815 125.184 304.015 125.184C307.279 125.184 310.255 124.416 312.943 122.88C315.695 121.28 317.871 119.008 319.471 116.064C321.071 113.056 321.871 109.536 321.871 105.504ZM390.298 103.68C390.298 105.344 390.202 107.104 390.01 108.96H347.962C348.282 114.144 350.042 118.208 353.242 121.152C356.506 124.032 360.442 125.472 365.05 125.472C368.826 125.472 371.962 124.608 374.458 122.88C377.018 121.088 378.81 118.72 379.834 115.776H389.242C387.834 120.832 385.018 124.96 380.794 128.16C376.57 131.296 371.322 132.864 365.05 132.864C360.058 132.864 355.578 131.744 351.61 129.504C347.706 127.264 344.634 124.096 342.394 120C340.154 115.84 339.034 111.04 339.034 105.6C339.034 100.16 340.122 95.392 342.298 91.296C344.474 87.2 347.514 84.064 351.418 81.888C355.386 79.648 359.93 78.528 365.05 78.528C370.042 78.528 374.458 79.616 378.298 81.792C382.138 83.968 385.082 86.976 387.13 90.816C389.242 94.592 390.298 98.88 390.298 103.68ZM381.274 101.856C381.274 98.528 380.538 95.68 379.066 93.312C377.594 90.88 375.578 89.056 373.018 87.84C370.522 86.56 367.738 85.92 364.666 85.92C360.25 85.92 356.474 87.328 353.338 90.144C350.266 92.96 348.506 96.864 348.058 101.856H381.274ZM452.518 84.48C450.662 80.576 447.974 77.568 444.454 75.456C440.934 73.28 436.838 72.192 432.166 72.192C427.494 72.192 423.27 73.28 419.494 75.456C415.782 77.568 412.838 80.64 410.662 84.672C408.55 88.64 407.494 93.248 407.494 98.496C407.494 103.744 408.55 108.352 410.662 112.32C412.838 116.288 415.782 119.36 419.494 121.536C423.27 123.648 427.494 124.704 432.166 124.704C438.694 124.704 444.07 122.752 448.294 118.848C452.518 114.944 454.982 109.664 455.686 103.008H428.998V95.904H464.998V102.624C464.486 108.128 462.758 113.184 459.814 117.792C456.87 122.336 452.998 125.952 448.198 128.64C443.398 131.264 438.054 132.576 432.166 132.576C425.958 132.576 420.294 131.136 415.174 128.256C410.054 125.312 405.99 121.248 402.982 116.064C400.038 110.88 398.566 105.024 398.566 98.496C398.566 91.968 400.038 86.112 402.982 80.928C405.99 75.68 410.054 71.616 415.174 68.736C420.294 65.792 425.958 64.32 432.166 64.32C439.27 64.32 445.542 66.08 450.982 69.6C456.486 73.12 460.486 78.08 462.982 84.48H452.518ZM521.284 84.672C521.284 90.24 519.364 94.88 515.524 98.592C511.748 102.24 505.956 104.064 498.148 104.064H485.284V132H476.548V65.088H498.148C505.7 65.088 511.428 66.912 515.332 70.56C519.3 74.208 521.284 78.912 521.284 84.672ZM498.148 96.864C503.012 96.864 506.596 95.808 508.9 93.696C511.204 91.584 512.356 88.576 512.356 84.672C512.356 76.416 507.62 72.288 498.148 72.288H485.284V96.864H498.148ZM540.686 65.088V107.424C540.686 113.376 542.126 117.792 545.006 120.672C547.95 123.552 552.014 124.992 557.198 124.992C562.318 124.992 566.318 123.552 569.198 120.672C572.142 117.792 573.614 113.376 573.614 107.424V65.088H582.35V107.328C582.35 112.896 581.23 117.6 578.99 121.44C576.75 125.216 573.71 128.032 569.87 129.888C566.094 131.744 561.838 132.672 557.102 132.672C552.366 132.672 548.078 131.744 544.238 129.888C540.462 128.032 537.454 125.216 535.214 121.44C533.038 117.6 531.95 112.896 531.95 107.328V65.088H540.686Z" fill="black"/>
</g>
<defs>
<linearGradient id="paint0_linear_53_29" x1="50.9741" y1="59.6025" x2="98.4741" y2="165.103" gradientUnits="userSpaceOnUse">
<stop stop-color="#D48DFF"/>
<stop offset="1" stop-color="#337AE4"/>
</linearGradient>
<linearGradient id="paint1_linear_53_29" x1="50.9741" y1="59.6025" x2="98.4741" y2="165.103" gradientUnits="userSpaceOnUse">
<stop stop-color="#D48DFF"/>
<stop offset="1" stop-color="#337AE4"/>
</linearGradient>
<linearGradient id="paint2_linear_53_29" x1="50.9741" y1="59.6025" x2="98.4741" y2="165.103" gradientUnits="userSpaceOnUse">
<stop stop-color="#D48DFF"/>
<stop offset="1" stop-color="#337AE4"/>
</linearGradient>
<clipPath id="clip0_53_29">
<rect width="599" height="181" fill="white"/>
</clipPath>
</defs>
</svg>
