<svg viewBox="0 0 462 179" fill="none" xmlns="http://www.w3.org/2000/svg">
  <g clip-path="url(#clip0_13_19)">
    <path d="M36.4966 158.918L101.978 167.224L84.4723 111.946L36.2611 72.2431L13.6005 101.383L36.4966 158.918Z"
      fill="url(#paint0_linear_13_19)" />
    <path d="M111.516 64.1338L46.1649 59.0602L92.8207 97.2852L104.211 167.466L133.693 121.484L111.516 64.1338Z"
      fill="url(#paint1_linear_13_19)" />
    <path d="M12.7341 34.4815L35.4461 54.05L23.236 9.73627L12.7341 34.4815Z" fill="url(#paint2_linear_13_19)" />
    <path
      d="M241.472 79.392L225.056 132H216.032L203.36 90.24L190.688 132H181.664L165.152 79.392H174.08L186.176 123.552L199.232 79.392H208.16L220.928 123.648L232.832 79.392H241.472ZM254.654 70.848C252.99 70.848 251.582 70.272 250.43 69.12C249.278 67.968 248.702 66.56 248.702 64.896C248.702 63.232 249.278 61.824 250.43 60.672C251.582 59.52 252.99 58.944 254.654 58.944C256.254 58.944 257.598 59.52 258.686 60.672C259.838 61.824 260.414 63.232 260.414 64.896C260.414 66.56 259.838 67.968 258.686 69.12C257.598 70.272 256.254 70.848 254.654 70.848ZM258.878 79.392V132H250.142V79.392H258.878ZM295.463 78.528C300.007 78.528 303.975 79.52 307.367 81.504C310.823 83.488 313.383 85.984 315.047 88.992V79.392H323.879V133.152C323.879 137.952 322.855 142.208 320.807 145.92C318.759 149.696 315.815 152.64 311.975 154.752C308.199 156.864 303.783 157.92 298.727 157.92C291.815 157.92 286.055 156.288 281.447 153.024C276.839 149.76 274.119 145.312 273.287 139.68H281.927C282.887 142.88 284.871 145.44 287.879 147.36C290.887 149.344 294.503 150.336 298.727 150.336C303.527 150.336 307.431 148.832 310.439 145.824C313.511 142.816 315.047 138.592 315.047 133.152V122.112C313.319 125.184 310.759 127.744 307.367 129.792C303.975 131.84 300.007 132.864 295.463 132.864C290.791 132.864 286.535 131.712 282.695 129.408C278.919 127.104 275.943 123.872 273.767 119.712C271.591 115.552 270.503 110.816 270.503 105.504C270.503 100.128 271.591 95.424 273.767 91.392C275.943 87.296 278.919 84.128 282.695 81.888C286.535 79.648 290.791 78.528 295.463 78.528ZM315.047 105.6C315.047 101.632 314.247 98.176 312.647 95.232C311.047 92.288 308.871 90.048 306.119 88.512C303.431 86.912 300.455 86.112 297.191 86.112C293.927 86.112 290.951 86.88 288.263 88.416C285.575 89.952 283.431 92.192 281.831 95.136C280.231 98.08 279.431 101.536 279.431 105.504C279.431 109.536 280.231 113.056 281.831 116.064C283.431 119.008 285.575 121.28 288.263 122.88C290.951 124.416 293.927 125.184 297.191 125.184C300.455 125.184 303.431 124.416 306.119 122.88C308.871 121.28 311.047 119.008 312.647 116.064C314.247 113.056 315.047 109.568 315.047 105.6ZM357.266 132.864C353.234 132.864 349.618 132.192 346.418 130.848C343.218 129.44 340.69 127.52 338.834 125.088C336.978 122.592 335.954 119.744 335.762 116.544H344.786C345.042 119.168 346.258 121.312 348.434 122.976C350.674 124.64 353.586 125.472 357.17 125.472C360.498 125.472 363.122 124.736 365.042 123.264C366.962 121.792 367.922 119.936 367.922 117.696C367.922 115.392 366.898 113.696 364.85 112.608C362.802 111.456 359.634 110.336 355.346 109.248C351.442 108.224 348.242 107.2 345.746 106.176C343.314 105.088 341.202 103.52 339.41 101.472C337.682 99.36 336.818 96.608 336.818 93.216C336.818 90.528 337.618 88.064 339.218 85.824C340.818 83.584 343.09 81.824 346.034 80.544C348.978 79.2 352.338 78.528 356.114 78.528C361.938 78.528 366.642 80 370.226 82.944C373.81 85.888 375.73 89.92 375.986 95.04H367.25C367.058 92.288 365.938 90.08 363.89 88.416C361.906 86.752 359.218 85.92 355.826 85.92C352.69 85.92 350.194 86.592 348.338 87.936C346.482 89.28 345.554 91.04 345.554 93.216C345.554 94.944 346.098 96.384 347.186 97.536C348.338 98.624 349.746 99.52 351.41 100.224C353.138 100.864 355.506 101.6 358.514 102.432C362.29 103.456 365.362 104.48 367.73 105.504C370.098 106.464 372.114 107.936 373.778 109.92C375.506 111.904 376.402 114.496 376.466 117.696C376.466 120.576 375.666 123.168 374.066 125.472C372.466 127.776 370.194 129.6 367.25 130.944C364.37 132.224 361.042 132.864 357.266 132.864ZM393.31 70.848C391.646 70.848 390.238 70.272 389.086 69.12C387.934 67.968 387.358 66.56 387.358 64.896C387.358 63.232 387.934 61.824 389.086 60.672C390.238 59.52 391.646 58.944 393.31 58.944C394.91 58.944 396.254 59.52 397.342 60.672C398.494 61.824 399.07 63.232 399.07 64.896C399.07 66.56 398.494 67.968 397.342 69.12C396.254 70.272 394.91 70.848 393.31 70.848ZM397.534 79.392V132H388.798V79.392H397.534ZM421.159 60.96V132H412.423V60.96H421.159ZM444.784 60.96V132H436.048V60.96H444.784Z"
      fill="black" />
  </g>
  <defs>
    <linearGradient id="paint0_linear_13_19" x1="50.5" y1="64.5" x2="98" y2="170" gradientUnits="userSpaceOnUse">
      <stop stop-color="#D48DFF" />
      <stop offset="1" stop-color="#337AE4" />
    </linearGradient>
    <linearGradient id="paint1_linear_13_19" x1="50.5" y1="64.5" x2="98" y2="170" gradientUnits="userSpaceOnUse">
      <stop stop-color="#D48DFF" />
      <stop offset="1" stop-color="#337AE4" />
    </linearGradient>
    <linearGradient id="paint2_linear_13_19" x1="50.5" y1="64.5" x2="98" y2="170" gradientUnits="userSpaceOnUse">
      <stop stop-color="#D48DFF" />
      <stop offset="1" stop-color="#337AE4" />
    </linearGradient>
    <clipPath id="clip0_13_19">
      <rect width="462" height="179" fill="white" />
    </clipPath>
  </defs>
</svg>