<svg width="454" height="158" viewBox="0 0 454 158" fill="none" xmlns="http://www.w3.org/2000/svg">
<g clip-path="url(#clip0_5_45)">
<path d="M40.5092 151.75L113 157L85.3904 97.125L29.541 46L10 94.125L40.5092 151.75Z" fill="#D48DFF"/>
<path d="M108.264 44L31 44L92.4628 80.8288L113.365 156L138 101.514L108.264 44Z" fill="#D48DFF"/>
<path d="M5 27.0976L26 43L13.1802 0L5 27.0976Z" fill="#D48DFF"/>
<path d="M243.472 74.392L227.056 127H218.032L205.36 85.24L192.688 127H183.664L167.152 74.392H176.08L188.176 118.552L201.232 74.392H210.16L222.928 118.648L234.832 74.392H243.472ZM256.654 65.848C254.99 65.848 253.582 65.272 252.43 64.12C251.278 62.968 250.702 61.56 250.702 59.896C250.702 58.232 251.278 56.824 252.43 55.672C253.582 54.52 254.99 53.944 256.654 53.944C258.254 53.944 259.598 54.52 260.686 55.672C261.838 56.824 262.414 58.232 262.414 59.896C262.414 61.56 261.838 62.968 260.686 64.12C259.598 65.272 258.254 65.848 256.654 65.848ZM260.878 74.392V127H252.142V74.392H260.878ZM297.463 73.528C302.007 73.528 305.975 74.52 309.367 76.504C312.823 78.488 315.383 80.984 317.047 83.992V74.392H325.879V128.152C325.879 132.952 324.855 137.208 322.807 140.92C320.759 144.696 317.815 147.64 313.975 149.752C310.199 151.864 305.783 152.92 300.727 152.92C293.815 152.92 288.055 151.288 283.447 148.024C278.839 144.76 276.119 140.312 275.287 134.68H283.927C284.887 137.88 286.871 140.44 289.879 142.36C292.887 144.344 296.503 145.336 300.727 145.336C305.527 145.336 309.431 143.832 312.439 140.824C315.511 137.816 317.047 133.592 317.047 128.152V117.112C315.319 120.184 312.759 122.744 309.367 124.792C305.975 126.84 302.007 127.864 297.463 127.864C292.791 127.864 288.535 126.712 284.695 124.408C280.919 122.104 277.943 118.872 275.767 114.712C273.591 110.552 272.503 105.816 272.503 100.504C272.503 95.128 273.591 90.424 275.767 86.392C277.943 82.296 280.919 79.128 284.695 76.888C288.535 74.648 292.791 73.528 297.463 73.528ZM317.047 100.6C317.047 96.632 316.247 93.176 314.647 90.232C313.047 87.288 310.871 85.048 308.119 83.512C305.431 81.912 302.455 81.112 299.191 81.112C295.927 81.112 292.951 81.88 290.263 83.416C287.575 84.952 285.431 87.192 283.831 90.136C282.231 93.08 281.431 96.536 281.431 100.504C281.431 104.536 282.231 108.056 283.831 111.064C285.431 114.008 287.575 116.28 290.263 117.88C292.951 119.416 295.927 120.184 299.191 120.184C302.455 120.184 305.431 119.416 308.119 117.88C310.871 116.28 313.047 114.008 314.647 111.064C316.247 108.056 317.047 104.568 317.047 100.6ZM359.266 127.864C355.234 127.864 351.618 127.192 348.418 125.848C345.218 124.44 342.69 122.52 340.834 120.088C338.978 117.592 337.954 114.744 337.762 111.544H346.786C347.042 114.168 348.258 116.312 350.434 117.976C352.674 119.64 355.586 120.472 359.17 120.472C362.498 120.472 365.122 119.736 367.042 118.264C368.962 116.792 369.922 114.936 369.922 112.696C369.922 110.392 368.898 108.696 366.85 107.608C364.802 106.456 361.634 105.336 357.346 104.248C353.442 103.224 350.242 102.2 347.746 101.176C345.314 100.088 343.202 98.52 341.41 96.472C339.682 94.36 338.818 91.608 338.818 88.216C338.818 85.528 339.618 83.064 341.218 80.824C342.818 78.584 345.09 76.824 348.034 75.544C350.978 74.2 354.338 73.528 358.114 73.528C363.938 73.528 368.642 75 372.226 77.944C375.81 80.888 377.73 84.92 377.986 90.04H369.25C369.058 87.288 367.938 85.08 365.89 83.416C363.906 81.752 361.218 80.92 357.826 80.92C354.69 80.92 352.194 81.592 350.338 82.936C348.482 84.28 347.554 86.04 347.554 88.216C347.554 89.944 348.098 91.384 349.186 92.536C350.338 93.624 351.746 94.52 353.41 95.224C355.138 95.864 357.506 96.6 360.514 97.432C364.29 98.456 367.362 99.48 369.73 100.504C372.098 101.464 374.114 102.936 375.778 104.92C377.506 106.904 378.402 109.496 378.466 112.696C378.466 115.576 377.666 118.168 376.066 120.472C374.466 122.776 372.194 124.6 369.25 125.944C366.37 127.224 363.042 127.864 359.266 127.864ZM395.31 65.848C393.646 65.848 392.238 65.272 391.086 64.12C389.934 62.968 389.358 61.56 389.358 59.896C389.358 58.232 389.934 56.824 391.086 55.672C392.238 54.52 393.646 53.944 395.31 53.944C396.91 53.944 398.254 54.52 399.342 55.672C400.494 56.824 401.07 58.232 401.07 59.896C401.07 61.56 400.494 62.968 399.342 64.12C398.254 65.272 396.91 65.848 395.31 65.848ZM399.534 74.392V127H390.798V74.392H399.534ZM423.159 55.96V127H414.423V55.96H423.159ZM446.784 55.96V127H438.048V55.96H446.784Z" fill="white"/>
</g>
<defs>
<clipPath id="clip0_5_45">
<rect width="454" height="158" fill="white"/>
</clipPath>
</defs>
</svg>
