<svg version="1.1" xmlns="http://www.w3.org/2000/svg" xmlns:xlink="http://www.w3.org/1999/xlink" width="1200" height="800"><defs/><g transform="scale(2,2)"><g id="background-5f60792d"><rect fill="white" stroke="none" x="0" y="0" width="600" height="400" class="dcg-svg-background"/></g><g id="graphpaper-5f60792d"><g id="axis-5f60792d"><g><g><path fill="none" stroke="rgb(0,0,0)" class="dcg-svg-tickmark" paint-order="fill stroke markers" d="" stroke-opacity="0.9" stroke-miterlimit="2" stroke-width="1.5" stroke-dasharray=""/></g></g></g></g><g id="expressions-5f60792d"><g id="sketch-5f60792d"><title>Expression 7</title><path fill="#000000" stroke="none" paint-order="stroke fill markers" d="" fill-opacity="0.4"/><g><path fill="none" stroke="#000000" class="dcg-svg-curve" paint-order="fill stroke markers" d=" M 168.68582613370268 199.7449264653233 A 52.57601434197747 52.576014341977384 0 1 1 168.6857998456977 199.69235045974395" stroke-linecap="round" stroke-linejoin="round" stroke-miterlimit="10" stroke-width="2.5" stroke-opacity="0.3" stroke-dasharray="11,7"/></g></g><g id="sketch-5f60792d"><title>Expression 8</title><path fill="#000000" stroke="none" paint-order="stroke fill markers" d="" fill-opacity="0.4"/><g><path fill="none" stroke="#000000" class="dcg-svg-curve" paint-order="fill stroke markers" d=" M 532.5118453801867 198.3428994162039 A 105.15202868395494 105.15202868395477 0 1 1 532.5117928041768 198.2377474050452" stroke-linecap="round" stroke-linejoin="round" stroke-miterlimit="10" stroke-width="2.5" stroke-opacity="0.3" stroke-dasharray="11,7"/></g></g><g id="sketch-5f60792d"><title>Expression 9</title><path fill="#000000" stroke="none" paint-order="stroke fill markers" d="" fill-opacity="0.4"/><g><path fill="none" stroke="#000000" class="dcg-svg-curve" paint-order="fill stroke markers" d=" M -2.5 167.2383725200889 L 8.333453004122235 165.33146507412437 M 15.227468552200023 164.1179785176015 L 26.06092155632226 162.21107107163698 M 32.954937104400045 160.9975845151141 L 43.78839010852228 159.0906770691496 M 50.68240565660007 157.87719051262673 L 61.5158586607223 155.9702830666622 M 68.40987420880009 154.75679651013934 L 79.24332721292232 152.84988906417482 M 86.13734276100011 151.63640250765195 L 96.97079576512235 149.72949506168743 M 103.86481131320014 148.51600850516456 L 114.69826431732237 146.60910105920004 M 121.59227986540016 145.39561450267718 L 132.4257328695224 143.48870705671266 M 139.31974841760018 142.2752205001898 L 150.15320142172243 140.36831305422527 M 157.04721696980022 139.1548264977024 L 167.88066997392247 137.24791905173788 M 174.77468552200025 136.03443249521501 L 185.6081385261225 134.1275250492505 M 192.5021540742003 132.91403849272763 L 203.33560707832254 131.0071310467631 M 210.22962262640033 129.79364449024024 L 221.06307563052258 127.88673704427573 M 227.95709117860036 126.67325048775287 L 238.7905441827226 124.76634304178836 M 245.6845597308004 123.5528564852655 L 256.51801273492265 121.64594903930099 M 263.41202828300044 120.43246248277812 L 274.2454812871227 118.52555503681361 M 281.1394968352005 117.31206848029075 L 291.9729498393227 115.40516103432624 M 298.8669653874005 114.19167447780337 L 309.70041839152276 112.28476703183887 M 316.59443393960055 111.071280475316 L 327.4278869437228 109.1643730293515 M 334.3219024918006 107.95088647282863 L 345.15535549592283 106.04397902686412 M 352.0493710440006 104.83049247034126 L 362.88282404812287 102.92358502437675 M 369.77683959620066 101.71009846785388 L 380.6102926003229 99.80319102188938 M 387.5043081484007 98.58970446536651 L 398.33776115252294 96.68279701940199 M 405.23177670060073 95.46931046287912 L 416.065229704723 93.5624030169146 M 422.95924525280077 92.34891646039173 L 433.792698256923 90.44200901442721 M 440.6867138050008 89.22852245790435 L 451.520166809123 87.32161501193983 M 458.4141823572008 86.10812845541696 L 469.247635361323 84.20122100945244 M 476.14165090940077 82.98773445292957 L 486.975103913523 81.08082700696505 M 493.8691194616008 79.86734045044219 L 504.702572465723 77.96043300447766 M 511.5965880138008 76.7469464479548 L 522.430041017923 74.84003900199028 M 529.3240565660008 73.62655244546741 L 540.157509570123 71.71964499950289 M 547.0515251182007 70.50615844298002 L 557.884978122323 68.5992509970155 M 564.7789936704007 67.38576444049264 L 575.612446674523 65.47885699452812 M 582.5064622226007 64.26537043800525 L 593.339915226723 62.358462992040735 M 600.2339307748008 61.14497643551786 L 602.5 60.746102292900616" stroke-linecap="round" stroke-linejoin="round" stroke-miterlimit="10" stroke-width="2.5" stroke-opacity="0.25" stroke-dasharray=""/></g></g><g id="sketch-5f60792d"><title>Expression 10</title><path fill="#000000" stroke="none" paint-order="stroke fill markers" d="" fill-opacity="0.4"/><g><path fill="none" stroke="#000000" class="dcg-svg-curve" paint-order="fill stroke markers" d=" M -2.5 233.269062802376 L 8.350192377156628 235.07829617004646 M 15.254860253529028 236.22962649492766 L 26.105052630685655 238.03885986259812 M 33.009720507058056 239.19019018747932 L 43.85991288421468 240.99942355514978 M 50.76458076058708 242.15075388003098 L 61.61477313774371 243.95998724770143 M 68.51944101411611 245.11131757258264 L 79.36963339127274 246.9205509402531 M 86.27430126764514 248.0718812651343 L 97.12449364480177 249.88111463280475 M 104.02916152117417 251.03244495768595 L 114.8793538983308 252.8416783253564 M 121.7840217747032 253.9930086502376 L 132.63421415185982 255.80224201790807 M 139.53888202823222 256.9535723427893 L 150.38907440538884 258.76280571045976 M 157.29374228176124 259.91413603534096 L 168.14393465891786 261.7233694030114 M 175.04860253529026 262.8746997278926 L 185.89879491244687 264.6839330955631 M 192.80346278881927 265.8352634204443 L 203.6536551659759 267.64449678811474 M 210.5583230423483 268.79582711299594 L 221.4085154195049 270.6050604806664 M 228.3131832958773 271.7563908055476 L 239.16337567303393 273.56562417321805 M 246.06804354940633 274.71695449809926 L 256.91823592656294 276.5261878657697 M 263.82290380293534 277.6775181906509 L 274.673096180092 279.4867515583214 M 281.5777640564644 280.6380818832026 L 292.42795643362103 282.44731525087303 M 299.33262430999343 283.59864557575423 L 310.1828166871501 285.4078789434247 M 317.0874845635225 286.5592092683059 L 327.9376769406791 288.36844263597635 M 334.8423448170515 289.51977296085755 L 345.69253719420817 291.329006328528 M 352.59720507058057 292.4803366534092 L 363.4473974477372 294.28957002107967 M 370.3520653241096 295.44090034596087 L 381.20225770126626 297.2501337136313 M 388.10692557763866 298.40146403851253 L 398.9571179547953 300.210697406183 M 405.8617858311677 301.3620277310642 L 416.71197820832435 303.17126109873465 M 423.61664608469675 304.32259142361585 L 434.4668384618534 306.1318247912863 M 441.3715063382258 307.2831551161675 L 452.22169871538244 309.09238848383796 M 459.12636659175485 310.24371880871917 L 469.9765589689115 312.0529521763896 M 476.8812268452839 313.2042825012708 L 487.73141922244054 315.0135158689413 M 494.63608709881294 316.1648461938225 L 505.4862794759695 317.97407956149294 M 512.3909473523419 319.12540988637414 L 523.2411397294985 320.9346432540446 M 530.1458076058709 322.0859735789258 L 540.9959999830276 323.8952069465963 M 547.9006678594 325.0465372714775 L 558.7508602365566 326.855770639148 M 565.655528112929 328.0071009640292 L 576.5057204900857 329.8163343316997 M 583.410388366458 330.9676646565809 L 594.2605807436146 332.7768980242514 M 601.165248619987 333.9282283491326 L 602.5 334.1507936871766" stroke-linecap="round" stroke-linejoin="round" stroke-miterlimit="10" stroke-width="2.5" stroke-opacity="0.25" stroke-dasharray=""/></g></g><g id="sketch-5f60792d"><title>Expression 12</title><path fill="#000000" stroke="none" paint-order="stroke fill markers" d="" fill-opacity="0.4"/><g><path fill="none" stroke="#000000" class="dcg-svg-curve" paint-order="fill stroke markers" d=" M 106.99548513464758 147.96494641824432 L 409.1311633820766 94.78293932204595" stroke-linecap="round" stroke-linejoin="round" stroke-miterlimit="10" stroke-width="2.5" stroke-dasharray=""/></g></g><g id="sketch-5f60792d"><title>Expression 13</title><path fill="#000000" stroke="none" paint-order="stroke fill markers" d="" fill-opacity="0.4"/><g><path fill="none" stroke="#000000" class="dcg-svg-curve" paint-order="fill stroke markers" d=" M 107.46233183839551 251.604914650287 L 410.06485678957245 302.06287578613126" stroke-linecap="round" stroke-linejoin="round" stroke-miterlimit="10" stroke-width="2.5" stroke-dasharray=""/></g></g><g id="sketch-5f60792d"><title>Expression 14</title><path fill="#000000" stroke="none" paint-order="stroke fill markers" d="" fill-opacity="0.4"/><g><path fill="none" stroke="#000000" class="dcg-svg-curve" paint-order="fill stroke markers" d=" M 106.99548513464757 147.96494641824432 A 52.57601434197747 52.576014341977384 0 0 0 107.4623318383955 251.60491465028696" stroke-linecap="round" stroke-linejoin="round" stroke-miterlimit="10" stroke-width="2.5" stroke-dasharray=""/></g></g><g id="sketch-5f60792d"><title>Expression 15</title><path fill="#000000" stroke="none" paint-order="stroke fill markers" d="" fill-opacity="0.4"/><g><path fill="none" stroke="#000000" class="dcg-svg-curve" paint-order="fill stroke markers" d=" M 410.06485678957245 302.06287578613126 A 105.15202868395491 105.15202868395474 0 1 0 409.1311633820765 94.78293932204603" stroke-linecap="round" stroke-linejoin="round" stroke-miterlimit="10" stroke-width="2.5" stroke-dasharray=""/></g></g><g id="sketch-5f60792d"><title>Expression 16</title><path fill="#2d70b3" stroke="none" paint-order="stroke fill markers" d="" fill-opacity="0.4"/><g><path fill="none" stroke="#2d70b3" class="dcg-svg-curve" paint-order="fill stroke markers" d=" M 116.1098117917252 199.7449264653233 L 103.95737624895503 130.704953069218 M 103.95737624895503 130.704953069218 L 110.45402698175435 141.96521635459538 L 101.69614172005195 143.50678178254236 L 103.95737624895503 130.704953069218 L 107.71652285802375 141.04269057659974 L 103.95410411401144 141.7049525825422 L 103.95737624895503 130.704953069218" stroke-linecap="round" stroke-linejoin="round" stroke-miterlimit="10" stroke-width="2.5" stroke-dasharray=""/></g></g><g id="sketch-5f60792d"><title>Expression 17</title><path fill="#c74440" stroke="none" paint-order="stroke fill markers" d="" fill-opacity="0.4"/><g><path fill="none" stroke="#c74440" class="dcg-svg-curve" paint-order="fill stroke markers" d=" M 116.1098117917252 199.7449264653233 L 104.57983852061895 268.8915773786082 M 104.57983852061895 268.8915773786082 L 102.2033663031766 256.1106392362133 L 110.97478386232213 257.57324384064293 L 104.57983852061895 268.8915773786082 L 104.47746943448034 257.8920537266402 L 108.24570170173808 258.52039388118055 L 104.57983852061895 268.8915773786082" stroke-linecap="round" stroke-linejoin="round" stroke-miterlimit="10" stroke-width="2.5" stroke-dasharray=""/></g></g><g id="sketch-5f60792d"><title>nL</title></g><g id="sketch-5f60792d"><title>nR</title></g><g id="sketch-5f60792d"><title>C1</title></g><g id="sketch-5f60792d"><title>C2</title></g></g><g id="labels-5f60792d"><g transform="rotate(0,0,0) translate(103.5,165)"><g class="dcg-svg-label"><text fill="none" stroke="#FFF" font-family="arial, sans-serif" font-size="15.4px" font-style="normal" font-weight="400" text-decoration="normal" x="0" y="13.9888" text-anchor="start" stroke-linecap="round" stroke-linejoin="round" stroke-miterlimit="2" stroke-width="3" stroke-dasharray="">nL</text><text fill="rgb(45, 112, 179)" stroke="none" font-family="arial, sans-serif" font-size="15.4px" font-style="normal" font-weight="400" text-decoration="normal" x="0" y="13.9888" text-anchor="start">nL</text></g></g><g transform="rotate(0,0,0) translate(102,217)"><g class="dcg-svg-label"><text fill="none" stroke="#FFF" font-family="arial, sans-serif" font-size="15.4px" font-style="normal" font-weight="400" text-decoration="normal" x="0" y="13.9888" text-anchor="start" stroke-linecap="round" stroke-linejoin="round" stroke-miterlimit="2" stroke-width="3" stroke-dasharray="">nR</text><text fill="rgb(199, 68, 64)" stroke="none" font-family="arial, sans-serif" font-size="15.4px" font-style="normal" font-weight="400" text-decoration="normal" x="0" y="13.9888" text-anchor="start">nR</text></g></g><g transform="rotate(0,0,0) translate(134,191)"><g class="dcg-svg-label"><text fill="none" stroke="#FFF" font-family="arial, sans-serif" font-size="15.4px" font-style="normal" font-weight="400" text-decoration="normal" x="0" y="13.9888" text-anchor="start" stroke-linecap="round" stroke-linejoin="round" stroke-miterlimit="2" stroke-width="3" stroke-dasharray="">C1</text><text fill="rgb(96, 66, 166)" stroke="none" font-family="arial, sans-serif" font-size="15.4px" font-style="normal" font-weight="400" text-decoration="normal" x="0" y="13.9888" text-anchor="start">C1</text></g></g><g transform="rotate(0,0,0) translate(445,189)"><g class="dcg-svg-label"><text fill="none" stroke="#FFF" font-family="arial, sans-serif" font-size="15.4px" font-style="normal" font-weight="400" text-decoration="normal" x="0" y="13.9888" text-anchor="start" stroke-linecap="round" stroke-linejoin="round" stroke-miterlimit="2" stroke-width="3" stroke-dasharray="">C2</text><text fill="rgb(96, 66, 166)" stroke="none" font-family="arial, sans-serif" font-size="15.4px" font-style="normal" font-weight="400" text-decoration="normal" x="0" y="13.9888" text-anchor="start">C2</text></g></g></g><path fill="#6042a6" stroke="none" class="dcg-svg-point" paint-order="stroke fill markers" d=" M 120.1098117917252 199.7449264653233 A 4 4 0 1 1 120.10980979172537 199.74092646598996 Z"/><path fill="#6042a6" stroke="none" class="dcg-svg-point" paint-order="stroke fill markers" d=" M 431.35981669623186 198.3428994162039 A 4 4 0 1 1 431.35981469623204 198.33889941687056 Z"/><g id="labels-5f60792d"/></g></svg>