<svg version="1.1" xmlns="http://www.w3.org/2000/svg" xmlns:xlink="http://www.w3.org/1999/xlink" width="600" height="300"><defs/><g transform="scale(1,1)"><g id="background-dc12bfed"><rect fill="white" stroke="none" x="0" y="0" width="600" height="300" class="dcg-svg-background"/></g><g id="graphpaper-dc12bfed"><g id="axis-dc12bfed"><g><g><path fill="none" stroke="rgb(0,0,0)" class="dcg-svg-tickmark" paint-order="fill stroke markers" d="" stroke-opacity="0.9" stroke-miterlimit="2" stroke-width="1.5" stroke-dasharray=""/></g></g></g></g><g id="expressions-dc12bfed"><g id="sketch-dc12bfed"><title>"A"</title></g><g id="sketch-dc12bfed"><title>"B"</title></g><g id="sketch-dc12bfed"><title>Expression 16</title><path fill="black" stroke="none" paint-order="stroke fill markers" d="" fill-opacity="0.4"/><g><path fill="none" stroke="black" class="dcg-svg-curve" paint-order="fill stroke markers" d=" M 206.25 177.53354148078967 A 56.25 56.249999999999936 0 1 1 206.24997187500236 177.47729149016465" stroke-linecap="round" stroke-linejoin="round" stroke-miterlimit="10" stroke-width="2.5" stroke-opacity="0.1" stroke-dasharray="11,7"/></g></g><g id="sketch-dc12bfed"><title>Expression 17</title><path fill="black" stroke="none" paint-order="stroke fill markers" d="" fill-opacity="0.4"/><g><path fill="none" stroke="black" class="dcg-svg-curve" paint-order="fill stroke markers" d=" M 562.5 177.53354148078967 A 112.5 112.49999999999987 0 1 1 562.4999437500047 177.4210414995396" stroke-linecap="round" stroke-linejoin="round" stroke-miterlimit="10" stroke-width="2.5" stroke-opacity="0.1" stroke-dasharray="11,7"/></g></g><g id="sketch-dc12bfed"><title>Expression 18</title><path fill="black" stroke="none" paint-order="stroke fill markers" d="" fill-opacity="0.4"/><g><path fill="none" stroke="black" class="dcg-svg-curve" paint-order="fill stroke markers" d=" M -2.5 149.37794071911154 L 8.304910631282427 147.31544071911154 M 15.180762851189424 146.00294071911154 L 25.98567348247185 143.94044071911154 M 32.86152570237885 142.62794071911154 L 43.666436333661274 140.56544071911154 M 50.54228855356827 139.25294071911154 L 61.347199184850695 137.19044071911154 M 68.2230514047577 135.87794071911154 L 79.02796203604012 133.81544071911154 M 85.90381425594713 132.50294071911154 L 96.70872488722955 130.44044071911154 M 103.58457710713655 129.12794071911154 L 114.38948773841898 127.06544071911154 M 121.26533995832598 125.75294071911154 L 132.0702505896084 123.69044071911154 M 138.9461028095154 122.37794071911154 L 149.7510134407978 120.31544071911154 M 156.6268656607048 119.00294071911154 L 167.43177629198723 116.94044071911154 M 174.30762851189422 115.62794071911154 L 185.11253914317666 113.56544071911154 M 191.98839136308365 112.25294071911154 L 202.79330199436606 110.19044071911154 M 209.66915421427305 108.87794071911154 L 220.4740648455555 106.81544071911154 M 227.34991706546248 105.50294071911154 L 238.15482769674492 103.44044071911154 M 245.0306799166519 102.12794071911154 L 255.83559054793434 100.06544071911154 M 262.71144276784133 98.75294071911154 L 273.5163533991238 96.69044071911154 M 280.3922056190308 95.37794071911154 L 291.19711625031323 93.31544071911154 M 298.07296847022025 92.00294071911154 L 308.8778791015027 89.94044071911154 M 315.7537313214097 88.62794071911154 L 326.55864195269214 86.56544071911154 M 333.43449417259916 85.25294071911154 L 344.2394048038816 83.19044071911154 M 351.1152570237886 81.87794071911154 L 361.92016765507105 79.81544071911154 M 368.7960198749781 78.50294071911154 L 379.6009305062605 76.44044071911154 M 386.4767827261675 75.12794071911154 L 397.28169335744997 73.06544071911154 M 404.157545577357 71.75294071911154 L 414.9624562086394 69.69044071911154 M 421.8383084285464 68.37794071911154 L 432.6432190598288 66.31544071911154 M 439.51907127973584 65.00294071911154 L 450.3239819110182 62.94044071911154 M 457.19983413092524 61.62794071911155 L 468.0047447622076 59.56544071911156 M 474.88059698211464 58.252940719111564 L 485.685507613397 56.19044071911157 M 492.56135983330404 54.87794071911158 L 503.3662704645864 52.815440719111585 M 510.24212268449344 51.50294071911159 L 521.0470333157758 49.4404407191116 M 527.9228855356828 48.127940719111606 L 538.7277961669652 46.06544071911161 M 545.6036483868721 44.75294071911162 L 556.4085590181545 42.69044071911163 M 563.2844112380615 41.37794071911163 L 574.089321869344 39.315440719111635 M 580.9651740892509 38.002940719111635 L 591.7700847205334 35.94044071911164 M 598.6459369404404 34.62794071911165 L 602.5 33.89225623900798" stroke-linecap="round" stroke-linejoin="round" stroke-miterlimit="10" stroke-width="2.5" stroke-opacity="0.1" stroke-dasharray=""/></g></g><g id="sketch-dc12bfed"><title>Expression 19</title><path fill="black" stroke="none" paint-order="stroke fill markers" d="" fill-opacity="0.4"/><g><path fill="none" stroke="black" class="dcg-svg-curve" paint-order="fill stroke markers" d=" M -2.5 205.68914224246782 L 8.304910631282427 207.75164224246782 M 15.180762851189426 209.06414224246782 L 25.985673482471853 211.12664224246782 M 32.861525702378856 212.43914224246782 L 43.66643633366128 214.50164224246782 M 50.542288553568284 215.81414224246782 L 61.34719918485071 217.87664224246782 M 68.22305140475771 219.18914224246782 L 79.02796203604014 221.25164224246782 M 85.90381425594714 222.56414224246782 L 96.70872488722956 224.62664224246782 M 103.58457710713657 225.93914224246782 L 114.38948773841899 228.00164224246782 M 121.265339958326 229.31414224246782 L 132.07025058960843 231.37664224246782 M 138.94610280951542 232.68914224246782 L 149.75101344079786 234.75164224246782 M 156.62686566070485 236.06414224246782 L 167.4317762919873 238.12664224246782 M 174.30762851189428 239.43914224246782 L 185.11253914317672 241.50164224246782 M 191.9883913630837 242.81414224246782 L 202.79330199436615 244.87664224246782 M 209.66915421427314 246.18914224246782 L 220.47406484555557 248.25164224246782 M 227.34991706546256 249.56414224246782 L 238.154827696745 251.62664224246782 M 245.030679916652 252.93914224246782 L 255.83559054793443 255.00164224246782 M 262.71144276784145 256.3141422424678 L 273.5163533991239 258.3766422424678 M 280.3922056190309 259.6891422424678 L 291.19711625031334 261.7516422424678 M 298.07296847022036 263.0641422424678 L 308.8778791015028 265.1266422424678 M 315.7537313214098 266.4391422424678 L 326.55864195269226 268.5016422424678 M 333.4344941725993 269.8141422424678 L 344.2394048038817 271.8766422424678 M 351.11525702378873 273.1891422424678 L 361.92016765507117 275.2516422424678 M 368.7960198749782 276.5641422424678 L 379.6009305062606 278.6266422424678 M 386.4767827261676 279.9391422424678 L 397.28169335744997 282.0016422424678 M 404.157545577357 283.3141422424678 L 414.9624562086394 285.3766422424678 M 421.8383084285464 286.6891422424678 L 432.64321905982877 288.7516422424678 M 439.5190712797358 290.0641422424678 L 450.3239819110182 292.1266422424678 M 457.1998341309252 293.4391422424678 L 468.0047447622076 295.50164224246777 M 474.8805969821146 296.81414224246777 L 485.685507613397 298.8766422424677 M 492.561359833304 300.1891422424677 L 503.3662704645864 302.2516422424677" stroke-linecap="round" stroke-linejoin="round" stroke-miterlimit="10" stroke-width="2.5" stroke-opacity="0.1" stroke-dasharray=""/></g></g><g id="sketch-dc12bfed"><title>Expression 21</title><path fill="black" stroke="none" paint-order="stroke fill markers" d="" fill-opacity="0.4"/><g><path fill="none" stroke="black" class="dcg-svg-curve" paint-order="fill stroke markers" d=" M 139.453125 122.28115757082277 L 428.90625 67.02877366085588" stroke-linecap="round" stroke-linejoin="round" stroke-miterlimit="10" stroke-width="2.5" stroke-dasharray=""/></g></g><g id="sketch-dc12bfed"><title>Expression 22</title><path fill="black" stroke="none" paint-order="stroke fill markers" d="" fill-opacity="0.4"/><g><path fill="none" stroke="black" class="dcg-svg-curve" paint-order="fill stroke markers" d=" M 139.453125 232.78592539075657 L 428.90625 288.0383093007234" stroke-linecap="round" stroke-linejoin="round" stroke-miterlimit="10" stroke-width="2.5" stroke-dasharray=""/></g></g><g id="sketch-dc12bfed"><title>Expression 23</title><path fill="black" stroke="none" paint-order="stroke fill markers" d="" fill-opacity="0.4"/><g><path fill="none" stroke="black" class="dcg-svg-curve" paint-order="fill stroke markers" d=" M 139.453125 122.28115757082277 A 56.25 56.249999999999936 0 0 0 139.45312499999997 232.78592539075655" stroke-linecap="round" stroke-linejoin="round" stroke-miterlimit="10" stroke-width="2.5" stroke-dasharray=""/></g></g><g id="sketch-dc12bfed"><title>Expression 24</title><path fill="black" stroke="none" paint-order="stroke fill markers" d="" fill-opacity="0.4"/><g><path fill="none" stroke="black" class="dcg-svg-curve" paint-order="fill stroke markers" d=" M 428.90625 67.02877366085588 A 112.5 112.49999999999987 0 1 1 428.90625 288.0383093007234" stroke-linecap="round" stroke-linejoin="round" stroke-miterlimit="10" stroke-width="2.5" stroke-dasharray=""/></g></g><g id="sketch-dc12bfed"><title>Expression 87</title><path fill="#c74440" stroke="none" paint-order="stroke fill markers" d="" fill-opacity="0.4"/><g><path fill="none" stroke="#c74440" class="dcg-svg-curve" paint-order="fill stroke markers" d=" M 150 177.53354148078967 L 135.9375 103.86369626750047 M 135.9375 103.86369626750047 L 142.5954064063947 115.02937055451461 L 133.86059511993662 116.69671875322724 L 135.9375 103.86369626750047 L 139.8449190315639 114.14630666135339 L 136.09241294961146 114.86260539422948 L 135.9375 103.86369626750047" stroke-linecap="round" stroke-linejoin="round" stroke-miterlimit="10" stroke-width="2.5" stroke-dasharray=""/></g></g><g id="sketch-dc12bfed"><title>Expression 88</title><path fill="#2d70b3" stroke="none" paint-order="stroke fill markers" d="" fill-opacity="0.4"/><g><path fill="none" stroke="#2d70b3" class="dcg-svg-curve" paint-order="fill stroke markers" d=" M 150 177.53354148078967 L 135.9375 251.20338669407886 M 135.9375 251.20338669407886 L 133.86059511993662 238.3703642083521 L 142.5954064063947 240.03771240706473 L 135.9375 251.20338669407886 L 136.09241294961146 240.20447756734984 L 139.8449190315639 240.92077630022595 L 135.9375 251.20338669407886" stroke-linecap="round" stroke-linejoin="round" stroke-miterlimit="10" stroke-width="2.5" stroke-dasharray=""/></g></g><g id="sketch-dc12bfed"><title>"n" Subscript, "L" , Baseline</title></g><g id="sketch-dc12bfed"><title>"n" Subscript, "R" , Baseline</title></g></g><g id="labels-dc12bfed"><g transform="rotate(0,0,0) translate(168,167)"><g class="dcg-svg-label"><text fill="none" stroke="#ffffff" font-family="&quot;Times New Roman&quot;, Symbola, serif" font-size="17.71px" font-style="italic" font-weight="400" text-decoration="normal" x="2" y="15.462119999999999" text-anchor="start" stroke-linecap="round" stroke-linejoin="round" stroke-miterlimit="2" stroke-width="3" stroke-dasharray="">A</text><text fill="rgb(96, 66, 166)" stroke="none" font-family="&quot;Times New Roman&quot;, Symbola, serif" font-size="17.71px" font-style="italic" font-weight="400" text-decoration="normal" x="2" y="15.462119999999999" text-anchor="start">A</text></g></g><g transform="rotate(0,0,0) translate(468,167)"><g class="dcg-svg-label"><text fill="none" stroke="#ffffff" font-family="&quot;Times New Roman&quot;, Symbola, serif" font-size="17.71px" font-style="italic" font-weight="400" text-decoration="normal" x="2" y="15.462119999999999" text-anchor="start" stroke-linecap="round" stroke-linejoin="round" stroke-miterlimit="2" stroke-width="3" stroke-dasharray="">B</text><text fill="rgb(96, 66, 166)" stroke="none" font-family="&quot;Times New Roman&quot;, Symbola, serif" font-size="17.71px" font-style="italic" font-weight="400" text-decoration="normal" x="2" y="15.462119999999999" text-anchor="start">B</text></g></g><g transform="rotate(0,0,0) translate(135,137)"><g class="dcg-svg-label"><text fill="none" stroke="#ffffff" font-family="&quot;Times New Roman&quot;, Symbola, serif" font-size="17.71px" font-style="italic" font-weight="400" text-decoration="normal" x="2" y="15.462119999999999" text-anchor="start" stroke-linecap="round" stroke-linejoin="round" stroke-miterlimit="2" stroke-width="3" stroke-dasharray="">n</text><text fill="none" stroke="#ffffff" font-family="&quot;Times New Roman&quot;, Symbola, serif" font-size="12.7512px" font-style="italic" font-weight="400" text-decoration="normal" x="10.859375" y="21.0614764" text-anchor="start" stroke-linecap="round" stroke-linejoin="round" stroke-miterlimit="2" stroke-width="3" stroke-dasharray="">L</text><text fill="rgb(199, 68, 64)" stroke="none" font-family="&quot;Times New Roman&quot;, Symbola, serif" font-size="17.71px" font-style="italic" font-weight="400" text-decoration="normal" x="2" y="15.462119999999999" text-anchor="start">n</text><text fill="rgb(199, 68, 64)" stroke="none" font-family="&quot;Times New Roman&quot;, Symbola, serif" font-size="12.7512px" font-style="italic" font-weight="400" text-decoration="normal" x="10.859375" y="21.0614764" text-anchor="start">L</text></g></g><g transform="rotate(0,0,0) translate(134.5,192)"><g class="dcg-svg-label"><text fill="none" stroke="#ffffff" font-family="&quot;Times New Roman&quot;, Symbola, serif" font-size="17.71px" font-style="italic" font-weight="400" text-decoration="normal" x="2" y="15.462119999999999" text-anchor="start" stroke-linecap="round" stroke-linejoin="round" stroke-miterlimit="2" stroke-width="3" stroke-dasharray="">n</text><text fill="none" stroke="#ffffff" font-family="&quot;Times New Roman&quot;, Symbola, serif" font-size="12.7512px" font-style="italic" font-weight="400" text-decoration="normal" x="10.859375" y="21.0614764" text-anchor="start" stroke-linecap="round" stroke-linejoin="round" stroke-miterlimit="2" stroke-width="3" stroke-dasharray="">R</text><text fill="rgb(45, 112, 179)" stroke="none" font-family="&quot;Times New Roman&quot;, Symbola, serif" font-size="17.71px" font-style="italic" font-weight="400" text-decoration="normal" x="2" y="15.462119999999999" text-anchor="start">n</text><text fill="rgb(45, 112, 179)" stroke="none" font-family="&quot;Times New Roman&quot;, Symbola, serif" font-size="12.7512px" font-style="italic" font-weight="400" text-decoration="normal" x="10.859375" y="21.0614764" text-anchor="start">R</text></g></g></g><path fill="#6042a6" stroke="none" class="dcg-svg-point" paint-order="stroke fill markers" d=" M 154 177.53354148078967 A 4 4 0 1 1 153.99999800000018 177.52954148145633 Z"/><path fill="#6042a6" stroke="none" class="dcg-svg-point" paint-order="stroke fill markers" d=" M 454 177.53354148078967 A 4 4 0 1 1 453.9999980000002 177.52954148145633 Z"/><g id="labels-dc12bfed"/></g></svg>