<svg version="1.1" xmlns="http://www.w3.org/2000/svg" xmlns:xlink="http://www.w3.org/1999/xlink" width="600" height="400"><defs/><g transform="scale(1,1)"><g id="background-d4c0731a"><rect fill="white" stroke="none" x="0" y="0" width="600" height="400" class="dcg-svg-background"/></g><g id="graphpaper-d4c0731a"><g id="axis-d4c0731a"><g><g><path fill="none" stroke="rgb(0,0,0)" class="dcg-svg-tickmark" paint-order="fill stroke markers" d="" stroke-opacity="0.9" stroke-miterlimit="2" stroke-width="1.5" stroke-dasharray=""/></g></g></g></g><g id="expressions-d4c0731a"><g id="sketch-d4c0731a"><title>A</title></g><g id="sketch-d4c0731a"><title>B</title></g><g id="sketch-d4c0731a"><title>C</title></g><g id="sketch-d4c0731a"><title>D</title></g><g id="sketch-d4c0731a"><title>Expression 43</title><path fill="black" stroke="none" paint-order="stroke fill markers" d="" fill-opacity="0.4"/><g><path fill="none" stroke="black" class="dcg-svg-curve" paint-order="fill stroke markers" d=" M 240 49.99999999999946 A 30 30.000000000000107 0 1 1 239.99998500000126 49.97000000499944" stroke-linecap="round" stroke-linejoin="round" stroke-miterlimit="10" stroke-width="2.5" stroke-opacity="0.1" stroke-dasharray="11,7"/></g></g><g id="sketch-d4c0731a"><title>Expression 44</title><path fill="black" stroke="none" paint-order="stroke fill markers" d="" fill-opacity="0.4"/><g><path fill="none" stroke="black" class="dcg-svg-curve" paint-order="fill stroke markers" d=" M 255 200 A 75 75.00000000000027 0 1 1 254.9999625000031 199.92500001249996" stroke-linecap="round" stroke-linejoin="round" stroke-miterlimit="10" stroke-width="2.5" stroke-opacity="0.1" stroke-dasharray="11,7"/></g></g><g id="sketch-d4c0731a"><title>Expression 45</title><path fill="black" stroke="none" paint-order="stroke fill markers" d="" fill-opacity="0.4"/><g><path fill="none" stroke="black" class="dcg-svg-curve" paint-order="fill stroke markers" d=" M 480 200 A 60 60.00000000000021 0 1 1 479.9999700000025 199.94000000999998" stroke-linecap="round" stroke-linejoin="round" stroke-miterlimit="10" stroke-width="2.5" stroke-opacity="0.1" stroke-dasharray="11,7"/></g></g><g id="sketch-d4c0731a"><title>Expression 46</title><path fill="black" stroke="none" paint-order="stroke fill markers" d="" fill-opacity="0.4"/><g><path fill="none" stroke="black" class="dcg-svg-curve" paint-order="fill stroke markers" d=" M 390 332.00000000000045 A 30 30.000000000000107 0 1 1 389.99998500000123 331.97000000500043" stroke-linecap="round" stroke-linejoin="round" stroke-miterlimit="10" stroke-width="2.5" stroke-opacity="0.1" stroke-dasharray="11,7"/></g></g><g id="sketch-d4c0731a"><title>Expression 48</title><path fill="black" stroke="none" paint-order="stroke fill markers" d="" fill-opacity="0.4"/><g><path fill="none" stroke="black" class="dcg-svg-curve" paint-order="fill stroke markers" d=" M 234.8232768586295 -2.5 L 235.93453190107374 8.443724787778711 M 236.641694200811 15.407913289092438 L 237.75294924325524 26.351638076871147 M 238.4601115429925 33.315826578184875 L 239.57136658543675 44.25955136596359 M 240.278528885174 51.22373986727732 L 241.38978392761825 62.16746465505603 M 242.09694622735552 69.13165315636975 L 243.20820126979976 80.07537794414847 M 243.91536356953702 87.0395664454622 L 245.02661861198126 97.9832912332409 M 245.73378091171853 104.94747973455463 L 246.84503595416277 115.89120452233334 M 247.55219825390003 122.85539302364707 L 248.66345329634427 133.7991178114258 M 249.37061559608154 140.7633063127395 L 250.48187063852578 151.7070311005182 M 251.18903293826304 158.67121960183192 L 252.30028798070728 169.61494438961063 M 253.00745028044454 176.57913289092434 L 254.1187053228888 187.52285767870305 M 254.82586762262605 194.48704618001676 L 255.9371226650703 205.43077096779547 M 256.6442849648075 212.3949594691092 L 257.7555400072518 223.33868425688792 M 258.46270230698906 230.30287275820166 L 259.57395734943333 241.24659754598036 M 260.2811196491706 248.2107860472941 L 261.39237469161486 259.1545108350728 M 262.0995369913521 266.11869933638656 L 263.21079203379634 277.06242412416526 M 263.9179543335336 284.026612625479 L 265.0292093759778 294.9703374132577" stroke-linecap="round" stroke-linejoin="round" stroke-miterlimit="10" stroke-width="2.5" stroke-opacity="0.1" stroke-dasharray=""/></g></g><g id="sketch-d4c0731a"><title>Expression 49</title><path fill="black" stroke="none" paint-order="stroke fill markers" d="" fill-opacity="0.4"/><g><path fill="none" stroke="black" class="dcg-svg-curve" paint-order="fill stroke markers" d=" M 204.2976022622493 -2.5 L 199.06270345853974 7.174494018547952 M 195.73140421981546 13.330990212169375 L 190.4965054161059 23.00548423071733 M 187.1652061773816 29.16198042433875 L 181.93030737367204 38.8364744428867 M 178.59900813494775 44.99297063650812 L 173.36410933123818 54.66746465505607 M 170.0328100925139 60.823960848677494 L 164.79791128880433 70.49845486722545 M 161.46661205008004 76.65495106084687 L 156.23171324637048 86.32944507939482 M 152.9004140076462 92.48594127301624 L 147.66551520393662 102.16043529156418 M 144.33421596521234 108.3169314851856 L 139.09931716150277 117.99142550373355 M 135.76801792277848 124.14792169735497 L 130.5331191190689 133.82241571590293 M 127.20181988034464 139.97891190952436 L 121.96692107663507 149.65340592807232 M 118.6356218379108 155.80990212169374 L 113.40072303420123 165.4843961402417 M 110.06942379547696 171.64089233386312 L 104.8345249917674 181.31538635241108 M 101.50322575304313 187.4718825460325 L 96.26832694933356 197.14637656458046 M 92.93702771060929 203.3028727582019 L 87.70212890689972 212.97736677674985 M 84.37082966817545 219.13386297037127 L 79.13593086446588 228.80835698891923 M 75.8046316257416 234.96485318254065 L 70.56973282203204 244.6393472010886 M 67.23843358330777 250.79584339471003 L 62.0035347795982 260.470337413258 M 58.67223554087392 266.6268336068794 L 53.437336737164344 276.30132762542735 M 50.106037498440074 282.45782381904877 L 44.8711386947305 292.1323178375967 M 41.53983945600622 298.2888140312181 L 36.30494065229665 307.96330804976606 M 32.97364141357238 314.1198042433875 L 27.738742609862808 323.7942982619354 M 24.407443371138534 329.95079445555683 L 19.17254456742896 339.62528847410476 M 15.841245328704687 345.7817846677262 L 10.606346524995114 355.4562786862742 M 7.275047286270839 361.6127748798956 L 2.040148482561264 371.28726889844353 M -1.291150756163011 377.44376509206495 L -2.4999999999999716 379.67781110085116" stroke-linecap="round" stroke-linejoin="round" stroke-miterlimit="10" stroke-width="2.5" stroke-opacity="0.1" stroke-dasharray=""/></g></g><g id="sketch-d4c0731a"><title>Expression 50</title><path fill="black" stroke="none" paint-order="stroke fill markers" d="" fill-opacity="0.4"/><g><path fill="none" stroke="black" class="dcg-svg-curve" paint-order="fill stroke markers" d=" M -2.5 113.42449175747778 L 8.478494603086526 114.11199175747778 M 15.464809350505224 114.54949175747778 L 26.44330395359175 115.23699175747778 M 33.42961870101045 115.67449175747778 L 44.40811330409697 116.36199175747778 M 51.39442805151567 116.79949175747778 L 62.37292265460219 117.48699175747778 M 69.3592374020209 117.92449175747778 L 80.33773200510743 118.61199175747778 M 87.32404675252613 119.04949175747778 L 98.30254135561266 119.73699175747778 M 105.28885610303136 120.17449175747778 L 116.2673507061179 120.86199175747778 M 123.2536654535366 121.29949175747778 L 134.23216005662312 121.98699175747778 M 141.21847480404182 122.42449175747778 L 152.19696940712834 123.11199175747778 M 159.18328415454704 123.54949175747778 L 170.16177875763356 124.23699175747778 M 177.14809350505226 124.67449175747778 L 188.12658810813878 125.36199175747778 M 195.11290285555748 125.79949175747778 L 206.091397458644 126.48699175747778 M 213.0777122060627 126.92449175747778 L 224.05620680914922 127.61199175747778 M 231.04252155656792 128.0494917574778 L 242.02101615965444 128.7369917574778 M 249.00733090707314 129.1744917574778 L 259.98582551015966 129.8619917574778 M 266.97214025757836 130.2994917574778 L 277.9506348606649 130.9869917574778 M 284.9369496080836 131.4244917574778 L 295.9154442111701 132.1119917574778 M 302.9017589585888 132.5494917574778 L 313.8802535616753 133.2369917574778 M 320.866568309094 133.6744917574778 L 331.84506291218054 134.3619917574778 M 338.83137765959924 134.7994917574778 L 349.80987226268576 135.4869917574778 M 356.79618701010446 135.9244917574778 L 367.774681613191 136.6119917574778 M 374.7609963606097 137.0494917574778 L 385.7394909636962 137.7369917574778 M 392.7258057111149 138.1744917574778 L 403.7043003142014 138.8619917574778 M 410.6906150616201 139.2994917574778 L 421.66910966470664 139.9869917574778 M 428.65542441212534 140.4244917574778 L 439.63391901521186 141.1119917574778 M 446.62023376263056 141.5494917574778 L 457.5987283657171 142.2369917574778 M 464.5850431131358 142.6744917574778 L 475.5635377162223 143.3619917574778 M 482.549852463641 143.7994917574778 L 493.5283470667275 144.4869917574778 M 500.5146618141462 144.9244917574778 L 511.49315641723274 145.6119917574778 M 518.4794711646514 146.0494917574778 L 529.457965767738 146.73699175747782 M 536.4442805151567 147.17449175747782 L 547.4227751182433 147.86199175747782 M 554.4090898656619 148.29949175747782 L 565.3875844687485 148.98699175747785 M 572.3738992161672 149.42449175747785 L 583.3523938192537 150.11199175747788 M 590.3387085666724 150.54949175747788 L 601.317203169759 151.2369917574779" stroke-linecap="round" stroke-linejoin="round" stroke-miterlimit="10" stroke-width="2.5" stroke-opacity="0.1" stroke-dasharray=""/></g></g><g id="sketch-d4c0731a"><title>Expression 51</title><path fill="black" stroke="none" paint-order="stroke fill markers" d="" fill-opacity="0.4"/><g><path fill="none" stroke="black" class="dcg-svg-curve" paint-order="fill stroke markers" d=" M -2.5 286.5755082425223 L 8.478494603086526 285.8880082425223 M 15.464809350505224 285.4505082425223 L 26.44330395359175 284.7630082425223 M 33.42961870101045 284.3255082425223 L 44.40811330409697 283.6380082425223 M 51.39442805151567 283.2005082425223 L 62.37292265460219 282.5130082425223 M 69.3592374020209 282.0755082425223 L 80.33773200510743 281.3880082425223 M 87.32404675252613 280.9505082425223 L 98.30254135561266 280.2630082425223 M 105.28885610303136 279.8255082425223 L 116.2673507061179 279.1380082425223 M 123.2536654535366 278.7005082425223 L 134.23216005662312 278.0130082425223 M 141.21847480404182 277.5755082425223 L 152.19696940712834 276.8880082425223 M 159.18328415454704 276.4505082425223 L 170.16177875763356 275.7630082425223 M 177.14809350505226 275.3255082425223 L 188.12658810813878 274.6380082425223 M 195.11290285555748 274.2005082425223 L 206.091397458644 273.5130082425223 M 213.0777122060627 273.0755082425223 L 224.05620680914922 272.3880082425223 M 231.04252155656792 271.9505082425223 L 242.02101615965444 271.2630082425223 M 249.00733090707314 270.8255082425223 L 259.98582551015966 270.1380082425223 M 266.97214025757836 269.7005082425223 L 277.9506348606649 269.0130082425223 M 284.9369496080836 268.5755082425223 L 295.9154442111701 267.8880082425223 M 302.9017589585888 267.4505082425223 L 313.8802535616753 266.7630082425223 M 320.866568309094 266.3255082425223 L 331.84506291218054 265.6380082425223 M 338.83137765959924 265.2005082425223 L 349.80987226268576 264.5130082425223 M 356.79618701010446 264.0755082425223 L 367.774681613191 263.3880082425223 M 374.7609963606097 262.9505082425223 L 385.7394909636962 262.2630082425223 M 392.7258057111149 261.8255082425223 L 403.7043003142014 261.1380082425223 M 410.6906150616201 260.7005082425223 L 421.66910966470664 260.0130082425223 M 428.65542441212534 259.5755082425223 L 439.63391901521186 258.8880082425223 M 446.62023376263056 258.4505082425223 L 457.5987283657171 257.7630082425223 M 464.5850431131358 257.3255082425223 L 475.5635377162223 256.6380082425223 M 482.549852463641 256.2005082425223 L 493.5283470667275 255.51300824252226 M 500.5146618141462 255.07550824252223 L 511.49315641723274 254.3880082425222 M 518.4794711646514 253.9505082425222 L 529.457965767738 253.26300824252218 M 536.4442805151567 252.82550824252218 L 547.4227751182433 252.13800824252215 M 554.4090898656619 251.70050824252212 L 565.3875844687485 251.0130082425221 M 572.3738992161672 250.5755082425221 L 583.3523938192537 249.88800824252206 M 590.3387085666724 249.45050824252206 L 601.317203169759 248.76300824252203" stroke-linecap="round" stroke-linejoin="round" stroke-miterlimit="10" stroke-width="2.5" stroke-opacity="0.1" stroke-dasharray=""/></g></g><g id="sketch-d4c0731a"><title>Expression 52</title><path fill="black" stroke="none" paint-order="stroke fill markers" d="" fill-opacity="0.4"/><g><path fill="none" stroke="black" class="dcg-svg-curve" paint-order="fill stroke markers" d=" M 602.5 53.47081350732063 L 595.9747433358594 62.32637816842998 M 591.8223072768609 67.96173749822684 L 585.2970506127203 76.8173021593362 M 581.1446145537218 82.45266148913305 L 574.6193578895812 91.3082261502424 M 570.4669218305827 96.94358548003926 L 563.9416651664421 105.79915014114862 M 559.7892291074436 111.43450947094547 L 553.263972443303 120.29007413205483 M 549.1115363843045 125.92543346185168 L 542.5862797201639 134.78099812296102 M 538.4338436611654 140.4163574527579 L 531.9085869970248 149.27192211386725 M 527.7561509380263 154.90728144366412 L 521.2308942738857 163.76284610477347 M 517.0784582148872 169.39820543457034 L 510.55320155074656 178.2537700956797 M 506.400765491748 183.88912942547657 L 499.8755088276074 192.74469408658592 M 495.72307276860886 198.3800534163828 L 489.19781610446825 207.23561807749215 M 485.0453800454697 212.87097740728902 L 478.5201233813291 221.72654206839837 M 474.36768732233054 227.36190139819524 L 467.8424306581899 236.2174660593046 M 463.6899945991914 241.85282538910147 L 457.16473793505077 250.70839005021082 M 453.0123018760522 256.3437493800077 L 446.4870452119116 265.199314041117 M 442.33460915291306 270.8346733709139 L 435.80935248877245 279.6902380320232 M 431.6569164297739 285.3255973618201 L 425.1316597656333 294.1811620229294 M 420.9792237066347 299.8165213527263 L 414.45396704249407 308.6720860138356 M 410.3015309834955 314.3074453436325 L 403.7762743193549 323.1630100047418 M 399.6238382603563 328.7983693345387 L 393.0985815962157 337.653933995648 M 388.94614553721715 343.2892933254449 L 382.42088887307654 352.1448579865542 M 378.26845281407793 357.78021731635107 L 371.7431961499373 366.6357819774604 M 367.5907600909387 372.27114130725727 L 361.0655034267981 381.1267059683666 M 356.91306736779956 386.76206529816346 L 350.38781070365894 395.61762995927285 M 346.23537464466034 401.2529892890697 L 345.3165100365696 402.5" stroke-linecap="round" stroke-linejoin="round" stroke-miterlimit="10" stroke-width="2.5" stroke-opacity="0.1" stroke-dasharray=""/></g></g><g id="sketch-d4c0731a"><title>Expression 53</title><path fill="black" stroke="none" paint-order="stroke fill markers" d="" fill-opacity="0.4"/><g><path fill="none" stroke="black" class="dcg-svg-curve" paint-order="fill stroke markers" d=" M 403.44723464529494 -2.5 L 401.0658135975927 8.239126304944957 M 399.550363839964 15.073115771728112 L 397.16894279226176 25.81224207667307 M 395.6534930346331 32.646231543456224 L 393.2720719869308 43.385357848401185 M 391.75662222930214 50.219347315184336 L 389.3752011815999 60.9584736201293 M 387.8597514239712 67.79246308691245 L 385.47833037626896 78.53158939185741 M 383.96288061864027 85.36557885864056 L 381.581459570938 96.10470516358552 M 380.06600981330934 102.93869463036867 L 377.6845887656071 113.67782093531363 M 376.1691390079784 120.51181040209678 L 373.78771796027615 131.25093670704175 M 372.27226820264747 138.0849261738249 L 369.8908471549452 148.82405247876986 M 368.37539739731653 155.658041945553 L 365.9939763496143 166.39716825049797 M 364.4785265919856 173.23115771728112 L 362.09710554428335 183.97028402222608 M 360.58165578665466 190.80427348900923 L 358.2002347389524 201.5433997939542 M 356.68478498132373 208.37738926073735 L 354.3033639336215 219.1165155656823 M 352.7879141759928 225.95050503246546 L 350.40649312829055 236.68963133741042 M 348.89104337066186 243.52362080419357 L 346.5096223229596 254.26274710913853 M 344.9941725653309 261.0967365759217 L 342.6127515176287 271.8358628808666 M 341.09730175999994 278.6698523476498 L 338.7158807122977 289.4089786525947 M 337.20043095466895 296.2429681193779 L 334.8190099069667 306.98209442432284 M 333.30356014933795 313.816083891106 L 330.9221391016357 324.55521019605095 M 329.40668934400696 331.38919966283413 L 327.0252682963047 342.12832596777906 M 325.509818538676 348.96231543456224 L 323.1283974909737 359.7014417395072 M 321.612947733345 366.53543120629035 L 319.23152668564273 377.2745575112353 M 317.716076928014 384.10854697801847 L 315.33465588031174 394.8476732829634 M 313.81920612268306 401.6816627497466 L 313.6377383294441 402.5" stroke-linecap="round" stroke-linejoin="round" stroke-miterlimit="10" stroke-width="2.5" stroke-opacity="0.1" stroke-dasharray=""/></g></g><g id="sketch-d4c0731a"><title>Expression 54</title><path fill="#F66" stroke="none" class="dcg-svg-region" paint-order="stroke fill markers" d=" M 239.8465221484874 46.96930442969696 L 210 49.99999999999946 L 183.61501631305106 35.72300326260964 L 114.03754078262767 164.30750815652542 L 180 200 L 248.1886505512863 129.12322400493503 L 239.8465221484874 46.96930442969696 L 239.8465221484874 46.96930442969696" fill-opacity="0.05"/></g><g id="sketch-d4c0731a"><title>Expression 71</title><path fill="#F66" stroke="none" class="dcg-svg-region" paint-order="stroke fill markers" d=" M 180 200 L 114.03754078262767 164.30750815652542 L 109.88476429077164 173.37569303363264 L 106.97196832027396 182.91472596108184 L 105.3506653595341 192.75591015132056 L 105.04952797978729 202.72520530369854 L 106.07388176371683 212.64630548876156 L 108.40561112308862 222.34375709995055 L 112.00347967101104 231.64606173206073 L 116.80385948307219 240.38870911238342 L 180 200 L 180 200 L 180 200" fill-opacity="0.1"/></g><g id="sketch-d4c0731a"><title>Expression 72</title><path fill="#F66" stroke="none" class="dcg-svg-region" paint-order="stroke fill markers" d=" M 468.3030799696873 235.59230907713072 L 420 200 L 344.158124243146 264.866934432215 L 330.71147371378646 325.50521532444884 L 360 332.00000000000045 L 384.1515399848437 349.7961545385658 L 468.3030799696873 235.59230907713072 L 468.3030799696873 235.59230907713072" fill-opacity="0.05"/></g><g id="sketch-d4c0731a"><title>Expression 89</title><path fill="#F66" stroke="none" class="dcg-svg-region" paint-order="stroke fill markers" d=" M 420 200 L 468.3030799696873 235.59230907713072 L 472.6238933999151 228.82231502559043 L 476.00182921040556 221.5359031639857 L 478.37636394174035 213.86362625511356 L 479.70495236378144 205.94295071816936 L 479.9637897709463 197.91579360288998 L 479.1482384980491 189.92597982045402 L 477.2729110146979 182.11666519067273 L 474.3714081094222 174.62777147748622 L 420 200 L 420 200 L 420 200" fill-opacity="0.1"/></g><g id="sketch-d4c0731a"><title>Expression 90</title><path fill="#66F" stroke="none" class="dcg-svg-region" paint-order="stroke fill markers" d=" M 248.1886505512863 129.12322400493503 L 180 200 L 184.6875 274.85337229377205 L 344.158124243146 264.866934432215 L 420 200 L 423.75 140.11730216498236 L 248.1886505512863 129.12322400493503 L 248.1886505512863 129.12322400493503" fill-opacity="0.2"/></g><g id="sketch-d4c0731a"><title>Expression 107</title><path fill="#66F" stroke="none" class="dcg-svg-region" paint-order="stroke fill markers" d=" M 180 200 L 116.80385948307219 240.38870911238342 L 122.72185635044755 248.4170864474645 L 129.65281112499653 255.5892127339896 L 137.47415060521848 261.7782496777983 L 146.04755523034592 266.8747448156897 L 155.22140524713484 270.7885671706478 L 164.83346208915071 273.450501208629 L 174.7137375486421 274.81347090795487 L 184.6875 274.85337229377205 L 180 200 L 180 200 L 180 200" fill-opacity="0.3"/></g><g id="sketch-d4c0731a"><title>Expression 124</title><path fill="#66F" stroke="none" class="dcg-svg-region" paint-order="stroke fill markers" d=" M 420 200 L 474.3714081094222 174.62777147748622 L 470.49571685456186 167.59347936997983 L 465.71527913875576 161.13982432791056 L 460.1157474564046 155.3824383676788 L 453.7974502469908 150.42447824982372 L 446.8735942812169 146.3547771893101 L 439.46823630233473 143.24625320495147 L 431.7140602653561 141.15460262603685 L 423.75 140.11730216498236 L 420 200 L 420 200 L 420 200" fill-opacity="0.3"/></g><g id="sketch-d4c0731a"><title>Expression 126</title><path fill="#000" stroke="none" paint-order="stroke fill markers" d="" fill-opacity="0.4"/><g><path fill="none" stroke="#000" class="dcg-svg-curve" paint-order="fill stroke markers" d=" M 239.8465221484874 46.96930442969696 L 248.1886505512863 129.12322400493503" stroke-linecap="round" stroke-linejoin="round" stroke-miterlimit="10" stroke-width="2.5" stroke-dasharray=""/></g></g><g id="sketch-d4c0731a"><title>Expression 127</title><path fill="#000" stroke="none" paint-order="stroke fill markers" d="" fill-opacity="0.4"/><g><path fill="none" stroke="#000" class="dcg-svg-curve" paint-order="fill stroke markers" d=" M 183.61501631305106 35.72300326260964 L 114.03754078262767 164.30750815652542" stroke-linecap="round" stroke-linejoin="round" stroke-miterlimit="10" stroke-width="2.5" stroke-dasharray=""/></g></g><g id="sketch-d4c0731a"><title>Expression 128</title><path fill="black" stroke="none" paint-order="stroke fill markers" d="" fill-opacity="0.4"/><g><path fill="none" stroke="black" class="dcg-svg-curve" paint-order="fill stroke markers" d=" M 248.1886505512863 129.12322400493503 L 423.75 140.11730216498236" stroke-linecap="round" stroke-linejoin="round" stroke-miterlimit="10" stroke-width="2.5" stroke-dasharray=""/></g></g><g id="sketch-d4c0731a"><title>Expression 129</title><path fill="black" stroke="none" paint-order="stroke fill markers" d="" fill-opacity="0.4"/><g><path fill="none" stroke="black" class="dcg-svg-curve" paint-order="fill stroke markers" d=" M 184.6875 274.85337229377205 L 344.158124243146 264.866934432215" stroke-linecap="round" stroke-linejoin="round" stroke-miterlimit="10" stroke-width="2.5" stroke-dasharray=""/></g></g><g id="sketch-d4c0731a"><title>Expression 130</title><path fill="#000" stroke="none" paint-order="stroke fill markers" d="" fill-opacity="0.4"/><g><path fill="none" stroke="#000" class="dcg-svg-curve" paint-order="fill stroke markers" d=" M 468.3030799696873 235.59230907713072 L 384.1515399848437 349.7961545385658" stroke-linecap="round" stroke-linejoin="round" stroke-miterlimit="10" stroke-width="2.5" stroke-dasharray=""/></g></g><g id="sketch-d4c0731a"><title>Expression 131</title><path fill="#000" stroke="none" paint-order="stroke fill markers" d="" fill-opacity="0.4"/><g><path fill="none" stroke="#000" class="dcg-svg-curve" paint-order="fill stroke markers" d=" M 344.158124243146 264.866934432215 L 330.71147371378646 325.50521532444884" stroke-linecap="round" stroke-linejoin="round" stroke-miterlimit="10" stroke-width="2.5" stroke-dasharray=""/></g></g><g id="sketch-d4c0731a"><title>Expression 136</title><path fill="#000" stroke="none" paint-order="stroke fill markers" d="" fill-opacity="0.4"/><g><path fill="none" stroke="#000" class="dcg-svg-curve" paint-order="fill stroke markers" d=" M 114.03754078262769 164.3075081565254 A 75.00000000000004 75.00000000000031 0 0 0 116.80385948307213 240.38870911238337" stroke-linecap="round" stroke-linejoin="round" stroke-miterlimit="10" stroke-width="2.5" stroke-dasharray=""/></g></g><g id="sketch-d4c0731a"><title>Expression 141</title><path fill="black" stroke="none" paint-order="stroke fill markers" d="" fill-opacity="0.4"/><g><path fill="none" stroke="black" class="dcg-svg-curve" paint-order="fill stroke markers" d=" M 184.6875 274.85337229377205 A 74.9999999999999 75.00000000000017 0 0 1 116.80385948307217 240.38870911238348" stroke-linecap="round" stroke-linejoin="round" stroke-miterlimit="10" stroke-width="2.5" stroke-dasharray=""/></g></g><g id="sketch-d4c0731a"><title>Expression 146</title><path fill="black" stroke="none" paint-order="stroke fill markers" d="" fill-opacity="0.4"/><g><path fill="none" stroke="black" class="dcg-svg-curve" paint-order="fill stroke markers" d=" M 423.75 140.11730216498236 A 60.00000000000003 60.00000000000024 0 0 1 474.37140810942225 174.6277714774863" stroke-linecap="round" stroke-linejoin="round" stroke-miterlimit="10" stroke-width="2.5" stroke-dasharray=""/></g></g><g id="sketch-d4c0731a"><title>Expression 151</title><path fill="#000" stroke="none" paint-order="stroke fill markers" d="" fill-opacity="0.4"/><g><path fill="none" stroke="#000" class="dcg-svg-curve" paint-order="fill stroke markers" d=" M 468.30307996968736 235.59230907713072 A 60.00000000000003 60.00000000000024 0 0 0 474.3714081094222 174.62777147748614" stroke-linecap="round" stroke-linejoin="round" stroke-miterlimit="10" stroke-width="2.5" stroke-dasharray=""/></g></g></g><g id="labels-d4c0731a"><g transform="rotate(0,0,0) translate(205,17)"><g class="dcg-svg-label"><text fill="none" stroke="#ffffff" font-family="arial, sans-serif" font-size="15.4px" font-style="normal" font-weight="400" text-decoration="normal" x="0" y="13.9888" text-anchor="start" stroke-linecap="round" stroke-linejoin="round" stroke-miterlimit="2" stroke-width="3" stroke-dasharray="">A</text><text fill="rgb(0, 0, 0)" stroke="none" font-family="arial, sans-serif" font-size="15.4px" font-style="normal" font-weight="400" text-decoration="normal" x="0" y="13.9888" text-anchor="start">A</text></g></g><g transform="rotate(0,0,0) translate(175,167)"><g class="dcg-svg-label"><text fill="none" stroke="#ffffff" font-family="arial, sans-serif" font-size="15.4px" font-style="normal" font-weight="400" text-decoration="normal" x="0" y="13.9888" text-anchor="start" stroke-linecap="round" stroke-linejoin="round" stroke-miterlimit="2" stroke-width="3" stroke-dasharray="">B</text><text fill="rgb(199, 68, 64)" stroke="none" font-family="arial, sans-serif" font-size="15.4px" font-style="normal" font-weight="400" text-decoration="normal" x="0" y="13.9888" text-anchor="start">B</text></g></g><g transform="rotate(0,0,0) translate(414.5,215)"><g class="dcg-svg-label"><text fill="none" stroke="#ffffff" font-family="arial, sans-serif" font-size="15.4px" font-style="normal" font-weight="400" text-decoration="normal" x="0" y="13.9888" text-anchor="start" stroke-linecap="round" stroke-linejoin="round" stroke-miterlimit="2" stroke-width="3" stroke-dasharray="">C</text><text fill="rgb(45, 112, 179)" stroke="none" font-family="arial, sans-serif" font-size="15.4px" font-style="normal" font-weight="400" text-decoration="normal" x="0" y="13.9888" text-anchor="start">C</text></g></g><g transform="rotate(0,0,0) translate(354.5,347)"><g class="dcg-svg-label"><text fill="none" stroke="#ffffff" font-family="arial, sans-serif" font-size="15.4px" font-style="normal" font-weight="400" text-decoration="normal" x="0" y="13.9888" text-anchor="start" stroke-linecap="round" stroke-linejoin="round" stroke-miterlimit="2" stroke-width="3" stroke-dasharray="">D</text><text fill="rgb(52, 133, 67)" stroke="none" font-family="arial, sans-serif" font-size="15.4px" font-style="normal" font-weight="400" text-decoration="normal" x="0" y="13.9888" text-anchor="start">D</text></g></g></g><path fill="#000000" stroke="none" class="dcg-svg-point" paint-order="stroke fill markers" d=" M 214 49.99999999999946 A 4 4 0 1 1 213.99999800000018 49.99600000066612 Z"/><path fill="#c74440" stroke="none" class="dcg-svg-point" paint-order="stroke fill markers" d=" M 184 200 A 4 4 0 1 1 183.99999800000018 199.99600000066667 Z"/><path fill="#2d70b3" stroke="none" class="dcg-svg-point" paint-order="stroke fill markers" d=" M 424 200 A 4 4 0 1 1 423.9999980000002 199.99600000066667 Z"/><path fill="#348543" stroke="none" class="dcg-svg-point" paint-order="stroke fill markers" d=" M 364 332.00000000000045 A 4 4 0 1 1 363.9999980000002 331.9960000006671 Z"/><g id="labels-d4c0731a"/></g></svg>