<svg version="1.1" xmlns="http://www.w3.org/2000/svg" xmlns:xlink="http://www.w3.org/1999/xlink" width="1200" height="800"><defs/><g transform="scale(2,2)"><g id="background-13142437"><rect fill="white" stroke="none" x="0" y="0" width="600" height="400" class="dcg-svg-background"/></g><g id="graphpaper-13142437"><g id="axis-13142437"><g><g><path fill="none" stroke="rgb(0,0,0)" class="dcg-svg-tickmark" paint-order="fill stroke markers" d="" stroke-opacity="0.9" stroke-miterlimit="2" stroke-width="1.5" stroke-dasharray=""/></g></g></g></g><g id="expressions-13142437"><g id="sketch-13142437"><title>Expression 7</title><path fill="#000000" stroke="none" paint-order="stroke fill markers" d="" fill-opacity="0.4"/><g><path fill="none" stroke="#000000" class="dcg-svg-curve" paint-order="fill stroke markers" d=" M 168.68582613370268 199.7449264653233 A 52.57601434197747 52.576014341977384 0 1 1 168.6857998456977 199.69235045974395" stroke-linecap="round" stroke-linejoin="round" stroke-miterlimit="10" stroke-width="2.5" stroke-opacity="0.1" stroke-dasharray="11,7"/></g></g><g id="sketch-13142437"><title>Expression 8</title><path fill="#000000" stroke="none" paint-order="stroke fill markers" d="" fill-opacity="0.4"/><g><path fill="none" stroke="#000000" class="dcg-svg-curve" paint-order="fill stroke markers" d=" M 532.5118453801867 198.3428994162039 A 105.15202868395494 105.15202868395477 0 1 1 532.5117928041768 198.2377474050452" stroke-linecap="round" stroke-linejoin="round" stroke-miterlimit="10" stroke-width="2.5" stroke-opacity="0.1" stroke-dasharray="11,7"/></g></g><g id="sketch-13142437"><title>Expression 9</title><path fill="#000000" stroke="none" paint-order="stroke fill markers" d="" fill-opacity="0.4"/><g><path fill="none" stroke="#000000" class="dcg-svg-curve" paint-order="fill stroke markers" d=" M -2.5 167.2383725200889 L 8.333453004122235 165.33146507412437 M 15.227468552200023 164.1179785176015 L 26.06092155632226 162.21107107163698 M 32.954937104400045 160.9975845151141 L 43.78839010852228 159.0906770691496 M 50.68240565660007 157.87719051262673 L 61.5158586607223 155.9702830666622 M 68.40987420880009 154.75679651013934 L 79.24332721292232 152.84988906417482 M 86.13734276100011 151.63640250765195 L 96.97079576512235 149.72949506168743 M 103.86481131320014 148.51600850516456 L 114.69826431732237 146.60910105920004 M 121.59227986540016 145.39561450267718 L 132.4257328695224 143.48870705671266 M 139.31974841760018 142.2752205001898 L 150.15320142172243 140.36831305422527 M 157.04721696980022 139.1548264977024 L 167.88066997392247 137.24791905173788 M 174.77468552200025 136.03443249521501 L 185.6081385261225 134.1275250492505 M 192.5021540742003 132.91403849272763 L 203.33560707832254 131.0071310467631 M 210.22962262640033 129.79364449024024 L 221.06307563052258 127.88673704427573 M 227.95709117860036 126.67325048775287 L 238.7905441827226 124.76634304178836 M 245.6845597308004 123.5528564852655 L 256.51801273492265 121.64594903930099 M 263.41202828300044 120.43246248277812 L 274.2454812871227 118.52555503681361 M 281.1394968352005 117.31206848029075 L 291.9729498393227 115.40516103432624 M 298.8669653874005 114.19167447780337 L 309.70041839152276 112.28476703183887 M 316.59443393960055 111.071280475316 L 327.4278869437228 109.1643730293515 M 334.3219024918006 107.95088647282863 L 345.15535549592283 106.04397902686412 M 352.0493710440006 104.83049247034126 L 362.88282404812287 102.92358502437675 M 369.77683959620066 101.71009846785388 L 380.6102926003229 99.80319102188938 M 387.5043081484007 98.58970446536651 L 398.33776115252294 96.68279701940199 M 405.23177670060073 95.46931046287912 L 416.065229704723 93.5624030169146 M 422.95924525280077 92.34891646039173 L 433.792698256923 90.44200901442721 M 440.6867138050008 89.22852245790435 L 451.520166809123 87.32161501193983 M 458.4141823572008 86.10812845541696 L 469.247635361323 84.20122100945244 M 476.14165090940077 82.98773445292957 L 486.975103913523 81.08082700696505 M 493.8691194616008 79.86734045044219 L 504.702572465723 77.96043300447766 M 511.5965880138008 76.7469464479548 L 522.430041017923 74.84003900199028 M 529.3240565660008 73.62655244546741 L 540.157509570123 71.71964499950289 M 547.0515251182007 70.50615844298002 L 557.884978122323 68.5992509970155 M 564.7789936704007 67.38576444049264 L 575.612446674523 65.47885699452812 M 582.5064622226007 64.26537043800525 L 593.339915226723 62.358462992040735 M 600.2339307748008 61.14497643551786 L 602.5 60.746102292900616" stroke-linecap="round" stroke-linejoin="round" stroke-miterlimit="10" stroke-width="2.5" stroke-opacity="0.1" stroke-dasharray=""/></g></g><g id="sketch-13142437"><title>Expression 10</title><path fill="#000000" stroke="none" paint-order="stroke fill markers" d="" fill-opacity="0.4"/><g><path fill="none" stroke="#000000" class="dcg-svg-curve" paint-order="fill stroke markers" d=" M -2.5 233.269062802376 L 8.350192377156628 235.07829617004646 M 15.254860253529028 236.22962649492766 L 26.105052630685655 238.03885986259812 M 33.009720507058056 239.19019018747932 L 43.85991288421468 240.99942355514978 M 50.76458076058708 242.15075388003098 L 61.61477313774371 243.95998724770143 M 68.51944101411611 245.11131757258264 L 79.36963339127274 246.9205509402531 M 86.27430126764514 248.0718812651343 L 97.12449364480177 249.88111463280475 M 104.02916152117417 251.03244495768595 L 114.8793538983308 252.8416783253564 M 121.7840217747032 253.9930086502376 L 132.63421415185982 255.80224201790807 M 139.53888202823222 256.9535723427893 L 150.38907440538884 258.76280571045976 M 157.29374228176124 259.91413603534096 L 168.14393465891786 261.7233694030114 M 175.04860253529026 262.8746997278926 L 185.89879491244687 264.6839330955631 M 192.80346278881927 265.8352634204443 L 203.6536551659759 267.64449678811474 M 210.5583230423483 268.79582711299594 L 221.4085154195049 270.6050604806664 M 228.3131832958773 271.7563908055476 L 239.16337567303393 273.56562417321805 M 246.06804354940633 274.71695449809926 L 256.91823592656294 276.5261878657697 M 263.82290380293534 277.6775181906509 L 274.673096180092 279.4867515583214 M 281.5777640564644 280.6380818832026 L 292.42795643362103 282.44731525087303 M 299.33262430999343 283.59864557575423 L 310.1828166871501 285.4078789434247 M 317.0874845635225 286.5592092683059 L 327.9376769406791 288.36844263597635 M 334.8423448170515 289.51977296085755 L 345.69253719420817 291.329006328528 M 352.59720507058057 292.4803366534092 L 363.4473974477372 294.28957002107967 M 370.3520653241096 295.44090034596087 L 381.20225770126626 297.2501337136313 M 388.10692557763866 298.40146403851253 L 398.9571179547953 300.210697406183 M 405.8617858311677 301.3620277310642 L 416.71197820832435 303.17126109873465 M 423.61664608469675 304.32259142361585 L 434.4668384618534 306.1318247912863 M 441.3715063382258 307.2831551161675 L 452.22169871538244 309.09238848383796 M 459.12636659175485 310.24371880871917 L 469.9765589689115 312.0529521763896 M 476.8812268452839 313.2042825012708 L 487.73141922244054 315.0135158689413 M 494.63608709881294 316.1648461938225 L 505.4862794759695 317.97407956149294 M 512.3909473523419 319.12540988637414 L 523.2411397294985 320.9346432540446 M 530.1458076058709 322.0859735789258 L 540.9959999830276 323.8952069465963 M 547.9006678594 325.0465372714775 L 558.7508602365566 326.855770639148 M 565.655528112929 328.0071009640292 L 576.5057204900857 329.8163343316997 M 583.410388366458 330.9676646565809 L 594.2605807436146 332.7768980242514 M 601.165248619987 333.9282283491326 L 602.5 334.1507936871766" stroke-linecap="round" stroke-linejoin="round" stroke-miterlimit="10" stroke-width="2.5" stroke-opacity="0.1" stroke-dasharray=""/></g></g><g id="sketch-13142437"><title>Expression 23</title><path fill="#2d70b3" stroke="none" paint-order="stroke fill markers" d="" fill-opacity="0.4"/><g><path fill="none" stroke="#2d70b3" class="dcg-svg-curve" paint-order="fill stroke markers" d=" M 116.1098117917252 199.7449264653233 L 427.35981669623186 198.3428994162039" stroke-linecap="round" stroke-linejoin="round" stroke-miterlimit="10" stroke-width="2.5" stroke-dasharray=""/></g></g><g id="sketch-13142437"><title>Expression 24</title><path fill="#2d70b3" stroke="none" paint-order="stroke fill markers" d="" fill-opacity="0.4"/><g><path fill="none" stroke="#2d70b3" class="dcg-svg-curve" paint-order="fill stroke markers" d=" M 116.1098117917252 199.7449264653233 L 106.99548513464758 147.96494641824432" stroke-linecap="round" stroke-linejoin="round" stroke-miterlimit="10" stroke-width="2.5" stroke-dasharray=""/></g></g><g id="sketch-13142437"><title>Expression 25</title><path fill="#2d70b3" stroke="none" paint-order="stroke fill markers" d="" fill-opacity="0.4"/><g><path fill="none" stroke="#2d70b3" class="dcg-svg-curve" paint-order="fill stroke markers" d=" M 116.1098117917252 199.7449264653233 L 107.46233183839551 251.604914650287" stroke-linecap="round" stroke-linejoin="round" stroke-miterlimit="10" stroke-width="2.5" stroke-dasharray=""/></g></g><g id="sketch-13142437"><title>Expression 26</title><path fill="#2d70b3" stroke="none" paint-order="stroke fill markers" d="" fill-opacity="0.4"/><g><path fill="none" stroke="#2d70b3" class="dcg-svg-curve" paint-order="fill stroke markers" d=" M 116.1098117917252 199.7449264653233 L 409.1311633820766 94.78293932204595" stroke-linecap="round" stroke-linejoin="round" stroke-miterlimit="10" stroke-width="2.5" stroke-dasharray=""/></g></g><g id="sketch-13142437"><title>Expression 27</title><path fill="#2d70b3" stroke="none" paint-order="stroke fill markers" d="" fill-opacity="0.4"/><g><path fill="none" stroke="#2d70b3" class="dcg-svg-curve" paint-order="fill stroke markers" d=" M 427.35981669623186 198.3428994162039 L 107.46233183839553 251.604914650287" stroke-linecap="round" stroke-linejoin="round" stroke-miterlimit="10" stroke-width="2.5" stroke-dasharray=""/></g></g><g id="sketch-13142437"><title>Expression 28</title><path fill="#2d70b3" stroke="none" paint-order="stroke fill markers" d="" fill-opacity="0.4"/><g><path fill="none" stroke="#2d70b3" class="dcg-svg-curve" paint-order="fill stroke markers" d=" M 427.35981669623186 198.3428994162039 L 410.06485678957245 302.06287578613126" stroke-linecap="round" stroke-linejoin="round" stroke-miterlimit="10" stroke-width="2.5" stroke-dasharray=""/></g></g><g id="sketch-13142437"><title>Expression 29</title><path fill="#2d70b3" stroke="none" paint-order="stroke fill markers" d="" fill-opacity="0.4"/><g><path fill="none" stroke="#2d70b3" class="dcg-svg-curve" paint-order="fill stroke markers" d=" M 427.35981669623186 198.3428994162039 L 409.1311633820766 94.78293932204595" stroke-linecap="round" stroke-linejoin="round" stroke-miterlimit="10" stroke-width="2.5" stroke-dasharray=""/></g></g><g id="sketch-13142437"><title>Expression 30</title><path fill="#2d70b3" stroke="none" paint-order="stroke fill markers" d="" fill-opacity="0.4"/><g><path fill="none" stroke="#2d70b3" class="dcg-svg-curve" paint-order="fill stroke markers" d=" M 106.99548513464758 147.96494641824432 L 409.1311633820766 94.78293932204595" stroke-linecap="round" stroke-linejoin="round" stroke-miterlimit="10" stroke-width="2.5" stroke-dasharray=""/></g></g><g id="sketch-13142437"><title>Expression 31</title><path fill="#2d70b3" stroke="none" paint-order="stroke fill markers" d="" fill-opacity="0.4"/><g><path fill="none" stroke="#2d70b3" class="dcg-svg-curve" paint-order="fill stroke markers" d=" M 107.46233183839551 251.604914650287 L 410.06485678957245 302.06287578613126" stroke-linecap="round" stroke-linejoin="round" stroke-miterlimit="10" stroke-width="2.5" stroke-dasharray=""/></g></g><g id="sketch-13142437"><title>Expression 34</title><path fill="#2d70b3" stroke="none" paint-order="stroke fill markers" d="" fill-opacity="0.4"/><g><path fill="none" stroke="#2d70b3" class="dcg-svg-curve" paint-order="fill stroke markers" d=" M 106.99548513464758 147.96494641824432 L 80.94121549388458 160.66287024347992" stroke-linecap="round" stroke-linejoin="round" stroke-miterlimit="10" stroke-width="2.5" stroke-dasharray=""/></g></g><g id="sketch-13142437"><title>Expression 35</title><path fill="#2d70b3" stroke="none" paint-order="stroke fill markers" d="" fill-opacity="0.4"/><g><path fill="none" stroke="#2d70b3" class="dcg-svg-curve" paint-order="fill stroke markers" d=" M 80.94121549388458 160.66287024347992 L 116.1098117917252 199.7449264653233" stroke-linecap="round" stroke-linejoin="round" stroke-miterlimit="10" stroke-width="2.5" stroke-dasharray=""/></g></g><g id="sketch-13142437"><title>Expression 36</title><path fill="#2d70b3" stroke="none" paint-order="stroke fill markers" d="" fill-opacity="0.4"/><g><path fill="none" stroke="#2d70b3" class="dcg-svg-curve" paint-order="fill stroke markers" d=" M 80.94121549388458 160.66287024347992 L 65.5748161790475 185.23797976677687" stroke-linecap="round" stroke-linejoin="round" stroke-miterlimit="10" stroke-width="2.5" stroke-dasharray=""/></g></g><g id="sketch-13142437"><title>Expression 37</title><path fill="#2d70b3" stroke="none" paint-order="stroke fill markers" d="" fill-opacity="0.4"/><g><path fill="none" stroke="#2d70b3" class="dcg-svg-curve" paint-order="fill stroke markers" d=" M 65.5748161790475 185.23797976677687 L 76.14779244392248 188.27313592460305 M 82.87605006702475 190.2045989341288 L 93.44902633189974 193.23975509195498 M 100.17728395500201 195.17121810148072 L 110.75026021987699 198.20637425930693" stroke-linecap="round" stroke-linejoin="round" stroke-miterlimit="10" stroke-width="2.5" stroke-dasharray=""/></g></g><g id="sketch-13142437"><title>Expression 38</title><path fill="#2d70b3" stroke="none" paint-order="stroke fill markers" d="" fill-opacity="0.4"/><g><path fill="none" stroke="#2d70b3" class="dcg-svg-curve" paint-order="fill stroke markers" d=" M 107.46233183839551 251.604914650287 L 81.2947260986344 239.14222449793664" stroke-linecap="round" stroke-linejoin="round" stroke-miterlimit="10" stroke-width="2.5" stroke-dasharray=""/></g></g><g id="sketch-13142437"><title>Expression 39</title><path fill="#2d70b3" stroke="none" paint-order="stroke fill markers" d="" fill-opacity="0.4"/><g><path fill="none" stroke="#2d70b3" class="dcg-svg-curve" paint-order="fill stroke markers" d=" M 81.2947260986344 239.14222449793664 L 116.1098117917252 199.7449264653233" stroke-linecap="round" stroke-linejoin="round" stroke-miterlimit="10" stroke-width="2.5" stroke-dasharray=""/></g></g><g id="sketch-13142437"><title>Expression 40</title><path fill="#2d70b3" stroke="none" paint-order="stroke fill markers" d="" fill-opacity="0.4"/><g><path fill="none" stroke="#2d70b3" class="dcg-svg-curve" paint-order="fill stroke markers" d=" M 81.2947260986344 239.14222449793664 L 65.70755746595793 214.7065454608897" stroke-linecap="round" stroke-linejoin="round" stroke-miterlimit="10" stroke-width="2.5" stroke-dasharray=""/></g></g><g id="sketch-13142437"><title>Expression 41</title><path fill="#2d70b3" stroke="none" paint-order="stroke fill markers" d="" fill-opacity="0.4"/><g><path fill="none" stroke="#2d70b3" class="dcg-svg-curve" paint-order="fill stroke markers" d=" M 65.70755746595793 214.7065454608897 L 76.25276148194169 211.57626236486146 M 82.96334585574952 209.5842640310253 L 93.50854987173327 206.45398093499705 M 100.21913424554111 204.46198260116088 L 110.76433826152486 201.33169950513266" stroke-linecap="round" stroke-linejoin="round" stroke-miterlimit="10" stroke-width="2.5" stroke-dasharray=""/></g></g><g id="sketch-13142437"><title>Expression 42</title><path fill="#2d70b3" stroke="none" paint-order="stroke fill markers" d="" fill-opacity="0.4"/><g><path fill="none" stroke="#2d70b3" class="dcg-svg-curve" paint-order="fill stroke markers" d=" M 410.06485678957245 302.06287578613126 L 467.65607243852503 295.46736033878994" stroke-linecap="round" stroke-linejoin="round" stroke-miterlimit="10" stroke-width="2.5" stroke-dasharray=""/></g></g><g id="sketch-13142437"><title>Expression 43</title><path fill="#2d70b3" stroke="none" paint-order="stroke fill markers" d="" fill-opacity="0.4"/><g><path fill="none" stroke="#2d70b3" class="dcg-svg-curve" paint-order="fill stroke markers" d=" M 467.65607243852503 295.46736033878994 L 427.35981669623186 198.3428994162039" stroke-linecap="round" stroke-linejoin="round" stroke-miterlimit="10" stroke-width="2.5" stroke-dasharray=""/></g></g><g id="sketch-13142437"><title>Expression 44</title><path fill="#2d70b3" stroke="none" paint-order="stroke fill markers" d="" fill-opacity="0.4"/><g><path fill="none" stroke="#2d70b3" class="dcg-svg-curve" paint-order="fill stroke markers" d=" M 467.65607243852503 295.46736033878994 L 513.0011025318596 259.3553513975132" stroke-linecap="round" stroke-linejoin="round" stroke-miterlimit="10" stroke-width="2.5" stroke-dasharray=""/></g></g><g id="sketch-13142437"><title>Expression 45</title><path fill="#2d70b3" stroke="none" paint-order="stroke fill markers" d="" fill-opacity="0.4"/><g><path fill="none" stroke="#2d70b3" class="dcg-svg-curve" paint-order="fill stroke markers" d=" M 513.0011025318596 259.3553513975132 L 504.04212992826535 252.97281194302892 M 498.3409655441599 248.91119592653894 L 489.38199294056574 242.52865647205468 M 483.6808285564603 238.4670404555647 L 474.7218559528661 232.08450100108044 M 469.0206915687607 228.02288498459046 L 460.0617189651665 221.6403455301062 M 454.3605545810611 217.57872951361622 L 445.40158197746683 211.19619005913196 M 439.7004175933614 207.134574042642 L 430.7414449897672 200.75203458815773" stroke-linecap="round" stroke-linejoin="round" stroke-miterlimit="10" stroke-width="2.5" stroke-dasharray=""/></g></g><g id="sketch-13142437"><title>Expression 46</title><path fill="#2d70b3" stroke="none" paint-order="stroke fill markers" d="" fill-opacity="0.4"/><g><path fill="none" stroke="#2d70b3" class="dcg-svg-curve" paint-order="fill stroke markers" d=" M 409.1311633820766 94.78293932204595 L 466.7794598147832 100.8593578681185" stroke-linecap="round" stroke-linejoin="round" stroke-miterlimit="10" stroke-width="2.5" stroke-dasharray=""/></g></g><g id="sketch-13142437"><title>Expression 47</title><path fill="#2d70b3" stroke="none" paint-order="stroke fill markers" d="" fill-opacity="0.4"/><g><path fill="none" stroke="#2d70b3" class="dcg-svg-curve" paint-order="fill stroke markers" d=" M 466.7794598147832 100.8593578681185 L 427.35981669623186 198.3428994162039" stroke-linecap="round" stroke-linejoin="round" stroke-miterlimit="10" stroke-width="2.5" stroke-dasharray=""/></g></g><g id="sketch-13142437"><title>Expression 48</title><path fill="#2d70b3" stroke="none" paint-order="stroke fill markers" d="" fill-opacity="0.4"/><g><path fill="none" stroke="#2d70b3" class="dcg-svg-curve" paint-order="fill stroke markers" d=" M 466.7794598147832 100.8593578681185 L 512.4479766060938 136.56139587748245" stroke-linecap="round" stroke-linejoin="round" stroke-miterlimit="10" stroke-width="2.5" stroke-dasharray=""/></g></g><g id="sketch-13142437"><title>Expression 49</title><path fill="#2d70b3" stroke="none" paint-order="stroke fill markers" d="" fill-opacity="0.4"/><g><path fill="none" stroke="#2d70b3" class="dcg-svg-curve" paint-order="fill stroke markers" d=" M 512.4479766060938 136.56139587748245 L 503.54686674903496 143.02438615386154 M 497.8825241127248 147.13719814792097 L 488.98141425566604 153.60018842430006 M 483.3170716193559 157.71300041835948 L 474.4159617622971 164.17599069473857 M 468.75161912598696 168.288802688798 L 459.85050926892814 174.7517929651771 M 454.186166632618 178.86460495923652 L 445.2850567755592 185.3275952356156 M 439.62071413924906 189.440407229675 L 430.71960428219023 195.9033975060541" stroke-linecap="round" stroke-linejoin="round" stroke-miterlimit="10" stroke-width="2.5" stroke-dasharray=""/></g></g><g id="sketch-13142437"><title>v6</title><path fill="#2d70b3" stroke="none" class="dcg-svg-point" paint-order="stroke fill markers" d=" M 84.94121549388458 160.66287024347992 A 4 4 0 1 1 84.94121349388475 160.65887024414658 L 82.94121549388458 160.66287024347992 A 2 2 0 1 0 82.94121449388467 160.6648702431466 Z"/><path fill="white" stroke="none" class="dcg-svg-point" paint-order="stroke fill markers" d=" M 82.94121549388458 160.66287024347992 A 2 2 0 1 1 82.94121449388467 160.66087024381324 Z"/></g><g id="sketch-13142437"><title>v7</title><path fill="#2d70b3" stroke="none" class="dcg-svg-point" paint-order="stroke fill markers" d=" M 85.2947260986344 239.14222449793664 A 4 4 0 1 1 85.29472409863456 239.1382244986033 L 83.2947260986344 239.14222449793664 A 2 2 0 1 0 83.29472509863449 239.14422449760332 Z"/><path fill="white" stroke="none" class="dcg-svg-point" paint-order="stroke fill markers" d=" M 83.2947260986344 239.14222449793664 A 2 2 0 1 1 83.29472509863449 239.14022449826996 Z"/></g><g id="sketch-13142437"><title>v8</title><path fill="#2d70b3" stroke="none" class="dcg-svg-point" paint-order="stroke fill markers" d=" M 471.65607243852503 295.46736033878994 A 4 4 0 1 1 471.6560704385252 295.4633603394566 L 469.65607243852503 295.46736033878994 A 2 2 0 1 0 469.6560714385251 295.4693603384566 Z"/><path fill="white" stroke="none" class="dcg-svg-point" paint-order="stroke fill markers" d=" M 469.65607243852503 295.46736033878994 A 2 2 0 1 1 469.6560714385251 295.46536033912327 Z"/></g><g id="sketch-13142437"><title>v9</title><path fill="#2d70b3" stroke="none" class="dcg-svg-point" paint-order="stroke fill markers" d=" M 470.7794598147832 100.8593578681185 A 4 4 0 1 1 470.77945781478337 100.85535786878516 L 468.7794598147832 100.8593578681185 A 2 2 0 1 0 468.77945881478325 100.86135786778516 Z"/><path fill="white" stroke="none" class="dcg-svg-point" paint-order="stroke fill markers" d=" M 468.7794598147832 100.8593578681185 A 2 2 0 1 1 468.77945881478325 100.85735786845183 Z"/></g><g id="sketch-13142437"><title>v10</title><path fill="#2d70b3" stroke="none" class="dcg-svg-point" paint-order="stroke fill markers" d=" M 69.5748161790475 185.23797976677687 A 4 4 0 1 1 69.57481417904766 185.23397976744354 L 67.5748161790475 185.23797976677687 A 2 2 0 1 0 67.57481517904759 185.23997976644355 Z"/><path fill="white" stroke="none" class="dcg-svg-point" paint-order="stroke fill markers" d=" M 67.5748161790475 185.23797976677687 A 2 2 0 1 1 67.57481517904759 185.2359797671102 Z"/></g><g id="sketch-13142437"><title>v11</title><path fill="#2d70b3" stroke="none" class="dcg-svg-point" paint-order="stroke fill markers" d=" M 69.70755746595793 214.7065454608897 A 4 4 0 1 1 69.7075554659581 214.70254546155638 L 67.70755746595793 214.7065454608897 A 2 2 0 1 0 67.70755646595802 214.7085454605564 Z"/><path fill="white" stroke="none" class="dcg-svg-point" paint-order="stroke fill markers" d=" M 67.70755746595793 214.7065454608897 A 2 2 0 1 1 67.70755646595802 214.70454546122303 Z"/></g><g id="sketch-13142437"><title>v12</title><path fill="#2d70b3" stroke="none" class="dcg-svg-point" paint-order="stroke fill markers" d=" M 517.0011025318596 259.3553513975132 A 4 4 0 1 1 517.0011005318597 259.3513513981798 L 515.0011025318596 259.3553513975132 A 2 2 0 1 0 515.0011015318597 259.35735139717985 Z"/><path fill="white" stroke="none" class="dcg-svg-point" paint-order="stroke fill markers" d=" M 515.0011025318596 259.3553513975132 A 2 2 0 1 1 515.0011015318597 259.3533513978465 Z"/></g><g id="sketch-13142437"><title>v13</title><path fill="#2d70b3" stroke="none" class="dcg-svg-point" paint-order="stroke fill markers" d=" M 516.4479766060938 136.56139587748245 A 4 4 0 1 1 516.4479746060939 136.55739587814912 L 514.4479766060938 136.56139587748245 A 2 2 0 1 0 514.4479756060939 136.56339587714913 Z"/><path fill="white" stroke="none" class="dcg-svg-point" paint-order="stroke fill markers" d=" M 514.4479766060938 136.56139587748245 A 2 2 0 1 1 514.4479756060939 136.55939587781577 Z"/></g><g id="sketch-13142437"><title>v0</title><path fill="white" stroke="none" class="dcg-svg-point" paint-order="stroke fill markers" d=" M 123.6098117917252 199.7449264653233 A 7.5 7.5 0 1 1 123.60980804172551 199.73742646657328 L 122.1098117917252 199.7449264653233 A 6 6 0 1 0 122.10980879172546 199.7509264643233 Z"/><path fill="#c74440" stroke="none" class="dcg-svg-point" paint-order="stroke fill markers" d=" M 122.1098117917252 199.7449264653233 A 6 6 0 1 1 122.10980879172546 199.73892646632328 Z"/></g><g id="sketch-13142437"><title>v1</title><path fill="white" stroke="none" class="dcg-svg-point" paint-order="stroke fill markers" d=" M 434.85981669623186 198.3428994162039 A 7.5 7.5 0 1 1 434.8598129462322 198.33539941745389 L 433.35981669623186 198.3428994162039 A 6 6 0 1 0 433.3598136962321 198.3488994152039 Z"/><path fill="#c74440" stroke="none" class="dcg-svg-point" paint-order="stroke fill markers" d=" M 433.35981669623186 198.3428994162039 A 6 6 0 1 1 433.3598136962321 198.33689941720388 Z"/></g><g id="sketch-13142437"><title>v2</title><path fill="white" stroke="none" class="dcg-svg-point" paint-order="stroke fill markers" d=" M 114.49548513464758 147.96494641824432 A 7.5 7.5 0 1 1 114.49548138464789 147.95744641949432 L 112.99548513464758 147.96494641824432 A 6 6 0 1 0 112.99548213464783 147.97094641724433 Z"/><path fill="#c74440" stroke="none" class="dcg-svg-point" paint-order="stroke fill markers" d=" M 112.99548513464758 147.96494641824432 A 6 6 0 1 1 112.99548213464783 147.9589464192443 Z"/></g><g id="sketch-13142437"><title>v3</title><path fill="white" stroke="none" class="dcg-svg-point" paint-order="stroke fill markers" d=" M 114.96233183839551 251.604914650287 A 7.5 7.5 0 1 1 114.96232808839582 251.59741465153698 L 113.46233183839551 251.604914650287 A 6 6 0 1 0 113.46232883839576 251.610914649287 Z"/><path fill="#c74440" stroke="none" class="dcg-svg-point" paint-order="stroke fill markers" d=" M 113.46233183839551 251.604914650287 A 6 6 0 1 1 113.46232883839576 251.59891465128698 Z"/></g><g id="sketch-13142437"><title>v4</title><path fill="white" stroke="none" class="dcg-svg-point" paint-order="stroke fill markers" d=" M 417.56485678957245 302.06287578613126 A 7.5 7.5 0 1 1 417.56485303957277 302.05537578738125 L 416.06485678957245 302.06287578613126 A 6 6 0 1 0 416.0648537895727 302.06887578513124 Z"/><path fill="#c74440" stroke="none" class="dcg-svg-point" paint-order="stroke fill markers" d=" M 416.06485678957245 302.06287578613126 A 6 6 0 1 1 416.0648537895727 302.0568757871313 Z"/></g><g id="sketch-13142437"><title>v5</title><path fill="white" stroke="none" class="dcg-svg-point" paint-order="stroke fill markers" d=" M 416.6311633820766 94.78293932204595 A 7.5 7.5 0 1 1 416.6311596320769 94.77543932329594 L 415.1311633820766 94.78293932204595 A 6 6 0 1 0 415.1311603820768 94.78893932104594 Z"/><path fill="#c74440" stroke="none" class="dcg-svg-point" paint-order="stroke fill markers" d=" M 415.1311633820766 94.78293932204595 A 6 6 0 1 1 415.1311603820768 94.77693932304595 Z"/></g></g><g id="labels-13142437"><g transform="rotate(0,0,0) translate(60,138)"><g class="dcg-svg-label"><text fill="none" stroke="#FFF" font-family="arial, sans-serif" font-size="15.4px" font-style="normal" font-weight="400" text-decoration="normal" x="0" y="13.9888" text-anchor="start" stroke-linecap="round" stroke-linejoin="round" stroke-miterlimit="2" stroke-width="3" stroke-dasharray="">v6</text><text fill="rgb(45, 112, 179)" stroke="none" font-family="arial, sans-serif" font-size="15.4px" font-style="normal" font-weight="400" text-decoration="normal" x="0" y="13.9888" text-anchor="start">v6</text></g></g><g transform="rotate(0,0,0) translate(60,244)"><g class="dcg-svg-label"><text fill="none" stroke="#FFF" font-family="arial, sans-serif" font-size="15.4px" font-style="normal" font-weight="400" text-decoration="normal" x="0" y="13.9888" text-anchor="start" stroke-linecap="round" stroke-linejoin="round" stroke-miterlimit="2" stroke-width="3" stroke-dasharray="">v7</text><text fill="rgb(45, 112, 179)" stroke="none" font-family="arial, sans-serif" font-size="15.4px" font-style="normal" font-weight="400" text-decoration="normal" x="0" y="13.9888" text-anchor="start">v7</text></g></g><g transform="rotate(0,0,0) translate(460,302)"><g class="dcg-svg-label"><text fill="none" stroke="#FFF" font-family="arial, sans-serif" font-size="15.4px" font-style="normal" font-weight="400" text-decoration="normal" x="0" y="13.9888" text-anchor="start" stroke-linecap="round" stroke-linejoin="round" stroke-miterlimit="2" stroke-width="3" stroke-dasharray="">v8</text><text fill="rgb(45, 112, 179)" stroke="none" font-family="arial, sans-serif" font-size="15.4px" font-style="normal" font-weight="400" text-decoration="normal" x="0" y="13.9888" text-anchor="start">v8</text></g></g><g transform="rotate(0,0,0) translate(459,76)"><g class="dcg-svg-label"><text fill="none" stroke="#FFF" font-family="arial, sans-serif" font-size="15.4px" font-style="normal" font-weight="400" text-decoration="normal" x="0" y="13.9888" text-anchor="start" stroke-linecap="round" stroke-linejoin="round" stroke-miterlimit="2" stroke-width="3" stroke-dasharray="">v9</text><text fill="rgb(45, 112, 179)" stroke="none" font-family="arial, sans-serif" font-size="15.4px" font-style="normal" font-weight="400" text-decoration="normal" x="0" y="13.9888" text-anchor="start">v9</text></g></g><g transform="rotate(0,0,0) translate(36,162)"><g class="dcg-svg-label"><text fill="none" stroke="#FFF" font-family="arial, sans-serif" font-size="15.4px" font-style="normal" font-weight="400" text-decoration="normal" x="0" y="13.9888" text-anchor="start" stroke-linecap="round" stroke-linejoin="round" stroke-miterlimit="2" stroke-width="3" stroke-dasharray="">v10</text><text fill="rgb(45, 112, 179)" stroke="none" font-family="arial, sans-serif" font-size="15.4px" font-style="normal" font-weight="400" text-decoration="normal" x="0" y="13.9888" text-anchor="start">v10</text></g></g><g transform="rotate(0,0,0) translate(32,206)"><g class="dcg-svg-label"><text fill="none" stroke="#FFF" font-family="arial, sans-serif" font-size="15.4px" font-style="normal" font-weight="400" text-decoration="normal" x="0" y="13.9888" text-anchor="start" stroke-linecap="round" stroke-linejoin="round" stroke-miterlimit="2" stroke-width="3" stroke-dasharray="">v11</text><text fill="rgb(45, 112, 179)" stroke="none" font-family="arial, sans-serif" font-size="15.4px" font-style="normal" font-weight="400" text-decoration="normal" x="0" y="13.9888" text-anchor="start">v11</text></g></g><g transform="rotate(0,0,0) translate(523,250)"><g class="dcg-svg-label"><text fill="none" stroke="#FFF" font-family="arial, sans-serif" font-size="15.4px" font-style="normal" font-weight="400" text-decoration="normal" x="0" y="13.9888" text-anchor="start" stroke-linecap="round" stroke-linejoin="round" stroke-miterlimit="2" stroke-width="3" stroke-dasharray="">v12</text><text fill="rgb(45, 112, 179)" stroke="none" font-family="arial, sans-serif" font-size="15.4px" font-style="normal" font-weight="400" text-decoration="normal" x="0" y="13.9888" text-anchor="start">v12</text></g></g><g transform="rotate(0,0,0) translate(522,128)"><g class="dcg-svg-label"><text fill="none" stroke="#FFF" font-family="arial, sans-serif" font-size="15.4px" font-style="normal" font-weight="400" text-decoration="normal" x="0" y="13.9888" text-anchor="start" stroke-linecap="round" stroke-linejoin="round" stroke-miterlimit="2" stroke-width="3" stroke-dasharray="">v13</text><text fill="rgb(45, 112, 179)" stroke="none" font-family="arial, sans-serif" font-size="15.4px" font-style="normal" font-weight="400" text-decoration="normal" x="0" y="13.9888" text-anchor="start">v13</text></g></g><g transform="rotate(0,0,0) translate(122,206)"><g class="dcg-svg-label"><text fill="none" stroke="#FFF" font-family="arial, sans-serif" font-size="15.4px" font-style="normal" font-weight="400" text-decoration="normal" x="0" y="13.9888" text-anchor="start" stroke-linecap="round" stroke-linejoin="round" stroke-miterlimit="2" stroke-width="3" stroke-dasharray="">v0</text><text fill="rgb(199, 68, 64)" stroke="none" font-family="arial, sans-serif" font-size="15.4px" font-style="normal" font-weight="400" text-decoration="normal" x="0" y="13.9888" text-anchor="start">v0</text></g></g><g transform="rotate(0,0,0) translate(405,204)"><g class="dcg-svg-label"><text fill="none" stroke="#FFF" font-family="arial, sans-serif" font-size="15.4px" font-style="normal" font-weight="400" text-decoration="normal" x="0" y="13.9888" text-anchor="start" stroke-linecap="round" stroke-linejoin="round" stroke-miterlimit="2" stroke-width="3" stroke-dasharray="">v1</text><text fill="rgb(199, 68, 64)" stroke="none" font-family="arial, sans-serif" font-size="15.4px" font-style="normal" font-weight="400" text-decoration="normal" x="0" y="13.9888" text-anchor="start">v1</text></g></g><g transform="rotate(0,0,0) translate(99,121)"><g class="dcg-svg-label"><text fill="none" stroke="#FFF" font-family="arial, sans-serif" font-size="15.4px" font-style="normal" font-weight="400" text-decoration="normal" x="0" y="13.9888" text-anchor="start" stroke-linecap="round" stroke-linejoin="round" stroke-miterlimit="2" stroke-width="3" stroke-dasharray="">v2</text><text fill="rgb(199, 68, 64)" stroke="none" font-family="arial, sans-serif" font-size="15.4px" font-style="normal" font-weight="400" text-decoration="normal" x="0" y="13.9888" text-anchor="start">v2</text></g></g><g transform="rotate(0,0,0) translate(99,261)"><g class="dcg-svg-label"><text fill="none" stroke="#FFF" font-family="arial, sans-serif" font-size="15.4px" font-style="normal" font-weight="400" text-decoration="normal" x="0" y="13.9888" text-anchor="start" stroke-linecap="round" stroke-linejoin="round" stroke-miterlimit="2" stroke-width="3" stroke-dasharray="">v3</text><text fill="rgb(199, 68, 64)" stroke="none" font-family="arial, sans-serif" font-size="15.4px" font-style="normal" font-weight="400" text-decoration="normal" x="0" y="13.9888" text-anchor="start">v3</text></g></g><g transform="rotate(0,0,0) translate(416,278)"><g class="dcg-svg-label"><text fill="none" stroke="#FFF" font-family="arial, sans-serif" font-size="15.4px" font-style="normal" font-weight="400" text-decoration="normal" x="0" y="13.9888" text-anchor="start" stroke-linecap="round" stroke-linejoin="round" stroke-miterlimit="2" stroke-width="3" stroke-dasharray="">v4</text><text fill="rgb(199, 68, 64)" stroke="none" font-family="arial, sans-serif" font-size="15.4px" font-style="normal" font-weight="400" text-decoration="normal" x="0" y="13.9888" text-anchor="start">v4</text></g></g><g transform="rotate(0,0,0) translate(401,68)"><g class="dcg-svg-label"><text fill="none" stroke="#FFF" font-family="arial, sans-serif" font-size="15.4px" font-style="normal" font-weight="400" text-decoration="normal" x="0" y="13.9888" text-anchor="start" stroke-linecap="round" stroke-linejoin="round" stroke-miterlimit="2" stroke-width="3" stroke-dasharray="">v5</text><text fill="rgb(199, 68, 64)" stroke="none" font-family="arial, sans-serif" font-size="15.4px" font-style="normal" font-weight="400" text-decoration="normal" x="0" y="13.9888" text-anchor="start">v5</text></g></g></g><g id="labels-13142437"/></g></svg>