<svg width="659" height="195" viewBox="0 0 659 195" fill="none" xmlns="http://www.w3.org/2000/svg">
<path d="M480.055 87.9692C478.078 83.8215 475.219 80.6088 471.48 78.3308C467.741 76.0529 463.389 74.9139 458.425 74.9139C453.461 74.9139 448.991 76.0529 445.004 78.3308C441.029 80.6088 437.891 83.8753 435.613 88.1303C433.335 92.3854 432.196 97.2959 432.196 102.873C432.196 108.449 433.335 113.349 435.613 117.561C437.891 121.784 441.018 125.029 445.004 127.307C448.98 129.585 453.461 130.724 458.425 130.724C465.366 130.724 471.072 128.65 475.563 124.502C480.055 120.355 482.666 114.746 483.418 107.665H455.051V100.111H493.314V107.257C492.766 113.113 490.929 118.464 487.802 123.331C484.675 128.199 480.56 132.035 475.456 134.861C470.352 137.687 464.678 139.094 458.414 139.094C451.817 139.094 445.799 137.547 440.352 134.452C434.904 131.358 430.606 127.06 427.447 121.548C424.288 116.035 422.698 109.814 422.698 102.873C422.698 95.9313 424.277 89.6991 427.447 84.1546C430.606 78.6102 434.915 74.2907 440.352 71.1961C445.789 68.1015 451.817 66.5542 458.414 66.5542C465.968 66.5542 472.651 68.4238 478.464 72.1631C484.277 75.9024 488.511 81.1783 491.165 87.9799H480.044L480.055 87.9692Z" fill="white"/>
<path d="M547.04 102.916C542.989 106.827 536.821 108.782 528.526 108.782H514.859V138.471H505.575V67.3601H528.537C536.564 67.3601 542.667 69.2942 546.847 73.1732C551.026 77.0521 553.122 82.0486 553.122 88.1733C553.122 94.298 551.102 99.0044 547.051 102.916H547.04ZM539.948 97.7579C542.398 95.5122 543.623 92.3209 543.623 88.1626C543.623 79.3838 538.584 74.9998 528.526 74.9998H514.859V101.121H528.526C533.695 101.121 537.509 100.004 539.959 97.7579H539.948Z" fill="white"/>
<path d="M573.719 67.3601V112.361C573.719 118.689 575.266 123.374 578.361 126.437C581.456 129.499 585.754 131.025 591.266 131.025C596.778 131.025 600.979 129.499 604.074 126.437C607.169 123.374 608.716 118.679 608.716 112.361V67.3601H618V112.253C618 118.174 616.807 123.159 614.432 127.199C612.047 131.25 608.834 134.259 604.794 136.225C600.743 138.202 596.209 139.18 591.169 139.18C586.13 139.18 581.595 138.192 577.544 136.225C573.494 134.248 570.302 131.24 567.949 127.199C565.607 123.149 564.425 118.174 564.425 112.253V67.3601H573.719Z" fill="white"/>
<path d="M225.075 67.3601V74.9139H205.691V138.482H196.407V74.9139H176.915V67.3601H225.075Z" fill="white"/>
<path d="M284.667 82.5537L250.992 164.797H241.397L252.421 137.859L229.867 82.5537H240.172L257.719 127.855L275.061 82.5537H284.667Z" fill="white"/>
<path d="M311.444 84.8531C315.086 82.7148 319.32 81.6403 324.144 81.6403C328.969 81.6403 333.611 82.833 337.662 85.2077C341.713 87.5931 344.893 90.9348 347.203 95.2544C349.514 99.5739 350.674 104.592 350.674 110.308C350.674 116.025 349.514 120.989 347.203 125.405C344.893 129.832 341.713 133.26 337.662 135.71C333.611 138.159 329.109 139.384 324.144 139.384C319.18 139.384 315.183 138.31 311.541 136.172C307.898 134.033 305.126 131.358 303.224 128.167V165.001H293.94V82.5644H303.224V92.8689C305.061 89.6777 307.801 87.0021 311.433 84.8639L311.444 84.8531ZM338.64 99.2945C336.942 96.1677 334.642 93.7823 331.752 92.149C328.862 90.5158 325.681 89.6991 322.21 89.6991C318.74 89.6991 315.667 90.5373 312.776 92.2027C309.886 93.8682 307.576 96.2859 305.835 99.4449C304.105 102.604 303.235 106.268 303.235 110.416C303.235 114.563 304.105 118.324 305.835 121.483C307.565 124.642 309.886 127.06 312.776 128.725C315.667 130.391 318.815 131.229 322.21 131.229C325.606 131.229 328.862 130.402 331.752 128.725C334.642 127.06 336.942 124.642 338.64 121.483C340.337 118.324 341.186 114.596 341.186 110.308C341.186 106.021 340.337 102.421 338.64 99.2945Z" fill="white"/>
<path d="M413.628 113.983H368.94C369.284 119.495 371.164 123.793 374.602 126.888C378.041 129.982 382.199 131.53 387.099 131.53C391.107 131.53 394.459 130.595 397.145 128.725C399.832 126.856 401.723 124.352 402.808 121.225H412.812C411.318 126.598 408.32 130.971 403.829 134.334C399.337 137.697 393.761 139.384 387.099 139.384C381.791 139.384 377.052 138.192 372.862 135.817C368.682 133.442 365.394 130.047 363.019 125.663C360.634 121.279 359.452 116.197 359.452 110.405C359.452 104.613 360.612 99.5524 362.922 95.2006C365.233 90.8489 368.488 87.4964 372.668 85.154C376.848 82.8115 381.662 81.6296 387.11 81.6296C392.557 81.6296 397.113 82.79 401.186 85.1002C405.269 87.4104 408.417 90.591 410.62 94.6419C412.833 98.6928 413.94 103.259 413.94 108.363C413.94 110.136 413.843 112.006 413.639 113.972L413.628 113.983ZM402.002 97.3067C400.433 94.7601 398.317 92.8152 395.63 91.4936C392.944 90.1719 389.968 89.5057 386.701 89.5057C382.006 89.5057 378.009 90.9993 374.71 93.9972C371.411 96.9951 369.52 101.143 369.047 106.44H404.345C404.345 102.905 403.56 99.864 402.002 97.3067Z" fill="white"/>
<path d="M73.0958 86.046L50.2291 67.178L30.9487 92.0102C28.9364 94.5999 28.4417 98.0641 29.6559 101.113L48.0144 147.314C49.5321 151.125 52.9947 153.805 57.0644 154.321L117.761 161.989L107.913 137.627C98.5258 116.203 89.4421 99.5327 73.0846 86.0348L73.0958 86.046Z" fill="white"/>
<path d="M145.383 111.831L127.137 64.5658C125.844 61.225 122.753 58.9267 119.178 58.6465L68.1718 54.6778C61.4377 54.1509 59.2792 50.5409 58.6046 48.7248L58.3236 47.6934L48.228 11L41.1792 27.6482C39.3129 32.0541 40.5046 37.1551 44.1359 40.2942L60.0774 54.05L74.726 66.0793C95.1644 82.862 108.779 106.495 112.995 132.56L117.761 162L144.54 120.161C146.125 117.672 146.44 114.589 145.383 111.831Z" fill="url(#paint0_linear_122_155)"/>
<defs>
<linearGradient id="paint0_linear_122_155" x1="93" y1="73.5" x2="117.5" y2="162" gradientUnits="userSpaceOnUse">
<stop stop-color="white"/>
<stop offset="1" stop-color="white" stop-opacity="0.75"/>
</linearGradient>
</defs>
</svg>
