<svg width="158" height="40" viewBox="0 0 158 40" fill="none" xmlns="http://www.w3.org/2000/svg">
<g id="logo" clip-path="url(#clip0_95_487)">
<g id="gpu">
<path d="M120.665 19.7288C120.141 18.6373 119.383 17.7918 118.391 17.1924C117.399 16.5929 116.244 16.2932 114.927 16.2932C113.61 16.2932 112.424 16.5929 111.367 17.1924C110.312 17.7918 109.48 18.6514 108.875 19.7712C108.271 20.8909 107.969 22.1832 107.969 23.6507C107.969 25.1183 108.271 26.4077 108.875 27.5161C109.48 28.6274 110.309 29.4814 111.367 30.0808C112.421 30.6803 113.61 30.98 114.927 30.98C116.769 30.98 118.282 30.4343 119.474 29.3428C120.665 28.2513 121.358 26.7753 121.558 24.9119H114.032V22.924H124.183V24.8044C124.038 26.3455 123.55 27.7537 122.721 29.0346C121.891 30.3155 120.799 31.325 119.445 32.0687C118.091 32.8123 116.586 33.1828 114.924 33.1828C113.174 33.1828 111.578 32.7756 110.132 31.9612C108.687 31.1468 107.547 30.0158 106.709 28.5652C105.871 27.1146 105.449 25.4774 105.449 23.6507C105.449 21.8241 105.868 20.184 106.709 18.725C107.547 17.2659 108.69 16.1292 110.132 15.3148C111.575 14.5004 113.174 14.0933 114.924 14.0933C116.928 14.0933 118.701 14.5853 120.243 15.5693C121.786 16.5533 122.909 17.9417 123.613 19.7316H120.662L120.665 19.7288Z" fill="url(#paint0_linear_95_487)"/>
<path d="M138.436 23.662C137.361 24.6913 135.725 25.2059 133.524 25.2059H129.898V33.0187H127.436V14.3053H133.527C135.657 14.3053 137.276 14.8143 138.385 15.8351C139.493 16.8559 140.049 18.1707 140.049 19.7825C140.049 21.3943 139.513 22.6328 138.439 23.662H138.436ZM136.555 22.3048C137.204 21.7138 137.529 20.874 137.529 19.7797C137.529 17.4695 136.193 16.3158 133.524 16.3158H129.898V23.1898H133.524C134.896 23.1898 135.907 22.8957 136.557 22.3048H136.555Z" fill="url(#paint1_linear_95_487)"/>
<path d="M145.514 14.3053V26.1476C145.514 27.813 145.924 29.0459 146.745 29.8518C147.566 30.6577 148.706 31.0592 150.169 31.0592C151.631 31.0592 152.746 30.6577 153.567 29.8518C154.387 29.0459 154.798 27.8102 154.798 26.1476V14.3053H157.261V26.1193C157.261 27.6773 156.944 28.9893 156.314 30.0525C155.682 31.1186 154.829 31.9103 153.758 32.4278C152.683 32.9481 151.48 33.2054 150.143 33.2054C148.806 33.2054 147.603 32.9452 146.528 32.4278C145.454 31.9075 144.607 31.1157 143.983 30.0525C143.362 28.9865 143.048 27.6773 143.048 26.1193V14.3053H145.514Z" fill="url(#paint2_linear_95_487)"/>
</g>
<g id="type">
<path d="M53.0214 14.3052V16.293H47.8789V33.0214H45.416V16.293H40.2451V14.3052H53.0214Z" fill="black"/>
<path d="M68.8307 18.3035L59.897 39.9463H57.3515L60.2762 32.8574L54.2928 18.3035H57.0265L61.6815 30.2249L66.2823 18.3035H68.8307Z" fill="black"/>
<path d="M75.9343 18.9086C76.9007 18.3459 78.0238 18.0631 79.3037 18.0631C80.5836 18.0631 81.8151 18.377 82.8897 19.0019C83.9644 19.6296 84.8082 20.5091 85.421 21.6458C86.0339 22.7825 86.3418 24.103 86.3418 25.6073C86.3418 27.1116 86.0339 28.418 85.421 29.5802C84.8082 30.7452 83.9644 31.6472 82.8897 32.2919C81.8151 32.9366 80.6207 33.2589 79.3037 33.2589C77.9867 33.2589 76.9263 32.9762 75.96 32.4135C74.9937 31.8508 74.2582 31.1467 73.7537 30.3069V40.0001H71.2908V18.3063H73.7537V21.018C74.2411 20.1782 74.968 19.4741 75.9315 18.9114L75.9343 18.9086ZM83.1491 22.709C82.6987 21.8861 82.0887 21.2584 81.3219 20.8286C80.5551 20.3988 79.7113 20.1839 78.7906 20.1839C77.8699 20.1839 77.0546 20.4044 76.2878 20.8427C75.521 21.281 74.9081 21.9172 74.4464 22.7486C73.9874 23.5799 73.7565 24.5441 73.7565 25.6356C73.7565 26.7271 73.9874 27.7167 74.4464 28.5481C74.9053 29.3794 75.521 30.0156 76.2878 30.4539C77.0546 30.8922 77.8898 31.1128 78.7906 31.1128C79.6914 31.1128 80.5551 30.895 81.3219 30.4539C82.0887 30.0156 82.6987 29.3794 83.1491 28.5481C83.5995 27.7167 83.8247 26.7355 83.8247 25.6073C83.8247 24.4791 83.5995 23.5318 83.1491 22.709Z" fill="black"/>
<path d="M103.043 26.5744H91.1875C91.2787 28.025 91.7775 29.156 92.6897 29.9704C93.6019 30.7847 94.7051 31.1919 96.0049 31.1919C97.0682 31.1919 97.9576 30.9459 98.6702 30.4539C99.3829 29.9619 99.8846 29.3031 100.172 28.4802H102.826C102.43 29.894 101.635 31.0449 100.443 31.9299C99.2517 32.815 97.7723 33.2589 96.0049 33.2589C94.5968 33.2589 93.3397 32.9451 92.2279 32.3202C91.1191 31.6952 90.2468 30.8017 89.6168 29.648C88.984 28.4943 88.6704 27.1569 88.6704 25.6328C88.6704 24.1087 88.9783 22.7768 89.5912 21.6316C90.204 20.4864 91.0678 19.6042 92.1766 18.9878C93.2855 18.3713 94.5625 18.0603 96.0078 18.0603C97.453 18.0603 98.6617 18.3657 99.742 18.9736C100.825 19.5816 101.66 20.4186 102.245 21.4846C102.832 22.5506 103.126 23.7524 103.126 25.0955C103.126 25.5621 103.1 26.0541 103.046 26.5715L103.043 26.5744ZM99.9587 22.1858C99.5425 21.5157 98.9809 21.0039 98.2683 20.6561C97.5557 20.3083 96.766 20.133 95.8995 20.133C94.6538 20.133 93.5934 20.526 92.7182 21.3149C91.8431 22.1038 91.3414 23.1953 91.216 24.5894H100.58C100.58 23.6591 100.372 22.8588 99.9587 22.1858Z" fill="black"/>
</g>
<g id="icon">
<path d="M11.9192 18.9283L6.12111 14.1694L1.23239 20.4326C0.722143 21.0858 0.596718 21.9596 0.904579 22.7287L5.55955 34.3814C5.94438 35.3428 6.82235 36.0187 7.85426 36.1487L23.2445 38.0828L20.7474 31.9384C18.3671 26.5347 16.0639 22.33 11.9163 18.9255L11.9192 18.9283Z" fill="url(#paint3_linear_95_487)"/>
<path d="M30.2483 25.4319L25.6218 13.5105C25.294 12.6679 24.5101 12.0882 23.6036 12.0175L10.6706 11.0165C8.96313 10.8836 8.41582 9.97314 8.24478 9.51506L8.17352 9.25491L5.61371 0L3.82641 4.19907C3.35321 5.31033 3.65537 6.59692 4.5761 7.38866L8.61821 10.8582L12.3325 13.8923C17.5148 18.1253 20.9669 24.086 22.0358 30.6603L23.2445 38.0857L30.0345 27.5329C30.4364 26.9051 30.5163 26.1275 30.2483 25.4319Z" fill="url(#paint4_linear_95_487)"/>
</g>
</g>
<defs>
<linearGradient id="paint0_linear_95_487" x1="121.232" y1="10.3054" x2="124.414" y2="42.3447" gradientUnits="userSpaceOnUse">
<stop offset="0.13" stop-color="#D48DFF"/>
<stop offset="0.25" stop-color="#D08CFE"/>
<stop offset="0.38" stop-color="#C48BFC"/>
<stop offset="0.5" stop-color="#B088F8"/>
<stop offset="0.62" stop-color="#9485F4"/>
<stop offset="0.75" stop-color="#6F81EE"/>
<stop offset="0.87" stop-color="#447CE6"/>
<stop offset="0.91" stop-color="#337AE4"/>
</linearGradient>
<linearGradient id="paint1_linear_95_487" x1="108.083" y1="5.27073" x2="110.324" y2="38.1234" gradientUnits="userSpaceOnUse">
<stop offset="0.13" stop-color="#D48DFF"/>
<stop offset="0.25" stop-color="#D08CFE"/>
<stop offset="0.38" stop-color="#C48BFC"/>
<stop offset="0.5" stop-color="#B088F8"/>
<stop offset="0.62" stop-color="#9485F4"/>
<stop offset="0.75" stop-color="#6F81EE"/>
<stop offset="0.87" stop-color="#447CE6"/>
<stop offset="0.91" stop-color="#337AE4"/>
</linearGradient>
<linearGradient id="paint2_linear_95_487" x1="144.647" y1="1.12259" x2="152.891" y2="31.1752" gradientUnits="userSpaceOnUse">
<stop offset="0.13" stop-color="#D48DFF"/>
<stop offset="0.25" stop-color="#D08CFE"/>
<stop offset="0.38" stop-color="#C48BFC"/>
<stop offset="0.5" stop-color="#B088F8"/>
<stop offset="0.62" stop-color="#9485F4"/>
<stop offset="0.75" stop-color="#6F81EE"/>
<stop offset="0.87" stop-color="#447CE6"/>
<stop offset="0.91" stop-color="#337AE4"/>
</linearGradient>
<linearGradient id="paint3_linear_95_487" x1="-6.94819" y1="-24.9221" x2="44.2898" y2="56.3984" gradientUnits="userSpaceOnUse">
<stop offset="0.24" stop-color="#D48DFF"/>
<stop offset="0.84" stop-color="#337AE4"/>
</linearGradient>
<linearGradient id="paint4_linear_95_487" x1="5.69667" y1="-7.10589" x2="34.9412" y2="48.9771" gradientUnits="userSpaceOnUse">
<stop offset="0.32" stop-color="#D48DFF"/>
<stop offset="0.82" stop-color="#337AE4"/>
</linearGradient>
<clipPath id="clip0_95_487">
<rect width="156.522" height="40" fill="white" transform="translate(0.739258)"/>
</clipPath>
</defs>
</svg>
