<svg width="166" height="166" viewBox="0 0 166 166" fill="none" xmlns="http://www.w3.org/2000/svg">
<path d="M70.0958 79.046L47.2291 60.178L27.9487 85.0102C25.9364 87.5999 25.4417 91.0641 26.6559 94.1135L45.0144 140.314C46.5321 144.125 49.9947 146.805 54.0644 147.321L114.761 154.989L104.913 130.627C95.5258 109.203 86.4421 92.5327 70.0846 79.0348L70.0958 79.046Z" fill="url(#paint0_linear_122_167)"/>
<path d="M142.383 104.831L124.137 57.5658C122.844 54.225 119.753 51.9267 116.178 51.6464L65.1717 47.6778C58.4376 47.1509 56.2791 43.5409 55.6046 41.7248L55.3235 40.6934L45.228 4L38.1791 20.6482C36.3129 25.0541 37.5046 30.1551 41.1358 33.2942L57.0773 47.05L71.726 59.0793C92.1643 75.8621 105.779 99.4947 109.995 125.56L114.761 155L141.54 113.161C143.125 110.672 143.44 107.589 142.383 104.831Z" fill="url(#paint1_linear_122_167)"/>
<defs>
<linearGradient id="paint0_linear_122_167" x1="-4.31439" y1="-94.8097" x2="199.293" y2="226.635" gradientUnits="userSpaceOnUse">
<stop offset="0.425" stop-color="#D48DFF"/>
<stop offset="0.635" stop-color="#6C80FF"/>
<stop offset="0.895" stop-color="#0059DF"/>
</linearGradient>
<linearGradient id="paint1_linear_122_167" x1="45.5552" y1="-24.1731" x2="161.852" y2="197.678" gradientUnits="userSpaceOnUse">
<stop offset="0.32" stop-color="#D48DFF"/>
<stop offset="0.825" stop-color="#273DE6"/>
</linearGradient>
</defs>
</svg>
