<svg width="329.5" height="97.5" viewBox="0 0 659 195" fill="none" xmlns="http://www.w3.org/2000/svg">
  <path
    d="M480.055 88.9692C478.078 84.8215 475.219 81.6088 471.48 79.3308C467.741 77.0529 463.389 75.9139 458.425 75.9139C453.461 75.9139 448.991 77.0529 445.004 79.3308C441.029 81.6088 437.891 84.8753 435.613 89.1303C433.335 93.3854 432.196 98.2959 432.196 103.873C432.196 109.449 433.335 114.349 435.613 118.561C437.891 122.784 441.018 126.029 445.004 128.307C448.98 130.585 453.461 131.724 458.425 131.724C465.366 131.724 471.072 129.65 475.563 125.502C480.055 121.355 482.666 115.746 483.418 108.665H455.051V101.111H493.314V108.257C492.766 114.113 490.929 119.464 487.802 124.331C484.675 129.199 480.56 133.035 475.456 135.861C470.352 138.687 464.678 140.094 458.414 140.094C451.817 140.094 445.799 138.547 440.352 135.452C434.904 132.358 430.606 128.06 427.447 122.548C424.288 117.035 422.698 110.814 422.698 103.873C422.698 96.9313 424.277 90.6991 427.447 85.1546C430.606 79.6102 434.915 75.2907 440.352 72.1961C445.789 69.1015 451.817 67.5542 458.414 67.5542C465.968 67.5542 472.651 69.4238 478.464 73.1631C484.277 76.9024 488.511 82.1783 491.165 88.9799H480.044L480.055 88.9692Z"
    fill="url(#paint0_linear_122_149)" />
  <path
    d="M547.04 103.916C542.989 107.827 536.821 109.782 528.526 109.782H514.859V139.471H505.575V68.3601H528.537C536.564 68.3601 542.667 70.2942 546.847 74.1732C551.026 78.0521 553.122 83.0486 553.122 89.1733C553.122 95.298 551.102 100.004 547.051 103.916H547.04ZM539.948 98.7579C542.398 96.5122 543.623 93.3209 543.623 89.1626C543.623 80.3838 538.584 75.9998 528.526 75.9998H514.859V102.121H528.526C533.695 102.121 537.509 101.004 539.959 98.7579H539.948Z"
    fill="url(#paint1_linear_122_149)" />
  <path
    d="M573.719 68.3601V113.361C573.719 119.689 575.266 124.374 578.361 127.437C581.456 130.499 585.754 132.025 591.266 132.025C596.778 132.025 600.979 130.499 604.074 127.437C607.169 124.374 608.716 119.679 608.716 113.361V68.3601H618V113.253C618 119.174 616.807 124.159 614.432 128.199C612.047 132.25 608.834 135.259 604.794 137.225C600.743 139.202 596.209 140.18 591.169 140.18C586.13 140.18 581.595 139.192 577.544 137.225C573.494 135.248 570.302 132.24 567.949 128.199C565.607 124.149 564.425 119.174 564.425 113.253V68.3601H573.719Z"
    fill="url(#paint2_linear_122_149)" />
  <path d="M225.075 68.3601V75.9139H205.691V139.482H196.407V75.9139H176.915V68.3601H225.075Z" fill="black" />
  <path
    d="M284.667 83.5537L250.992 165.797H241.397L252.421 138.859L229.867 83.5537H240.172L257.719 128.855L275.061 83.5537H284.667Z"
    fill="black" />
  <path
    d="M311.444 85.8531C315.086 83.7148 319.32 82.6403 324.144 82.6403C328.969 82.6403 333.611 83.833 337.662 86.2077C341.713 88.5931 344.893 91.9348 347.203 96.2544C349.514 100.574 350.674 105.592 350.674 111.308C350.674 117.025 349.514 121.989 347.203 126.405C344.893 130.832 341.713 134.26 337.662 136.71C333.611 139.159 329.109 140.384 324.144 140.384C319.18 140.384 315.183 139.31 311.541 137.172C307.898 135.033 305.126 132.358 303.224 129.167V166.001H293.94V83.5644H303.224V93.8689C305.061 90.6777 307.801 88.0021 311.433 85.8639L311.444 85.8531ZM338.64 100.295C336.942 97.1677 334.642 94.7823 331.752 93.149C328.862 91.5158 325.681 90.6991 322.21 90.6991C318.74 90.6991 315.667 91.5373 312.776 93.2027C309.886 94.8682 307.576 97.2859 305.835 100.445C304.105 103.604 303.235 107.268 303.235 111.416C303.235 115.563 304.105 119.324 305.835 122.483C307.565 125.642 309.886 128.06 312.776 129.725C315.667 131.391 318.815 132.229 322.21 132.229C325.606 132.229 328.862 131.402 331.752 129.725C334.642 128.06 336.942 125.642 338.64 122.483C340.337 119.324 341.186 115.596 341.186 111.308C341.186 107.021 340.337 103.421 338.64 100.295Z"
    fill="black" />
  <path
    d="M413.628 114.983H368.94C369.284 120.495 371.164 124.793 374.602 127.888C378.041 130.982 382.199 132.53 387.099 132.53C391.107 132.53 394.459 131.595 397.145 129.725C399.832 127.856 401.723 125.352 402.808 122.225H412.812C411.318 127.598 408.32 131.971 403.829 135.334C399.337 138.697 393.761 140.384 387.099 140.384C381.791 140.384 377.052 139.192 372.862 136.817C368.682 134.442 365.394 131.047 363.019 126.663C360.634 122.279 359.452 117.197 359.452 111.405C359.452 105.613 360.612 100.552 362.922 96.2006C365.233 91.8489 368.488 88.4964 372.668 86.154C376.848 83.8115 381.662 82.6296 387.11 82.6296C392.557 82.6296 397.113 83.79 401.186 86.1002C405.269 88.4104 408.417 91.591 410.62 95.6419C412.833 99.6928 413.94 104.259 413.94 109.363C413.94 111.136 413.843 113.006 413.639 114.972L413.628 114.983ZM402.002 98.3067C400.433 95.7601 398.317 93.8152 395.63 92.4936C392.944 91.1719 389.968 90.5057 386.701 90.5057C382.006 90.5057 378.009 91.9993 374.71 94.9972C371.411 97.9951 369.52 102.143 369.047 107.44H404.345C404.345 103.905 403.56 100.864 402.002 98.3067Z"
    fill="black" />
  <path
    d="M73.0958 87.046L50.2291 68.178L30.9487 93.0102C28.9364 95.5999 28.4417 99.0641 29.6559 102.113L48.0144 148.314C49.5321 152.125 52.9947 154.805 57.0644 155.321L117.761 162.989L107.913 138.627C98.5258 117.203 89.4421 100.533 73.0846 87.0348L73.0958 87.046Z"
    fill="url(#paint3_linear_122_149)" />
  <path
    d="M145.383 112.831L127.137 65.5658C125.844 62.225 122.753 59.9267 119.178 59.6464L68.1717 55.6778C61.4376 55.1509 59.2791 51.5409 58.6046 49.7248L58.3235 48.6934L48.228 12L41.1791 28.6482C39.3129 33.0541 40.5046 38.1551 44.1358 41.2942L60.0773 55.05L74.726 67.0793C95.1643 83.8621 108.779 107.495 112.995 133.56L117.761 163L144.54 121.161C146.125 118.672 146.44 115.589 145.383 112.831Z"
    fill="url(#paint4_linear_122_149)" />
  <defs>
    <linearGradient id="paint0_linear_122_149" x1="484.139" y1="92.815" x2="496.287" y2="156.313"
      gradientUnits="userSpaceOnUse">
      <stop stop-color="#B667FF" />
      <stop offset="0.48" stop-color="#725EF8" />
      <stop offset="1" stop-color="#5885FF" />
    </linearGradient>
    <linearGradient id="paint1_linear_122_149" x1="484.139" y1="92.815" x2="496.287" y2="156.313"
      gradientUnits="userSpaceOnUse">
      <stop stop-color="#B667FF" />
      <stop offset="0.48" stop-color="#725EF8" />
      <stop offset="1" stop-color="#5885FF" />
    </linearGradient>
    <linearGradient id="paint2_linear_122_149" x1="484.139" y1="92.815" x2="496.287" y2="156.313"
      gradientUnits="userSpaceOnUse">
      <stop stop-color="#B667FF" />
      <stop offset="0.48" stop-color="#725EF8" />
      <stop offset="1" stop-color="#5885FF" />
    </linearGradient>
    <linearGradient id="paint3_linear_122_149" x1="-1.31439" y1="-86.8097" x2="202.293" y2="234.635"
      gradientUnits="userSpaceOnUse">
      <stop offset="0.425" stop-color="#D48DFF" />
      <stop offset="0.635" stop-color="#6C80FF" />
      <stop offset="0.895" stop-color="#0059DF" />
    </linearGradient>
    <linearGradient id="paint4_linear_122_149" x1="48.5552" y1="-16.1731" x2="164.852" y2="205.678"
      gradientUnits="userSpaceOnUse">
      <stop offset="0.32" stop-color="#D48DFF" />
      <stop offset="0.825" stop-color="#273DE6" />
    </linearGradient>
  </defs>
</svg>