<svg width="166" height="166" viewBox="0 0 166 166" fill="none" xmlns="http://www.w3.org/2000/svg">
<path d="M70.0958 78.046L47.2291 59.178L27.9487 84.0102C25.9364 86.5999 25.4417 90.0641 26.6559 93.1135L45.0144 139.314C46.5321 143.125 49.9947 145.805 54.0644 146.321L114.761 153.989L104.913 129.627C95.5258 108.203 86.4421 91.5327 70.0846 78.0348L70.0958 78.046Z" fill="white"/>
<path d="M142.384 103.831L124.137 56.5658C122.845 53.225 119.753 50.9267 116.178 50.6465L65.1719 46.6778C58.4378 46.1509 56.2793 42.5409 55.6047 40.7248L55.3237 39.6934L45.2282 3L38.1793 19.6482C36.3131 24.0541 37.5047 29.1551 41.136 32.2942L57.0775 46.05L71.7261 58.0793C92.1645 74.862 105.779 98.4947 109.995 124.56L114.761 154L141.54 112.161C143.126 109.672 143.44 106.589 142.384 103.831Z" fill="url(#paint0_linear_122_172)"/>
<defs>
<linearGradient id="paint0_linear_122_172" x1="90.0001" y1="65.5" x2="114.5" y2="154" gradientUnits="userSpaceOnUse">
<stop stop-color="white"/>
<stop offset="1" stop-color="white" stop-opacity="0.75"/>
</linearGradient>
</defs>
</svg>
