<svg width="1042" height="990" viewBox="0 0 1042 990" fill="none" xmlns="http://www.w3.org/2000/svg">
<g filter="url(#filter0_d_28_86)">
<ellipse cx="437.5" cy="411" rx="24.5" ry="29" fill="url(#paint0_radial_28_86)"/>
<ellipse cx="437.5" cy="411" rx="24.5" ry="29" fill="url(#paint1_radial_28_86)"/>
<ellipse cx="580.5" cy="419" rx="24.5" ry="29" fill="url(#paint2_radial_28_86)"/>
<ellipse cx="580.5" cy="419" rx="24.5" ry="29" fill="url(#paint3_radial_28_86)"/>
<path d="M445.963 112.504L486.648 198.243L508.059 54.3204L445.963 112.504Z" fill="url(#paint4_linear_28_86)"/>
<path d="M505.794 210.599L657.794 313.599L650 325.5L520.5 380L380.5 308.5L373.794 296.6L505.794 210.599Z" fill="url(#paint5_linear_28_86)"/>
<path fill-rule="evenodd" clip-rule="evenodd" d="M529.294 376.999L521 372.999L373.794 296.598L380.738 458.786L529.294 551.598L534.5 538.499L529.294 376.999ZM462.859 418.059C470.3 421.262 476 423.716 476 412.999C476 394.765 467 384.999 450 377.005C433 369.011 420 380.344 420 398.578C420 416.811 432.5 417.656 446 414.499C451.566 413.197 457.64 415.812 462.859 418.059Z" fill="url(#paint6_linear_28_86)"/>
<path fill-rule="evenodd" clip-rule="evenodd" d="M657.794 313.599L521 373L529.294 551.599L657.794 458.788L657.794 313.599ZM579.683 423.57C570.305 429.593 565 433 565 418.5C565 400.146 571 390.666 588 382.62C605 374.573 618 385.981 618 404.335C618 415.374 612.393 415.358 604.768 415.336C599.716 415.322 593.779 415.305 588 418.5C584.956 420.183 582.176 421.969 579.683 423.57Z" fill="url(#paint7_linear_28_86)"/>
<path d="M592.597 423.814C589.555 425.496 586.729 427.512 583.927 429.578C583.636 429.793 583.333 430.017 583.022 430.248C580.723 431.954 577.92 434.034 575.436 435.322C574.005 436.065 571.636 437.125 568.785 437.224C565.313 437.345 561.821 436.004 559.313 433.05C557.246 430.616 556.446 427.775 556.06 425.738C555.644 423.542 555.5 421.085 555.5 418.5C555.5 408.351 557.148 399.356 562.121 391.577C567.082 383.818 574.595 378.454 583.936 374.033C595.036 368.779 606.461 369.34 615.172 376.051C623.498 382.464 627.5 393.087 627.5 404.335C627.5 409.673 626.478 416.158 621.112 420.249C616.204 423.991 610.268 423.494 607.597 423.256C606.178 423.13 604.903 422.993 603.741 422.868C598.74 422.329 595.846 422.017 592.597 423.814Z" stroke="url(#paint8_linear_28_86)" stroke-width="19"/>
<path d="M447.664 419.75C448.061 419.657 449.341 419.61 452.189 420.842C454.26 421.737 456.129 422.813 458.317 424.071C459.212 424.586 460.161 425.131 461.199 425.708C462.757 426.574 464.668 427.583 466.627 428.304C468.404 428.958 471.534 429.89 475.059 429.16C479.405 428.261 482.379 425.309 483.915 421.878C485.214 418.975 485.5 415.778 485.5 413C485.5 402.186 482.781 393.053 476.921 385.392C471.232 377.954 463.191 372.711 454.043 368.409C442.957 363.197 431.556 363.752 422.852 370.413C414.517 376.791 410.5 387.369 410.5 398.579C410.5 403.996 411.36 409.18 413.947 413.478C416.775 418.175 421.021 420.759 425.525 421.812C429.621 422.769 433.801 422.444 437.234 421.928C440.436 421.446 443.83 420.65 446.855 419.94C447.128 419.876 447.397 419.813 447.664 419.75Z" stroke="url(#paint9_linear_28_86)" stroke-width="19"/>
<ellipse cx="770.725" cy="716.126" rx="24.7245" ry="34.1264" transform="rotate(20.0401 770.725 716.126)" fill="url(#paint10_radial_28_86)"/>
<ellipse cx="770.725" cy="716.126" rx="24.7245" ry="34.1264" transform="rotate(20.0401 770.725 716.126)" fill="url(#paint11_radial_28_86)"/>
<ellipse cx="630.056" cy="712.385" rx="24.7245" ry="34.1264" fill="url(#paint12_radial_28_86)"/>
<ellipse cx="630.056" cy="712.385" rx="24.7245" ry="34.1264" fill="url(#paint13_radial_28_86)"/>
<path d="M824.148 485.478L729 510.196L825.648 400.013L824.148 485.478Z" fill="url(#paint14_linear_28_86)"/>
<path d="M700.795 518.599L852.794 621.599L841.5 637.5L720.5 689L575 621.599L568.794 604.599L700.795 518.599Z" fill="url(#paint15_linear_28_86)"/>
<path fill-rule="evenodd" clip-rule="evenodd" d="M724.294 684.5L716 681L568.794 604.599L575.738 766.787L724.294 859.599L733.5 842L724.294 684.5ZM645.001 751.035C659.501 758.999 672.001 749.891 672.001 731.657C672.001 713.424 662.001 693 645.001 685.006C628.001 677.012 615.001 688.345 615.001 706.579C615.001 724.812 630.501 743.071 645.001 751.035Z" fill="url(#paint16_linear_28_86)"/>
<path fill-rule="evenodd" clip-rule="evenodd" d="M852.794 621.599L716 681L724.294 859.599L852.794 766.787V621.599ZM783.001 757.084C768.501 765.101 756.001 755.932 756.001 737.579C756.001 719.225 766.001 698.666 783.001 690.62C800.001 682.573 813.001 693.981 813.001 712.335C813.001 730.688 797.501 749.068 783.001 757.084Z" fill="url(#paint17_linear_28_86)"/>
<path d="M640.428 759.362C650.132 764.692 660.941 765.045 669.495 758.876C677.675 752.976 681.501 742.74 681.501 731.657C681.501 710.71 670.169 686.342 649.043 676.409C637.958 671.196 626.557 671.752 617.853 678.412C609.518 684.791 605.501 695.369 605.501 706.579C605.501 718.323 610.438 729.366 616.874 738.237C623.339 747.148 631.882 754.668 640.428 759.362Z" stroke="url(#paint18_linear_28_86)" stroke-width="19"/>
<path d="M787.598 765.398C777.882 770.77 767.048 771.127 758.483 764.908C750.311 758.976 746.501 748.698 746.501 737.579C746.501 716.544 757.806 692.034 778.937 682.033C790.037 676.779 801.462 677.34 810.173 684.051C818.499 690.464 822.501 701.087 822.501 712.335C822.501 724.121 817.578 735.216 811.145 744.141C804.686 753.103 796.145 760.673 787.598 765.398Z" stroke="url(#paint19_linear_28_86)" stroke-width="19"/>
<ellipse cx="291.725" cy="684.126" rx="24.7245" ry="34.1264" fill="url(#paint20_radial_28_86)"/>
<ellipse cx="291.725" cy="684.126" rx="24.7245" ry="34.1264" fill="url(#paint21_radial_28_86)"/>
<ellipse cx="430.725" cy="702.126" rx="24.7245" ry="34.1264" fill="url(#paint22_radial_28_86)"/>
<ellipse cx="430.725" cy="702.126" rx="24.7245" ry="34.1264" fill="url(#paint23_radial_28_86)"/>
<path d="M230.515 461.827L323.818 492.788L182.808 532.753L230.515 461.827Z" fill="url(#paint24_linear_28_86)"/>
<path d="M342.794 504.599L494.794 607.599L485 624.5L358.5 677L218.5 607.599L210.794 590.6L342.794 504.599Z" fill="url(#paint25_linear_28_86)"/>
<path fill-rule="evenodd" clip-rule="evenodd" d="M366.293 670.5L357.999 667L210.793 590.6L217.737 752.788L366.293 845.599L372.999 831L366.293 670.5ZM299.7 718.605C308.097 725.406 313.999 730.187 313.999 717.658C313.999 699.424 303.999 679 286.999 671.006C269.999 663.012 256.999 674.346 256.999 692.579C256.999 704.004 263.084 704.628 271.196 705.46C276.03 705.956 281.584 706.526 286.999 709.5C291.536 711.992 295.877 715.508 299.7 718.605Z" fill="url(#paint26_linear_28_86)"/>
<path fill-rule="evenodd" clip-rule="evenodd" d="M494.794 607.599L358 667L366.294 845.599L494.794 752.788V607.599ZM425 743.085C410.5 751.101 398 741.933 398 723.579C398 705.225 408 684.666 425 676.62C442 668.573 455 679.981 455 698.335C455 716.689 439.5 735.068 425 743.085Z" fill="url(#paint27_linear_28_86)"/>
<path d="M282.427 717.827C285.297 719.403 288.267 721.616 291.41 724.124C292.056 724.639 292.737 725.191 293.439 725.76C295.804 727.677 298.4 729.781 300.633 731.284C302.116 732.282 304.074 733.467 306.274 734.201C308.443 734.925 312.222 735.651 316.131 733.661C320.064 731.658 321.776 728.108 322.529 725.615C323.288 723.101 323.5 720.332 323.5 717.658C323.5 696.711 312.168 672.343 291.043 662.409C279.957 657.197 268.556 657.752 259.852 664.413C251.517 670.791 247.5 681.369 247.5 692.579C247.5 698.307 248.697 703.939 252.669 708.24C256.547 712.44 261.57 713.685 264.989 714.259C266.73 714.552 268.54 714.737 270.074 714.895L270.166 714.904C271.819 715.074 273.282 715.225 274.756 715.451C277.644 715.893 280.135 716.568 282.427 717.827Z" stroke="url(#paint28_linear_28_86)" stroke-width="19"/>
<path d="M429.597 751.398C419.881 756.77 409.047 757.127 400.482 750.908C392.31 744.976 388.5 734.698 388.5 723.579C388.5 702.544 399.805 678.034 420.936 668.033C432.036 662.779 443.461 663.34 452.172 670.051C460.498 676.464 464.5 687.087 464.5 698.335C464.5 710.121 459.577 721.216 453.144 730.141C446.685 739.103 438.144 746.673 429.597 751.398Z" stroke="url(#paint29_linear_28_86)" stroke-width="19"/>
</g>
<defs>
<filter id="filter0_d_28_86" x="150.808" y="32.3203" width="733.986" height="869.278" filterUnits="userSpaceOnUse" color-interpolation-filters="sRGB">
<feFlood flood-opacity="0" result="BackgroundImageFix"/>
<feColorMatrix in="SourceAlpha" type="matrix" values="0 0 0 0 0 0 0 0 0 0 0 0 0 0 0 0 0 0 127 0" result="hardAlpha"/>
<feOffset dy="10"/>
<feGaussianBlur stdDeviation="16"/>
<feComposite in2="hardAlpha" operator="out"/>
<feColorMatrix type="matrix" values="0 0 0 0 0 0 0 0 0 0 0 0 0 0 0 0 0 0 0.16 0"/>
<feBlend mode="normal" in2="BackgroundImageFix" result="effect1_dropShadow_28_86"/>
<feBlend mode="normal" in="SourceGraphic" in2="effect1_dropShadow_28_86" result="shape"/>
</filter>
<radialGradient id="paint0_radial_28_86" cx="0" cy="0" r="1" gradientUnits="userSpaceOnUse" gradientTransform="translate(431.741 394.229) rotate(77.1559) scale(44.2109 36.9061)">
<stop stop-color="#666666"/>
<stop offset="1"/>
</radialGradient>
<radialGradient id="paint1_radial_28_86" cx="0" cy="0" r="1" gradientUnits="userSpaceOnUse" gradientTransform="translate(436.169 417.76) rotate(97.2994) scale(60.1309 50.6027)">
<stop stop-opacity="0"/>
<stop offset="0.44" stop-opacity="0.117521"/>
<stop offset="0.605" stop-opacity="0.79"/>
<stop offset="1"/>
</radialGradient>
<radialGradient id="paint2_radial_28_86" cx="0" cy="0" r="1" gradientUnits="userSpaceOnUse" gradientTransform="translate(574.741 402.229) rotate(77.1559) scale(44.2109 36.9061)">
<stop stop-color="#666666"/>
<stop offset="1"/>
</radialGradient>
<radialGradient id="paint3_radial_28_86" cx="0" cy="0" r="1" gradientUnits="userSpaceOnUse" gradientTransform="translate(579.169 425.76) rotate(97.2994) scale(60.1309 50.6027)">
<stop stop-opacity="0"/>
<stop offset="0.44" stop-opacity="0.117521"/>
<stop offset="0.605" stop-opacity="0.79"/>
<stop offset="1"/>
</radialGradient>
<linearGradient id="paint4_linear_28_86" x1="484.484" y1="95.0434" x2="600.708" y2="376.566" gradientUnits="userSpaceOnUse">
<stop stop-color="#F0EB79"/>
<stop offset="1" stop-color="#1396A8"/>
</linearGradient>
<linearGradient id="paint5_linear_28_86" x1="496.486" y1="203.628" x2="466.468" y2="541.871" gradientUnits="userSpaceOnUse">
<stop stop-color="#F0EB79"/>
<stop offset="1" stop-color="#1396A8"/>
</linearGradient>
<linearGradient id="paint6_linear_28_86" x1="333" y1="178.999" x2="476.246" y2="555.205" gradientUnits="userSpaceOnUse">
<stop stop-color="#F0EB79"/>
<stop offset="1" stop-color="#1396A8"/>
</linearGradient>
<linearGradient id="paint7_linear_28_86" x1="395.136" y1="157.178" x2="410.526" y2="559.439" gradientUnits="userSpaceOnUse">
<stop stop-color="#F0EB79"/>
<stop offset="1" stop-color="#1396A8"/>
</linearGradient>
<linearGradient id="paint8_linear_28_86" x1="624" y1="455" x2="581.642" y2="371.15" gradientUnits="userSpaceOnUse">
<stop stop-color="#F0EB79"/>
<stop offset="1" stop-color="#1396A8"/>
</linearGradient>
<linearGradient id="paint9_linear_28_86" x1="485" y1="461.5" x2="454.741" y2="352.006" gradientUnits="userSpaceOnUse">
<stop stop-color="#F0EB79"/>
<stop offset="1" stop-color="#1396A8"/>
</linearGradient>
<radialGradient id="paint10_radial_28_86" cx="0" cy="0" r="1" gradientUnits="userSpaceOnUse" gradientTransform="translate(764.913 696.391) rotate(78.9366) scale(51.6849 37.4903)">
<stop stop-color="#666666"/>
<stop offset="1"/>
</radialGradient>
<radialGradient id="paint11_radial_28_86" cx="0" cy="0" r="1" gradientUnits="userSpaceOnUse" gradientTransform="translate(769.382 724.082) rotate(96.2687) scale(70.609 51.1759)">
<stop stop-opacity="0"/>
<stop offset="0.44" stop-opacity="0.117521"/>
<stop offset="0.605" stop-opacity="0.79"/>
<stop offset="1"/>
</radialGradient>
<radialGradient id="paint12_radial_28_86" cx="0" cy="0" r="1" gradientUnits="userSpaceOnUse" gradientTransform="translate(624.244 692.649) rotate(78.9366) scale(51.6849 37.4903)">
<stop stop-color="#666666"/>
<stop offset="1"/>
</radialGradient>
<radialGradient id="paint13_radial_28_86" cx="0" cy="0" r="1" gradientUnits="userSpaceOnUse" gradientTransform="translate(628.713 720.34) rotate(96.2687) scale(70.609 51.1759)">
<stop stop-opacity="0"/>
<stop offset="0.44" stop-opacity="0.117521"/>
<stop offset="0.605" stop-opacity="0.79"/>
<stop offset="1"/>
</radialGradient>
<linearGradient id="paint14_linear_28_86" x1="810.617" y1="444.603" x2="515.795" y2="553.629" gradientUnits="userSpaceOnUse">
<stop stop-color="#8DEAFF"/>
<stop offset="1" stop-color="#3A88FD"/>
</linearGradient>
<linearGradient id="paint15_linear_28_86" x1="691.486" y1="511.628" x2="661.469" y2="849.871" gradientUnits="userSpaceOnUse">
<stop stop-color="#8DEAFF"/>
<stop offset="1" stop-color="#3A88FD"/>
</linearGradient>
<linearGradient id="paint16_linear_28_86" x1="528" y1="487" x2="671.246" y2="863.206" gradientUnits="userSpaceOnUse">
<stop stop-color="#8DEAFF"/>
<stop offset="1" stop-color="#3A88FD"/>
</linearGradient>
<linearGradient id="paint17_linear_28_86" x1="590.136" y1="465.178" x2="605.526" y2="867.439" gradientUnits="userSpaceOnUse">
<stop stop-color="#8DEAFF"/>
<stop offset="1" stop-color="#3A88FD"/>
</linearGradient>
<linearGradient id="paint18_linear_28_86" x1="680.001" y1="769.5" x2="649.742" y2="660.006" gradientUnits="userSpaceOnUse">
<stop stop-color="#8DEAFF"/>
<stop offset="1" stop-color="#3A88FD"/>
</linearGradient>
<linearGradient id="paint19_linear_28_86" x1="819.001" y1="763" x2="776.643" y2="679.15" gradientUnits="userSpaceOnUse">
<stop stop-color="#8DEAFF"/>
<stop offset="1" stop-color="#3A88FD"/>
</linearGradient>
<radialGradient id="paint20_radial_28_86" cx="0" cy="0" r="1" gradientUnits="userSpaceOnUse" gradientTransform="translate(285.913 664.39) rotate(78.9366) scale(51.6849 37.4903)">
<stop stop-color="#666666"/>
<stop offset="1"/>
</radialGradient>
<radialGradient id="paint21_radial_28_86" cx="0" cy="0" r="1" gradientUnits="userSpaceOnUse" gradientTransform="translate(290.382 692.082) rotate(96.2687) scale(70.609 51.1759)">
<stop stop-opacity="0"/>
<stop offset="0.44" stop-opacity="0.117521"/>
<stop offset="0.605" stop-opacity="0.79"/>
<stop offset="1"/>
</radialGradient>
<radialGradient id="paint22_radial_28_86" cx="0" cy="0" r="1" gradientUnits="userSpaceOnUse" gradientTransform="translate(424.913 682.39) rotate(78.9366) scale(51.6849 37.4903)">
<stop stop-color="#666666"/>
<stop offset="1"/>
</radialGradient>
<radialGradient id="paint23_radial_28_86" cx="0" cy="0" r="1" gradientUnits="userSpaceOnUse" gradientTransform="translate(429.382 710.082) rotate(96.2687) scale(70.609 51.1759)">
<stop stop-opacity="0"/>
<stop offset="0.44" stop-opacity="0.117521"/>
<stop offset="0.605" stop-opacity="0.79"/>
<stop offset="1"/>
</radialGradient>
<linearGradient id="paint24_linear_28_86" x1="219.658" y1="503.492" x2="526.393" y2="572.202" gradientUnits="userSpaceOnUse">
<stop stop-color="#FABB40"/>
<stop offset="1" stop-color="#D00466"/>
</linearGradient>
<linearGradient id="paint25_linear_28_86" x1="333.486" y1="497.628" x2="303.468" y2="835.871" gradientUnits="userSpaceOnUse">
<stop stop-color="#FABB40"/>
<stop offset="1" stop-color="#D00466"/>
</linearGradient>
<linearGradient id="paint26_linear_28_86" x1="170" y1="473" x2="313.246" y2="849.206" gradientUnits="userSpaceOnUse">
<stop stop-color="#FABB40"/>
<stop offset="1" stop-color="#D00466"/>
</linearGradient>
<linearGradient id="paint27_linear_28_86" x1="232.136" y1="451.178" x2="247.526" y2="853.439" gradientUnits="userSpaceOnUse">
<stop stop-color="#FABB40"/>
<stop offset="1" stop-color="#D00466"/>
</linearGradient>
<linearGradient id="paint28_linear_28_86" x1="322" y1="755.5" x2="291.741" y2="646.006" gradientUnits="userSpaceOnUse">
<stop stop-color="#FABB40"/>
<stop offset="1" stop-color="#D00466"/>
</linearGradient>
<linearGradient id="paint29_linear_28_86" x1="461" y1="749" x2="418.642" y2="665.15" gradientUnits="userSpaceOnUse">
<stop stop-color="#FABB40"/>
<stop offset="1" stop-color="#D00466"/>
</linearGradient>
</defs>
</svg>
